<?xml version="1.0" encoding="UTF-8" standalone="yes"?><svg xmlns="http://www.w3.org/2000/svg" xmlns:xlink="http://www.w3.org/1999/xlink" height="712px" style="width:625px;height:712px;" version="1.1" viewBox="0 0 625 712" width="625px"><defs><filter height="300%" id="f1" width="300%" x="-1" y="-1"><feGaussianBlur result="blurOut" stdDeviation="2.0"/><feColorMatrix in="blurOut" result="blurOut2" type="matrix" values="0 0 0 0 0 0 0 0 0 0 0 0 0 0 0 0 0 0 .4 0"/><feOffset dx="4.0" dy="4.0" in="blurOut2" result="blurOut3"/><feBlend in="SourceGraphic" in2="blurOut3" mode="normal"/></filter></defs><g><polygon fill="#FFFFFF" filter="url(#f1)" points="22,24,315,24,322,47.6094,618,47.6094,618,705,22,705,22,24" style="stroke: #000000; stroke-width: 2.0;"/><line style="stroke: #000000; stroke-width: 2.0;" x1="22" x2="322" y1="47.6094" y2="47.6094"/><text fill="#000000" font-family="sans-serif" font-size="14" font-weight="bold" lengthAdjust="spacingAndGlyphs" textLength="287" x="26" y="40.5332">uk.ac.ucl.excites.sapelli.collector.control</text><rect fill="#FEFECE" filter="url(#f1)" height="48" style="stroke: #A80036; stroke-width: 1.5;" width="135" x="38" y="351"/><ellipse cx="53" cy="367" fill="#A9DCDF" rx="11" ry="11" style="stroke: #A80036; stroke-width: 1.0;"/><path d="M54.75,368.5 L51.4531,368.5 L51.0156,369.5 L51.0156,369.5 L51.4844,369.5 L52,370.125 L52,370.5 L52,370.875 L51.4844,371.5 L51.0156,371.5 L49.125,371.5 L48.5156,371.5 L48,370.875 L48,370.5 L48,370.125 L48.5156,369.5 L49.125,369.5 L51.4375,363.5 L50.5625,363.5 L49.5156,363.5 L49,362.875 L49,362.5 L49,362.125 L49.5156,361.5 L50.5625,361.5 L54.2344,361.5 L56.9219,369.5 L57.4844,369.5 L57.4844,369.5 L58,370.125 L58,370.5 L58,370.875 L57.4844,371.5 L56.9219,371.5 L55.0313,371.5 L54.5156,371.5 L54,370.875 L54,370.5 L54,370.125 L54.5156,369.5 L55.0313,369.5 L55.0313,369.5 L54.75,368.5 Z M54.2031,366.5 L53,362.9219 L51.9688,366.5 L54.2031,366.5 Z "/><text fill="#000000" font-family="sans-serif" font-size="12" font-style="italic" lengthAdjust="spacingAndGlyphs" textLength="103" x="67" y="371.9102">CollectorController</text><line style="stroke: #A80036; stroke-width: 1.5;" x1="39" x2="172" y1="383" y2="383"/><line style="stroke: #A80036; stroke-width: 1.5;" x1="39" x2="172" y1="391" y2="391"/><rect fill="#FEFECE" filter="url(#f1)" height="48" style="stroke: #A80036; stroke-width: 1.5;" width="177" x="233" y="641"/><ellipse cx="248" cy="657" fill="#ADD1B2" rx="11" ry="11" style="stroke: #A80036; stroke-width: 1.0;"/><path d="M250,653.5 Q250.2031,653 250.4375,652.75 Q250.6719,652.5 250.9375,652.5 Q251.4063,652.5 251.7031,652.7813 Q252,653.0625 252,653.7188 L252,655.2813 Q252,655.9375 251.7188,656.2188 Q251.4375,656.5 251,656.5 Q250.6094,656.5 250.3594,656.3281 Q250.1094,656.1563 250,655.7031 Q249.9531,655.3906 249.7813,655.2188 Q249.4688,654.8906 248.9063,654.6953 Q248.3438,654.5 247.7813,654.5 Q247.0781,654.5 246.4922,654.7813 Q245.9063,655.0625 245.4531,655.6875 Q245,656.3125 245,657.1719 L245,658.0938 Q245,659.125 245.8438,659.8125 Q246.6875,660.5 248.1875,660.5 Q249.0781,660.5 249.7031,660.2969 Q250.0625,660.1875 250.4688,659.8281 Q250.7344,659.625 250.875,659.5625 Q251.0156,659.5 251.1875,659.5 Q251.5156,659.5 251.7578,659.7578 Q252,660.0156 252,660.375 Q252,660.7188 251.6563,661.125 Q251.1563,661.7188 250.3594,662.0469 Q249.3125,662.5 248.0313,662.5 Q246.5313,662.5 245.3281,661.9063 Q244.3594,661.4375 243.6797,660.4219 Q243,659.4063 243,658.2031 L243,657.1094 Q243,655.8594 243.6016,654.7656 Q244.2031,653.6719 245.2578,653.0859 Q246.3125,652.5 247.5,652.5 Q248.2188,652.5 248.8438,652.75 Q249.4688,653 250,653.5 Z "/><text fill="#000000" font-family="sans-serif" font-size="12" lengthAdjust="spacingAndGlyphs" textLength="145" x="262" y="661.9102">AndroidCollectorController</text><line style="stroke: #A80036; stroke-width: 1.5;" x1="234" x2="409" y1="673" y2="673"/><line style="stroke: #A80036; stroke-width: 1.5;" x1="234" x2="409" y1="681" y2="681"/><rect fill="#FEFECE" filter="url(#f1)" height="48" style="stroke: #A80036; stroke-width: 1.5;" width="93" x="275" y="558"/><ellipse cx="290" cy="574" fill="#ADD1B2" rx="11" ry="11" style="stroke: #A80036; stroke-width: 1.0;"/><path d="M292,570.5 Q292.2031,570 292.4375,569.75 Q292.6719,569.5 292.9375,569.5 Q293.4063,569.5 293.7031,569.7813 Q294,570.0625 294,570.7188 L294,572.2813 Q294,572.9375 293.7188,573.2188 Q293.4375,573.5 293,573.5 Q292.6094,573.5 292.3594,573.3281 Q292.1094,573.1563 292,572.7031 Q291.9531,572.3906 291.7813,572.2188 Q291.4688,571.8906 290.9063,571.6953 Q290.3438,571.5 289.7813,571.5 Q289.0781,571.5 288.4922,571.7813 Q287.9063,572.0625 287.4531,572.6875 Q287,573.3125 287,574.1719 L287,575.0938 Q287,576.125 287.8438,576.8125 Q288.6875,577.5 290.1875,577.5 Q291.0781,577.5 291.7031,577.2969 Q292.0625,577.1875 292.4688,576.8281 Q292.7344,576.625 292.875,576.5625 Q293.0156,576.5 293.1875,576.5 Q293.5156,576.5 293.7578,576.7578 Q294,577.0156 294,577.375 Q294,577.7188 293.6563,578.125 Q293.1563,578.7188 292.3594,579.0469 Q291.3125,579.5 290.0313,579.5 Q288.5313,579.5 287.3281,578.9063 Q286.3594,578.4375 285.6797,577.4219 Q285,576.4063 285,575.2031 L285,574.1094 Q285,572.8594 285.6016,571.7656 Q286.2031,570.6719 287.2578,570.0859 Q288.3125,569.5 289.5,569.5 Q290.2188,569.5 290.8438,569.75 Q291.4688,570 292,570.5 Z "/><text fill="#000000" font-family="sans-serif" font-size="12" lengthAdjust="spacingAndGlyphs" textLength="61" x="304" y="578.9102">CollectorUI</text><line style="stroke: #A80036; stroke-width: 1.5;" x1="276" x2="367" y1="590" y2="590"/><line style="stroke: #A80036; stroke-width: 1.5;" x1="276" x2="367" y1="598" y2="598"/><rect fill="#FEFECE" filter="url(#f1)" height="48" style="stroke: #A80036; stroke-width: 1.5;" width="140" x="251.5" y="475"/><ellipse cx="266.5" cy="491" fill="#ADD1B2" rx="11" ry="11" style="stroke: #A80036; stroke-width: 1.0;"/><path d="M268.5,487.5 Q268.7031,487 268.9375,486.75 Q269.1719,486.5 269.4375,486.5 Q269.9063,486.5 270.2031,486.7813 Q270.5,487.0625 270.5,487.7188 L270.5,489.2813 Q270.5,489.9375 270.2188,490.2188 Q269.9375,490.5 269.5,490.5 Q269.1094,490.5 268.8594,490.3281 Q268.6094,490.1563 268.5,489.7031 Q268.4531,489.3906 268.2813,489.2188 Q267.9688,488.8906 267.4063,488.6953 Q266.8438,488.5 266.2813,488.5 Q265.5781,488.5 264.9922,488.7813 Q264.4063,489.0625 263.9531,489.6875 Q263.5,490.3125 263.5,491.1719 L263.5,492.0938 Q263.5,493.125 264.3438,493.8125 Q265.1875,494.5 266.6875,494.5 Q267.5781,494.5 268.2031,494.2969 Q268.5625,494.1875 268.9688,493.8281 Q269.2344,493.625 269.375,493.5625 Q269.5156,493.5 269.6875,493.5 Q270.0156,493.5 270.2578,493.7578 Q270.5,494.0156 270.5,494.375 Q270.5,494.7188 270.1563,495.125 Q269.6563,495.7188 268.8594,496.0469 Q267.8125,496.5 266.5313,496.5 Q265.0313,496.5 263.8281,495.9063 Q262.8594,495.4375 262.1797,494.4219 Q261.5,493.4063 261.5,492.2031 L261.5,491.1094 Q261.5,489.8594 262.1016,488.7656 Q262.7031,487.6719 263.7578,487.0859 Q264.8125,486.5 266,486.5 Q266.7188,486.5 267.3438,486.75 Q267.9688,487 268.5,487.5 Z "/><text fill="#000000" font-family="sans-serif" font-size="12" lengthAdjust="spacingAndGlyphs" textLength="108" x="280.5" y="495.9102">FileStorageProvider</text><line style="stroke: #A80036; stroke-width: 1.5;" x1="252.5" x2="390.5" y1="507" y2="507"/><line style="stroke: #A80036; stroke-width: 1.5;" x1="252.5" x2="390.5" y1="515" y2="515"/><rect fill="#FEFECE" filter="url(#f1)" height="48" style="stroke: #A80036; stroke-width: 1.5;" width="107" x="268" y="392"/><ellipse cx="283" cy="408" fill="#ADD1B2" rx="11" ry="11" style="stroke: #A80036; stroke-width: 1.0;"/><path d="M285,404.5 Q285.2031,404 285.4375,403.75 Q285.6719,403.5 285.9375,403.5 Q286.4063,403.5 286.7031,403.7813 Q287,404.0625 287,404.7188 L287,406.2813 Q287,406.9375 286.7188,407.2188 Q286.4375,407.5 286,407.5 Q285.6094,407.5 285.3594,407.3281 Q285.1094,407.1563 285,406.7031 Q284.9531,406.3906 284.7813,406.2188 Q284.4688,405.8906 283.9063,405.6953 Q283.3438,405.5 282.7813,405.5 Q282.0781,405.5 281.4922,405.7813 Q280.9063,406.0625 280.4531,406.6875 Q280,407.3125 280,408.1719 L280,409.0938 Q280,410.125 280.8438,410.8125 Q281.6875,411.5 283.1875,411.5 Q284.0781,411.5 284.7031,411.2969 Q285.0625,411.1875 285.4688,410.8281 Q285.7344,410.625 285.875,410.5625 Q286.0156,410.5 286.1875,410.5 Q286.5156,410.5 286.7578,410.7578 Q287,411.0156 287,411.375 Q287,411.7188 286.6563,412.125 Q286.1563,412.7188 285.3594,413.0469 Q284.3125,413.5 283.0313,413.5 Q281.5313,413.5 280.3281,412.9063 Q279.3594,412.4375 278.6797,411.4219 Q278,410.4063 278,409.2031 L278,408.1094 Q278,406.8594 278.6016,405.7656 Q279.2031,404.6719 280.2578,404.0859 Q281.3125,403.5 282.5,403.5 Q283.2188,403.5 283.8438,403.75 Q284.4688,404 285,404.5 Z "/><text fill="#000000" font-family="sans-serif" font-size="12" lengthAdjust="spacingAndGlyphs" textLength="75" x="297" y="412.9102">FormSession</text><line style="stroke: #A80036; stroke-width: 1.5;" x1="269" x2="374" y1="424" y2="424"/><line style="stroke: #A80036; stroke-width: 1.5;" x1="269" x2="374" y1="432" y2="432"/><rect fill="#FEFECE" filter="url(#f1)" height="48" style="stroke: #A80036; stroke-width: 1.5;" width="71" x="286" y="309"/><ellipse cx="301" cy="325" fill="#ADD1B2" rx="11" ry="11" style="stroke: #A80036; stroke-width: 1.0;"/><path d="M303,321.5 Q303.2031,321 303.4375,320.75 Q303.6719,320.5 303.9375,320.5 Q304.4063,320.5 304.7031,320.7813 Q305,321.0625 305,321.7188 L305,323.2813 Q305,323.9375 304.7188,324.2188 Q304.4375,324.5 304,324.5 Q303.6094,324.5 303.3594,324.3281 Q303.1094,324.1563 303,323.7031 Q302.9531,323.3906 302.7813,323.2188 Q302.4688,322.8906 301.9063,322.6953 Q301.3438,322.5 300.7813,322.5 Q300.0781,322.5 299.4922,322.7813 Q298.9063,323.0625 298.4531,323.6875 Q298,324.3125 298,325.1719 L298,326.0938 Q298,327.125 298.8438,327.8125 Q299.6875,328.5 301.1875,328.5 Q302.0781,328.5 302.7031,328.2969 Q303.0625,328.1875 303.4688,327.8281 Q303.7344,327.625 303.875,327.5625 Q304.0156,327.5 304.1875,327.5 Q304.5156,327.5 304.7578,327.7578 Q305,328.0156 305,328.375 Q305,328.7188 304.6563,329.125 Q304.1563,329.7188 303.3594,330.0469 Q302.3125,330.5 301.0313,330.5 Q299.5313,330.5 298.3281,329.9063 Q297.3594,329.4375 296.6797,328.4219 Q296,327.4063 296,326.2031 L296,325.1094 Q296,323.8594 296.6016,322.7656 Q297.2031,321.6719 298.2578,321.0859 Q299.3125,320.5 300.5,320.5 Q301.2188,320.5 301.8438,320.75 Q302.4688,321 303,321.5 Z "/><text fill="#000000" font-family="sans-serif" font-size="12" lengthAdjust="spacingAndGlyphs" textLength="39" x="315" y="329.9102">Logger</text><line style="stroke: #A80036; stroke-width: 1.5;" x1="287" x2="356" y1="341" y2="341"/><line style="stroke: #A80036; stroke-width: 1.5;" x1="287" x2="356" y1="349" y2="349"/><rect fill="#FEFECE" filter="url(#f1)" height="48" style="stroke: #A80036; stroke-width: 1.5;" width="70" x="286.5" y="226"/><ellipse cx="301.5" cy="242" fill="#ADD1B2" rx="11" ry="11" style="stroke: #A80036; stroke-width: 1.0;"/><path d="M303.5,238.5 Q303.7031,238 303.9375,237.75 Q304.1719,237.5 304.4375,237.5 Q304.9063,237.5 305.2031,237.7813 Q305.5,238.0625 305.5,238.7188 L305.5,240.2813 Q305.5,240.9375 305.2188,241.2188 Q304.9375,241.5 304.5,241.5 Q304.1094,241.5 303.8594,241.3281 Q303.6094,241.1563 303.5,240.7031 Q303.4531,240.3906 303.2813,240.2188 Q302.9688,239.8906 302.4063,239.6953 Q301.8438,239.5 301.2813,239.5 Q300.5781,239.5 299.9922,239.7813 Q299.4063,240.0625 298.9531,240.6875 Q298.5,241.3125 298.5,242.1719 L298.5,243.0938 Q298.5,244.125 299.3438,244.8125 Q300.1875,245.5 301.6875,245.5 Q302.5781,245.5 303.2031,245.2969 Q303.5625,245.1875 303.9688,244.8281 Q304.2344,244.625 304.375,244.5625 Q304.5156,244.5 304.6875,244.5 Q305.0156,244.5 305.2578,244.7578 Q305.5,245.0156 305.5,245.375 Q305.5,245.7188 305.1563,246.125 Q304.6563,246.7188 303.8594,247.0469 Q302.8125,247.5 301.5313,247.5 Q300.0313,247.5 298.8281,246.9063 Q297.8594,246.4375 297.1797,245.4219 Q296.5,244.4063 296.5,243.2031 L296.5,242.1094 Q296.5,240.8594 297.1016,239.7656 Q297.7031,238.6719 298.7578,238.0859 Q299.8125,237.5 301,237.5 Q301.7188,237.5 302.3438,237.75 Q302.9688,238 303.5,238.5 Z "/><text fill="#000000" font-family="sans-serif" font-size="12" lengthAdjust="spacingAndGlyphs" textLength="38" x="315.5" y="246.9102">Project</text><line style="stroke: #A80036; stroke-width: 1.5;" x1="287.5" x2="355.5" y1="258" y2="258"/><line style="stroke: #A80036; stroke-width: 1.5;" x1="287.5" x2="355.5" y1="266" y2="266"/><rect fill="#FEFECE" filter="url(#f1)" height="48" style="stroke: #A80036; stroke-width: 1.5;" width="99" x="272" y="143"/><ellipse cx="287" cy="159" fill="#ADD1B2" rx="11" ry="11" style="stroke: #A80036; stroke-width: 1.0;"/><path d="M289,155.5 Q289.2031,155 289.4375,154.75 Q289.6719,154.5 289.9375,154.5 Q290.4063,154.5 290.7031,154.7813 Q291,155.0625 291,155.7188 L291,157.2813 Q291,157.9375 290.7188,158.2188 Q290.4375,158.5 290,158.5 Q289.6094,158.5 289.3594,158.3281 Q289.1094,158.1563 289,157.7031 Q288.9531,157.3906 288.7813,157.2188 Q288.4688,156.8906 287.9063,156.6953 Q287.3438,156.5 286.7813,156.5 Q286.0781,156.5 285.4922,156.7813 Q284.9063,157.0625 284.4531,157.6875 Q284,158.3125 284,159.1719 L284,160.0938 Q284,161.125 284.8438,161.8125 Q285.6875,162.5 287.1875,162.5 Q288.0781,162.5 288.7031,162.2969 Q289.0625,162.1875 289.4688,161.8281 Q289.7344,161.625 289.875,161.5625 Q290.0156,161.5 290.1875,161.5 Q290.5156,161.5 290.7578,161.7578 Q291,162.0156 291,162.375 Q291,162.7188 290.6563,163.125 Q290.1563,163.7188 289.3594,164.0469 Q288.3125,164.5 287.0313,164.5 Q285.5313,164.5 284.3281,163.9063 Q283.3594,163.4375 282.6797,162.4219 Q282,161.4063 282,160.2031 L282,159.1094 Q282,157.8594 282.6016,156.7656 Q283.2031,155.6719 284.2578,155.0859 Q285.3125,154.5 286.5,154.5 Q287.2188,154.5 287.8438,154.75 Q288.4688,155 289,155.5 Z "/><text fill="#000000" font-family="sans-serif" font-size="12" lengthAdjust="spacingAndGlyphs" textLength="67" x="301" y="163.9102">ProjectStore</text><line style="stroke: #A80036; stroke-width: 1.5;" x1="273" x2="370" y1="175" y2="175"/><line style="stroke: #A80036; stroke-width: 1.5;" x1="273" x2="370" y1="183" y2="183"/><rect fill="#FEFECE" filter="url(#f1)" height="48" style="stroke: #A80036; stroke-width: 1.5;" width="101" x="271" y="60"/><ellipse cx="286" cy="76" fill="#ADD1B2" rx="11" ry="11" style="stroke: #A80036; stroke-width: 1.0;"/><path d="M288,72.5 Q288.2031,72 288.4375,71.75 Q288.6719,71.5 288.9375,71.5 Q289.4063,71.5 289.7031,71.7813 Q290,72.0625 290,72.7188 L290,74.2813 Q290,74.9375 289.7188,75.2188 Q289.4375,75.5 289,75.5 Q288.6094,75.5 288.3594,75.3281 Q288.1094,75.1563 288,74.7031 Q287.9531,74.3906 287.7813,74.2188 Q287.4688,73.8906 286.9063,73.6953 Q286.3438,73.5 285.7813,73.5 Q285.0781,73.5 284.4922,73.7813 Q283.9063,74.0625 283.4531,74.6875 Q283,75.3125 283,76.1719 L283,77.0938 Q283,78.125 283.8438,78.8125 Q284.6875,79.5 286.1875,79.5 Q287.0781,79.5 287.7031,79.2969 Q288.0625,79.1875 288.4688,78.8281 Q288.7344,78.625 288.875,78.5625 Q289.0156,78.5 289.1875,78.5 Q289.5156,78.5 289.7578,78.7578 Q290,79.0156 290,79.375 Q290,79.7188 289.6563,80.125 Q289.1563,80.7188 288.3594,81.0469 Q287.3125,81.5 286.0313,81.5 Q284.5313,81.5 283.3281,80.9063 Q282.3594,80.4375 281.6797,79.4219 Q281,78.4063 281,77.2031 L281,76.1094 Q281,74.8594 281.6016,73.7656 Q282.2031,72.6719 283.2578,72.0859 Q284.3125,71.5 285.5,71.5 Q286.2188,71.5 286.8438,71.75 Q287.4688,72 288,72.5 Z "/><text fill="#000000" font-family="sans-serif" font-size="12" lengthAdjust="spacingAndGlyphs" textLength="69" x="300" y="80.9102">RecordStore</text><line style="stroke: #A80036; stroke-width: 1.5;" x1="272" x2="371" y1="92" y2="92"/><line style="stroke: #A80036; stroke-width: 1.5;" x1="272" x2="371" y1="100" y2="100"/><rect fill="#FEFECE" filter="url(#f1)" height="48" style="stroke: #A80036; stroke-width: 1.5;" width="116" x="478" y="641"/><ellipse cx="493" cy="657" fill="#ADD1B2" rx="11" ry="11" style="stroke: #A80036; stroke-width: 1.0;"/><path d="M495,653.5 Q495.2031,653 495.4375,652.75 Q495.6719,652.5 495.9375,652.5 Q496.4063,652.5 496.7031,652.7813 Q497,653.0625 497,653.7188 L497,655.2813 Q497,655.9375 496.7188,656.2188 Q496.4375,656.5 496,656.5 Q495.6094,656.5 495.3594,656.3281 Q495.1094,656.1563 495,655.7031 Q494.9531,655.3906 494.7813,655.2188 Q494.4688,654.8906 493.9063,654.6953 Q493.3438,654.5 492.7813,654.5 Q492.0781,654.5 491.4922,654.7813 Q490.9063,655.0625 490.4531,655.6875 Q490,656.3125 490,657.1719 L490,658.0938 Q490,659.125 490.8438,659.8125 Q491.6875,660.5 493.1875,660.5 Q494.0781,660.5 494.7031,660.2969 Q495.0625,660.1875 495.4688,659.8281 Q495.7344,659.625 495.875,659.5625 Q496.0156,659.5 496.1875,659.5 Q496.5156,659.5 496.7578,659.7578 Q497,660.0156 497,660.375 Q497,660.7188 496.6563,661.125 Q496.1563,661.7188 495.3594,662.0469 Q494.3125,662.5 493.0313,662.5 Q491.5313,662.5 490.3281,661.9063 Q489.3594,661.4375 488.6797,660.4219 Q488,659.4063 488,658.2031 L488,657.1094 Q488,655.8594 488.6016,654.7656 Q489.2031,653.6719 490.2578,653.0859 Q491.3125,652.5 492.5,652.5 Q493.2188,652.5 493.8438,652.75 Q494.4688,653 495,653.5 Z "/><text fill="#000000" font-family="sans-serif" font-size="12" lengthAdjust="spacingAndGlyphs" textLength="84" x="507" y="661.9102">CollectorActivity</text><line style="stroke: #A80036; stroke-width: 1.5;" x1="479" x2="593" y1="673" y2="673"/><line style="stroke: #A80036; stroke-width: 1.5;" x1="479" x2="593" y1="681" y2="681"/><rect fill="#FEFECE" filter="url(#f1)" height="48" style="stroke: #A80036; stroke-width: 1.5;" width="127" x="472.5" y="558"/><ellipse cx="487.5" cy="574" fill="#ADD1B2" rx="11" ry="11" style="stroke: #A80036; stroke-width: 1.0;"/><path d="M489.5,570.5 Q489.7031,570 489.9375,569.75 Q490.1719,569.5 490.4375,569.5 Q490.9063,569.5 491.2031,569.7813 Q491.5,570.0625 491.5,570.7188 L491.5,572.2813 Q491.5,572.9375 491.2188,573.2188 Q490.9375,573.5 490.5,573.5 Q490.1094,573.5 489.8594,573.3281 Q489.6094,573.1563 489.5,572.7031 Q489.4531,572.3906 489.2813,572.2188 Q488.9688,571.8906 488.4063,571.6953 Q487.8438,571.5 487.2813,571.5 Q486.5781,571.5 485.9922,571.7813 Q485.4063,572.0625 484.9531,572.6875 Q484.5,573.3125 484.5,574.1719 L484.5,575.0938 Q484.5,576.125 485.3438,576.8125 Q486.1875,577.5 487.6875,577.5 Q488.5781,577.5 489.2031,577.2969 Q489.5625,577.1875 489.9688,576.8281 Q490.2344,576.625 490.375,576.5625 Q490.5156,576.5 490.6875,576.5 Q491.0156,576.5 491.2578,576.7578 Q491.5,577.0156 491.5,577.375 Q491.5,577.7188 491.1563,578.125 Q490.6563,578.7188 489.8594,579.0469 Q488.8125,579.5 487.5313,579.5 Q486.0313,579.5 484.8281,578.9063 Q483.8594,578.4375 483.1797,577.4219 Q482.5,576.4063 482.5,575.2031 L482.5,574.1094 Q482.5,572.8594 483.1016,571.7656 Q483.7031,570.6719 484.7578,570.0859 Q485.8125,569.5 487,569.5 Q487.7188,569.5 488.3438,569.75 Q488.9688,570 489.5,570.5 Z "/><text fill="#000000" font-family="sans-serif" font-size="12" lengthAdjust="spacingAndGlyphs" textLength="95" x="501.5" y="578.9102">LocationManager</text><line style="stroke: #A80036; stroke-width: 1.5;" x1="473.5" x2="598.5" y1="590" y2="590"/><line style="stroke: #A80036; stroke-width: 1.5;" x1="473.5" x2="598.5" y1="598" y2="598"/><rect fill="#FEFECE" filter="url(#f1)" height="48" style="stroke: #A80036; stroke-width: 1.5;" width="132" x="470" y="475"/><ellipse cx="485" cy="491" fill="#ADD1B2" rx="11" ry="11" style="stroke: #A80036; stroke-width: 1.0;"/><path d="M487,487.5 Q487.2031,487 487.4375,486.75 Q487.6719,486.5 487.9375,486.5 Q488.4063,486.5 488.7031,486.7813 Q489,487.0625 489,487.7188 L489,489.2813 Q489,489.9375 488.7188,490.2188 Q488.4375,490.5 488,490.5 Q487.6094,490.5 487.3594,490.3281 Q487.1094,490.1563 487,489.7031 Q486.9531,489.3906 486.7813,489.2188 Q486.4688,488.8906 485.9063,488.6953 Q485.3438,488.5 484.7813,488.5 Q484.0781,488.5 483.4922,488.7813 Q482.9063,489.0625 482.4531,489.6875 Q482,490.3125 482,491.1719 L482,492.0938 Q482,493.125 482.8438,493.8125 Q483.6875,494.5 485.1875,494.5 Q486.0781,494.5 486.7031,494.2969 Q487.0625,494.1875 487.4688,493.8281 Q487.7344,493.625 487.875,493.5625 Q488.0156,493.5 488.1875,493.5 Q488.5156,493.5 488.7578,493.7578 Q489,494.0156 489,494.375 Q489,494.7188 488.6563,495.125 Q488.1563,495.7188 487.3594,496.0469 Q486.3125,496.5 485.0313,496.5 Q483.5313,496.5 482.3281,495.9063 Q481.3594,495.4375 480.6797,494.4219 Q480,493.4063 480,492.2031 L480,491.1094 Q480,489.8594 480.6016,488.7656 Q481.2031,487.6719 482.2578,487.0859 Q483.3125,486.5 484.5,486.5 Q485.2188,486.5 485.8438,486.75 Q486.4688,487 487,487.5 Z "/><text fill="#000000" font-family="sans-serif" font-size="12" lengthAdjust="spacingAndGlyphs" textLength="100" x="499" y="495.9102">OrientationSensor</text><line style="stroke: #A80036; stroke-width: 1.5;" x1="471" x2="601" y1="507" y2="507"/><line style="stroke: #A80036; stroke-width: 1.5;" x1="471" x2="601" y1="515" y2="515"/><rect fill="#FEFECE" filter="url(#f1)" height="48" style="stroke: #A80036; stroke-width: 1.5;" width="79" x="496.5" y="392"/><ellipse cx="511.5" cy="408" fill="#ADD1B2" rx="11" ry="11" style="stroke: #A80036; stroke-width: 1.0;"/><path d="M513.5,404.5 Q513.7031,404 513.9375,403.75 Q514.1719,403.5 514.4375,403.5 Q514.9063,403.5 515.2031,403.7813 Q515.5,404.0625 515.5,404.7188 L515.5,406.2813 Q515.5,406.9375 515.2188,407.2188 Q514.9375,407.5 514.5,407.5 Q514.1094,407.5 513.8594,407.3281 Q513.6094,407.1563 513.5,406.7031 Q513.4531,406.3906 513.2813,406.2188 Q512.9688,405.8906 512.4063,405.6953 Q511.8438,405.5 511.2813,405.5 Q510.5781,405.5 509.9922,405.7813 Q509.4063,406.0625 508.9531,406.6875 Q508.5,407.3125 508.5,408.1719 L508.5,409.0938 Q508.5,410.125 509.3438,410.8125 Q510.1875,411.5 511.6875,411.5 Q512.5781,411.5 513.2031,411.2969 Q513.5625,411.1875 513.9688,410.8281 Q514.2344,410.625 514.375,410.5625 Q514.5156,410.5 514.6875,410.5 Q515.0156,410.5 515.2578,410.7578 Q515.5,411.0156 515.5,411.375 Q515.5,411.7188 515.1563,412.125 Q514.6563,412.7188 513.8594,413.0469 Q512.8125,413.5 511.5313,413.5 Q510.0313,413.5 508.8281,412.9063 Q507.8594,412.4375 507.1797,411.4219 Q506.5,410.4063 506.5,409.2031 L506.5,408.1094 Q506.5,406.8594 507.1016,405.7656 Q507.7031,404.6719 508.7578,404.0859 Q509.8125,403.5 511,403.5 Q511.7188,403.5 512.3438,403.75 Q512.9688,404 513.5,404.5 Z "/><text fill="#000000" font-family="sans-serif" font-size="12" lengthAdjust="spacingAndGlyphs" textLength="47" x="525.5" y="412.9102">Location</text><line style="stroke: #A80036; stroke-width: 1.5;" x1="497.5" x2="574.5" y1="424" y2="424"/><line style="stroke: #A80036; stroke-width: 1.5;" x1="497.5" x2="574.5" y1="432" y2="432"/><path d="M119.161,418.684 C136.792,472.782 173.459,564.88 233,623 C239.994,629.8267 248.31,635.716 256.99,640.7421 " fill="none" style="stroke: #A80036; stroke-width: 1.0;"/><polygon fill="none" points="112.393,420.495,113.136,399.318,125.761,416.337,112.393,420.495" style="stroke: #A80036; stroke-width: 1.0;"/><path d="M126.898,410.68 C149.143,447.048 187.688,503.199 233,540 C245.426,550.092 260.679,558.478 274.95,565.034 " fill="none" style="stroke: #A80036; stroke-width: 1.0;"/><polygon fill="#A80036" points="119.992,399.162,119.6463,406.3648,126.1621,409.4542,126.5078,402.2514,119.992,399.162" style="stroke: #A80036; stroke-width: 1.0;"/><path d="M151.721,406.317 C175.468,422.245 205.316,441.466 233,457 C244.021,463.184 256.095,469.35 267.659,474.977 " fill="none" style="stroke: #A80036; stroke-width: 1.0;"/><polygon fill="#A80036" points="140.931,399.025,143.6623,405.6988,150.8732,405.7446,148.142,399.0707,140.931,399.025" style="stroke: #A80036; stroke-width: 1.0;"/><path d="M185.827,390.198 C213.222,395.447 243.215,401.193 267.929,405.928 " fill="none" style="stroke: #A80036; stroke-width: 1.0;"/><polygon fill="#A80036" points="173.038,387.748,178.1778,392.8059,184.8235,390.0067,179.6837,384.9489,173.038,387.748" style="stroke: #A80036; stroke-width: 1.0;"/><text fill="#000000" font-family="sans-serif" font-size="13" lengthAdjust="spacingAndGlyphs" textLength="7" x="180.8078" y="403.5317">1</text><text fill="#000000" font-family="sans-serif" font-size="13" lengthAdjust="spacingAndGlyphs" textLength="32" x="227.8849" y="419.2039">many</text><path d="M185.978,359.402 C220.344,352.657 258.774,345.115 285.73,339.824 " fill="none" style="stroke: #A80036; stroke-width: 1.0;"/><polygon fill="#A80036" points="173.038,361.941,179.6962,364.7102,184.8132,359.6292,178.155,356.86,173.038,361.941" style="stroke: #A80036; stroke-width: 1.0;"/><path d="M150.557,343.415 C174.42,326.909 204.731,306.894 233,291 C250.109,281.381 269.856,271.99 286.256,264.628 " fill="none" style="stroke: #A80036; stroke-width: 1.0;"/><polygon fill="#A80036" points="139.738,350.963,146.9475,350.8103,149.5794,344.0966,142.3699,344.2493,139.738,350.963" style="stroke: #A80036; stroke-width: 1.0;"/><path d="M126.546,339.094 C148.626,302.214 187.149,245.105 233,208 C244.476,198.713 258.401,190.966 271.736,184.798 " fill="none" style="stroke: #A80036; stroke-width: 1.0;"/><polygon fill="#A80036" points="119.702,350.768,126.1875,347.6155,125.7719,340.4164,119.2864,343.5689,119.702,350.768" style="stroke: #A80036; stroke-width: 1.0;"/><path d="M116.65,338.303 C133.055,285.045 170.08,186.046 233,125 C243.596,114.72 257.246,106.663 270.599,100.515 " fill="none" style="stroke: #A80036; stroke-width: 1.0;"/><polygon fill="#A80036" points="112.92,350.807,118.4686,346.2013,116.3512,339.308,110.8026,343.9138,112.92,350.807" style="stroke: #A80036; stroke-width: 1.0;"/><path d="M423.388,665 C442.113,665 461.061,665 477.897,665 " fill="none" style="stroke: #A80036; stroke-width: 1.0;"/><polygon fill="#A80036" points="410.159,665,416.159,669,422.159,665,416.159,661,410.159,665" style="stroke: #A80036; stroke-width: 1.0;"/><path d="M396.08,636.2604 C421.264,626.424 449.16,615.528 473.307,606.097 " fill="none" style="stroke: #A80036; stroke-width: 1.0;"/><polygon fill="#A80036" points="383.964,640.993,391.008,642.5365,395.142,636.628,388.098,635.0845,383.964,640.993" style="stroke: #A80036; stroke-width: 1.0;"/><path d="M394.363,634.2698 C399.873,630.7998 405.164,627.0422 410,623 C444.925,593.809 436.813,571.153 470,540 C476.517,533.882 484.076,528.158 491.684,523.041 " fill="none" style="stroke: #A80036; stroke-width: 1.0;"/><polygon fill="#A80036" points="382.822,640.9872,390.0198,641.4258,393.193,634.9504,385.9952,634.5118,382.822,640.9872" style="stroke: #A80036; stroke-width: 1.0;"/><path d="M398.496,633.56 C402.654,630.3411 406.539,626.828 410,623 C462.61,564.807 420.828,518.126 470,457 C477.108,448.164 486.662,440.675 496.254,434.613 " fill="none" style="stroke: #A80036; stroke-width: 1.0;"/><polygon fill="#A80036" points="387.684,640.9669,394.8945,640.8759,397.5838,634.185,390.3733,634.276,387.684,640.9669" style="stroke: #A80036; stroke-width: 1.0;"/></g></svg>