<?xml version="1.0" encoding="UTF-8" standalone="yes"?><svg xmlns="http://www.w3.org/2000/svg" xmlns:xlink="http://www.w3.org/1999/xlink" height="318.5px" style="width:1053px;height:318px;" version="1.1" viewBox="0 0 1053 318" width="1053.5px"><defs><filter height="300%" id="f1" width="300%" x="-1" y="-1"><feGaussianBlur result="blurOut" stdDeviation="1.399999976158142"/><feColorMatrix in="blurOut" result="blurOut2" type="matrix" values="0 0 0 0 0 0 0 0 0 0 0 0 0 0 0 0 0 0 .4 0"/><feOffset dx="2.799999952316284" dy="2.799999952316284" in="blurOut2" result="blurOut3"/><feBlend in="SourceGraphic" in2="blurOut3" mode="normal"/></filter></defs><g><polygon fill="#FFFFFF" filter="url(#f1)" points="15.4,16.8,224.7,16.8,229.6,33.3266,1048.6,33.3266,1048.6,313.6,15.4,313.6,15.4,16.8" style="stroke: #000000; stroke-width: 1.399999976158142;"/><line style="stroke: #000000; stroke-width: 1.399999976158142;" x1="15.4" x2="229.6" y1="33.3266" y2="33.3266"/><text fill="#000000" font-family="sans-serif" font-size="9.8" font-weight="bold" lengthAdjust="spacingAndGlyphs" textLength="205.1" x="18.2" y="28.3732">uk.ac.ucl.excites.sapelli.collector.ui.fields</text><rect fill="#FEFECE" filter="url(#f1)" height="33.6" style="stroke: #A80036; stroke-width: 1.0499999821186066;" width="50.4" x="697.2" y="42"/><ellipse cx="707.7" cy="53.2" fill="#A9DCDF" rx="7.7" ry="7.7" style="stroke: #A80036; stroke-width: 0.699999988079071;"/><path d="M708.925,54.25 L706.6172,54.25 L706.3109,54.95 L706.3109,54.95 L706.6391,54.95 L707,55.3875 L707,55.65 L707,55.9125 L706.6391,56.35 L706.3109,56.35 L704.9875,56.35 L704.5609,56.35 L704.2,55.9125 L704.2,55.65 L704.2,55.3875 L704.5609,54.95 L704.9875,54.95 L706.6062,50.75 L705.9937,50.75 L705.2609,50.75 L704.9,50.3125 L704.9,50.05 L704.9,49.7875 L705.2609,49.35 L705.9937,49.35 L708.5641,49.35 L710.4453,54.95 L710.8391,54.95 L710.8391,54.95 L711.2,55.3875 L711.2,55.65 L711.2,55.9125 L710.8391,56.35 L710.4453,56.35 L709.1219,56.35 L708.7609,56.35 L708.4,55.9125 L708.4,55.65 L708.4,55.3875 L708.7609,54.95 L709.1219,54.95 L709.1219,54.95 L708.925,54.25 Z M708.5422,52.85 L707.7,50.3453 L706.9781,52.85 L708.5422,52.85 Z "/><text fill="#000000" font-family="sans-serif" font-size="8.4" font-style="italic" lengthAdjust="spacingAndGlyphs" textLength="28" x="717.5" y="56.6371">FieldUI</text><line style="stroke: #A80036; stroke-width: 1.0499999821186066;" x1="697.9" x2="746.9" y1="64.4" y2="64.4"/><line style="stroke: #A80036; stroke-width: 1.0499999821186066;" x1="697.9" x2="746.9" y1="70" y2="70"/><rect fill="#FEFECE" filter="url(#f1)" height="33.6" style="stroke: #A80036; stroke-width: 1.0499999821186066;" width="112" x="255.5" y="117.6"/><ellipse cx="266" cy="128.8" fill="#A9DCDF" rx="7.7" ry="7.7" style="stroke: #A80036; stroke-width: 0.699999988079071;"/><path d="M267.225,129.85 L264.9172,129.85 L264.6109,130.55 L264.6109,130.55 L264.9391,130.55 L265.3,130.9875 L265.3,131.25 L265.3,131.5125 L264.9391,131.95 L264.6109,131.95 L263.2875,131.95 L262.8609,131.95 L262.5,131.5125 L262.5,131.25 L262.5,130.9875 L262.8609,130.55 L263.2875,130.55 L264.9062,126.35 L264.2937,126.35 L263.5609,126.35 L263.2,125.9125 L263.2,125.65 L263.2,125.3875 L263.5609,124.95 L264.2937,124.95 L266.8641,124.95 L268.7453,130.55 L269.1391,130.55 L269.1391,130.55 L269.5,130.9875 L269.5,131.25 L269.5,131.5125 L269.1391,131.95 L268.7453,131.95 L267.4219,131.95 L267.0609,131.95 L266.7,131.5125 L266.7,131.25 L266.7,130.9875 L267.0609,130.55 L267.4219,130.55 L267.4219,130.55 L267.225,129.85 Z M266.8422,128.45 L266,125.9453 L265.2781,128.45 L266.8422,128.45 Z "/><text fill="#000000" font-family="sans-serif" font-size="8.4" font-style="italic" lengthAdjust="spacingAndGlyphs" textLength="89.6" x="275.8" y="132.2371">NonSelfLeavingFieldUI</text><line style="stroke: #A80036; stroke-width: 1.0499999821186066;" x1="256.2" x2="366.8" y1="140" y2="140"/><line style="stroke: #A80036; stroke-width: 1.0499999821186066;" x1="256.2" x2="366.8" y1="145.6" y2="145.6"/><rect fill="#FEFECE" filter="url(#f1)" height="33.6" style="stroke: #A80036; stroke-width: 1.0499999821186066;" width="95.9" x="674.45" y="117.6"/><ellipse cx="684.95" cy="128.8" fill="#A9DCDF" rx="7.7" ry="7.7" style="stroke: #A80036; stroke-width: 0.699999988079071;"/><path d="M686.175,129.85 L683.8672,129.85 L683.5609,130.55 L683.5609,130.55 L683.8891,130.55 L684.25,130.9875 L684.25,131.25 L684.25,131.5125 L683.8891,131.95 L683.5609,131.95 L682.2375,131.95 L681.8109,131.95 L681.45,131.5125 L681.45,131.25 L681.45,130.9875 L681.8109,130.55 L682.2375,130.55 L683.8562,126.35 L683.2437,126.35 L682.5109,126.35 L682.15,125.9125 L682.15,125.65 L682.15,125.3875 L682.5109,124.95 L683.2437,124.95 L685.8141,124.95 L687.6953,130.55 L688.0891,130.55 L688.0891,130.55 L688.45,130.9875 L688.45,131.25 L688.45,131.5125 L688.0891,131.95 L687.6953,131.95 L686.3719,131.95 L686.0109,131.95 L685.65,131.5125 L685.65,131.25 L685.65,130.9875 L686.0109,130.55 L686.3719,130.55 L686.3719,130.55 L686.175,129.85 Z M685.7922,128.45 L684.95,125.9453 L684.2281,128.45 L685.7922,128.45 Z "/><text fill="#000000" font-family="sans-serif" font-size="8.4" font-style="italic" lengthAdjust="spacingAndGlyphs" textLength="73.5" x="694.75" y="132.2371">SelfLeavingFieldUI</text><line style="stroke: #A80036; stroke-width: 1.0499999821186066;" x1="675.15" x2="769.65" y1="140" y2="140"/><line style="stroke: #A80036; stroke-width: 1.0499999821186066;" x1="675.15" x2="769.65" y1="145.6" y2="145.6"/><rect fill="#FEFECE" filter="url(#f1)" height="33.6" style="stroke: #A80036; stroke-width: 1.0499999821186066;" width="51.8" x="882.7" y="117.6"/><ellipse cx="893.2" cy="128.8" fill="#A9DCDF" rx="7.7" ry="7.7" style="stroke: #A80036; stroke-width: 0.699999988079071;"/><path d="M894.425,129.85 L892.1172,129.85 L891.8109,130.55 L891.8109,130.55 L892.139,130.55 L892.5,130.9875 L892.5,131.25 L892.5,131.5125 L892.139,131.95 L891.8109,131.95 L890.4875,131.95 L890.0609,131.95 L889.7,131.5125 L889.7,131.25 L889.7,130.9875 L890.0609,130.55 L890.4875,130.55 L892.1062,126.35 L891.4937,126.35 L890.7609,126.35 L890.4,125.9125 L890.4,125.65 L890.4,125.3875 L890.7609,124.95 L891.4937,124.95 L894.064,124.95 L895.9453,130.55 L896.339,130.55 L896.339,130.55 L896.7,130.9875 L896.7,131.25 L896.7,131.5125 L896.339,131.95 L895.9453,131.95 L894.6219,131.95 L894.2609,131.95 L893.9,131.5125 L893.9,131.25 L893.9,130.9875 L894.2609,130.55 L894.6219,130.55 L894.6219,130.55 L894.425,129.85 Z M894.0422,128.45 L893.2,125.9453 L892.4781,128.45 L894.0422,128.45 Z "/><text fill="#000000" font-family="sans-serif" font-size="8.4" font-style="italic" lengthAdjust="spacingAndGlyphs" textLength="29.4" x="903" y="132.2371">PageUI</text><line style="stroke: #A80036; stroke-width: 1.0499999821186066;" x1="883.4" x2="933.8" y1="140" y2="140"/><line style="stroke: #A80036; stroke-width: 1.0499999821186066;" x1="883.4" x2="933.8" y1="145.6" y2="145.6"/><rect fill="#FEFECE" filter="url(#f1)" height="33.6" style="stroke: #A80036; stroke-width: 1.0499999821186066;" width="71.4" x="61.6" y="193.2"/><ellipse cx="72.1" cy="204.4" fill="#A9DCDF" rx="7.7" ry="7.7" style="stroke: #A80036; stroke-width: 0.699999988079071;"/><path d="M73.325,205.45 L71.0172,205.45 L70.7109,206.15 L70.7109,206.15 L71.0391,206.15 L71.4,206.5875 L71.4,206.85 L71.4,207.1125 L71.0391,207.55 L70.7109,207.55 L69.3875,207.55 L68.9609,207.55 L68.6,207.1125 L68.6,206.85 L68.6,206.5875 L68.9609,206.15 L69.3875,206.15 L71.0062,201.95 L70.3937,201.95 L69.6609,201.95 L69.3,201.5125 L69.3,201.25 L69.3,200.9875 L69.6609,200.55 L70.3937,200.55 L72.9641,200.55 L74.8453,206.15 L75.2391,206.15 L75.2391,206.15 L75.6,206.5875 L75.6,206.85 L75.6,207.1125 L75.2391,207.55 L74.8453,207.55 L73.5219,207.55 L73.1609,207.55 L72.8,207.1125 L72.8,206.85 L72.8,206.5875 L73.1609,206.15 L73.5219,206.15 L73.5219,206.15 L73.325,205.45 Z M72.9422,204.05 L72.1,201.5453 L71.3781,204.05 L72.9422,204.05 Z "/><text fill="#000000" font-family="sans-serif" font-size="8.4" font-style="italic" lengthAdjust="spacingAndGlyphs" textLength="49" x="81.9" y="207.8371">CheckBoxUI</text><line style="stroke: #A80036; stroke-width: 1.0499999821186066;" x1="62.3" x2="132.3" y1="215.6" y2="215.6"/><line style="stroke: #A80036; stroke-width: 1.0499999821186066;" x1="62.3" x2="132.3" y1="221.2" y2="221.2"/><rect fill="#FEFECE" filter="url(#f1)" height="33.6" style="stroke: #A80036; stroke-width: 1.0499999821186066;" width="62.3" x="179.55" y="193.2"/><ellipse cx="190.05" cy="204.4" fill="#A9DCDF" rx="7.7" ry="7.7" style="stroke: #A80036; stroke-width: 0.699999988079071;"/><path d="M191.275,205.45 L188.9672,205.45 L188.6609,206.15 L188.6609,206.15 L188.9891,206.15 L189.35,206.5875 L189.35,206.85 L189.35,207.1125 L188.9891,207.55 L188.6609,207.55 L187.3375,207.55 L186.9109,207.55 L186.55,207.1125 L186.55,206.85 L186.55,206.5875 L186.9109,206.15 L187.3375,206.15 L188.9562,201.95 L188.3437,201.95 L187.6109,201.95 L187.25,201.5125 L187.25,201.25 L187.25,200.9875 L187.6109,200.55 L188.3437,200.55 L190.9141,200.55 L192.7953,206.15 L193.1891,206.15 L193.1891,206.15 L193.55,206.5875 L193.55,206.85 L193.55,207.1125 L193.1891,207.55 L192.7953,207.55 L191.4719,207.55 L191.1109,207.55 L190.75,207.1125 L190.75,206.85 L190.75,206.5875 L191.1109,206.15 L191.4719,206.15 L191.4719,206.15 L191.275,205.45 Z M190.8922,204.05 L190.05,201.5453 L189.3281,204.05 L190.8922,204.05 Z "/><text fill="#000000" font-family="sans-serif" font-size="8.4" font-style="italic" lengthAdjust="spacingAndGlyphs" textLength="39.9" x="199.85" y="207.8371">MultiListUI</text><line style="stroke: #A80036; stroke-width: 1.0499999821186066;" x1="180.25" x2="241.15" y1="215.6" y2="215.6"/><line style="stroke: #A80036; stroke-width: 1.0499999821186066;" x1="180.25" x2="241.15" y1="221.2" y2="221.2"/><rect fill="#FEFECE" filter="url(#f1)" height="33.6" style="stroke: #A80036; stroke-width: 1.0499999821186066;" width="62.3" x="280.35" y="193.2"/><ellipse cx="290.85" cy="204.4" fill="#A9DCDF" rx="7.7" ry="7.7" style="stroke: #A80036; stroke-width: 0.699999988079071;"/><path d="M292.075,205.45 L289.7672,205.45 L289.4609,206.15 L289.4609,206.15 L289.7891,206.15 L290.15,206.5875 L290.15,206.85 L290.15,207.1125 L289.7891,207.55 L289.4609,207.55 L288.1375,207.55 L287.7109,207.55 L287.35,207.1125 L287.35,206.85 L287.35,206.5875 L287.7109,206.15 L288.1375,206.15 L289.7562,201.95 L289.1437,201.95 L288.4109,201.95 L288.05,201.5125 L288.05,201.25 L288.05,200.9875 L288.4109,200.55 L289.1437,200.55 L291.7141,200.55 L293.5953,206.15 L293.9891,206.15 L293.9891,206.15 L294.35,206.5875 L294.35,206.85 L294.35,207.1125 L293.9891,207.55 L293.5953,207.55 L292.2719,207.55 L291.9109,207.55 L291.55,207.1125 L291.55,206.85 L291.55,206.5875 L291.9109,206.15 L292.2719,206.15 L292.2719,206.15 L292.075,205.45 Z M291.6922,204.05 L290.85,201.5453 L290.1281,204.05 L291.6922,204.05 Z "/><text fill="#000000" font-family="sans-serif" font-size="8.4" font-style="italic" lengthAdjust="spacingAndGlyphs" textLength="39.9" x="300.65" y="207.8371">TextBoxUI</text><line style="stroke: #A80036; stroke-width: 1.0499999821186066;" x1="281.05" x2="341.95" y1="215.6" y2="215.6"/><line style="stroke: #A80036; stroke-width: 1.0499999821186066;" x1="281.05" x2="341.95" y1="221.2" y2="221.2"/><rect fill="#FEFECE" filter="url(#f1)" height="33.6" style="stroke: #A80036; stroke-width: 1.0499999821186066;" width="53.9" x="381.15" y="193.2"/><ellipse cx="391.65" cy="204.4" fill="#A9DCDF" rx="7.7" ry="7.7" style="stroke: #A80036; stroke-width: 0.699999988079071;"/><path d="M392.875,205.45 L390.5672,205.45 L390.2609,206.15 L390.2609,206.15 L390.5891,206.15 L390.95,206.5875 L390.95,206.85 L390.95,207.1125 L390.5891,207.55 L390.2609,207.55 L388.9375,207.55 L388.5109,207.55 L388.15,207.1125 L388.15,206.85 L388.15,206.5875 L388.5109,206.15 L388.9375,206.15 L390.5562,201.95 L389.9437,201.95 L389.2109,201.95 L388.85,201.5125 L388.85,201.25 L388.85,200.9875 L389.2109,200.55 L389.9437,200.55 L392.5141,200.55 L394.3953,206.15 L394.7891,206.15 L394.7891,206.15 L395.15,206.5875 L395.15,206.85 L395.15,207.1125 L394.7891,207.55 L394.3953,207.55 L393.0719,207.55 L392.7109,207.55 L392.35,207.1125 L392.35,206.85 L392.35,206.5875 L392.7109,206.15 L393.0719,206.15 L393.0719,206.15 L392.875,205.45 Z M392.4922,204.05 L391.65,201.5453 L390.9281,204.05 L392.4922,204.05 Z "/><text fill="#000000" font-family="sans-serif" font-size="8.4" font-style="italic" lengthAdjust="spacingAndGlyphs" textLength="31.5" x="401.45" y="207.8371">LabelUI</text><line style="stroke: #A80036; stroke-width: 1.0499999821186066;" x1="381.85" x2="434.35" y1="215.6" y2="215.6"/><line style="stroke: #A80036; stroke-width: 1.0499999821186066;" x1="381.85" x2="434.35" y1="221.2" y2="221.2"/><rect fill="#FEFECE" filter="url(#f1)" height="33.6" style="stroke: #A80036; stroke-width: 1.0499999821186066;" width="98.7" x="26.95" y="268.8"/><ellipse cx="37.45" cy="280" fill="#ADD1B2" rx="7.7" ry="7.7" style="stroke: #A80036; stroke-width: 0.699999988079071;"/><path d="M38.85,277.55 Q38.9922,277.2 39.1562,277.025 Q39.3203,276.85 39.5062,276.85 Q39.8344,276.85 40.0422,277.0469 Q40.25,277.2437 40.25,277.7031 L40.25,278.7969 Q40.25,279.2562 40.0531,279.4531 Q39.8562,279.65 39.55,279.65 Q39.2766,279.65 39.1016,279.5297 Q38.9266,279.4094 38.85,279.0922 Q38.8172,278.8734 38.6969,278.7531 Q38.4781,278.5234 38.0844,278.3867 Q37.6906,278.25 37.2969,278.25 Q36.8047,278.25 36.3945,278.4469 Q35.9844,278.6437 35.6672,279.0812 Q35.35,279.5187 35.35,280.1203 L35.35,280.7656 Q35.35,281.4875 35.9406,281.9687 Q36.5312,282.45 37.5812,282.45 Q38.2047,282.45 38.6422,282.3078 Q38.8937,282.2312 39.1781,281.9797 Q39.3641,281.8375 39.4625,281.7937 Q39.5609,281.75 39.6812,281.75 Q39.9109,281.75 40.0805,281.9305 Q40.25,282.1109 40.25,282.3625 Q40.25,282.6031 40.0094,282.8875 Q39.6594,283.3031 39.1016,283.5328 Q38.3687,283.85 37.4719,283.85 Q36.4219,283.85 35.5797,283.4344 Q34.9016,283.1062 34.4258,282.3953 Q33.95,281.6844 33.95,280.8422 L33.95,280.0766 Q33.95,279.2016 34.3711,278.4359 Q34.7922,277.6703 35.5305,277.2602 Q36.2687,276.85 37.1,276.85 Q37.6031,276.85 38.0406,277.025 Q38.4781,277.2 38.85,277.55 Z "/><text fill="#000000" font-family="sans-serif" font-size="8.4" lengthAdjust="spacingAndGlyphs" textLength="76.3" x="47.25" y="283.4371">AndroidCheckBoxUI</text><line style="stroke: #A80036; stroke-width: 1.0499999821186066;" x1="27.65" x2="124.95" y1="291.2" y2="291.2"/><line style="stroke: #A80036; stroke-width: 1.0499999821186066;" x1="27.65" x2="124.95" y1="296.8" y2="296.8"/><rect fill="#FEFECE" filter="url(#f1)" height="33.6" style="stroke: #A80036; stroke-width: 1.0499999821186066;" width="91.7" x="150.15" y="268.8"/><ellipse cx="160.65" cy="280" fill="#ADD1B2" rx="7.7" ry="7.7" style="stroke: #A80036; stroke-width: 0.699999988079071;"/><path d="M162.05,277.55 Q162.1922,277.2 162.3562,277.025 Q162.5203,276.85 162.7062,276.85 Q163.0344,276.85 163.2422,277.0469 Q163.45,277.2437 163.45,277.7031 L163.45,278.7969 Q163.45,279.2562 163.2531,279.4531 Q163.0562,279.65 162.75,279.65 Q162.4766,279.65 162.3016,279.5297 Q162.1266,279.4094 162.05,279.0922 Q162.0172,278.8734 161.8969,278.7531 Q161.6781,278.5234 161.2844,278.3867 Q160.8906,278.25 160.4969,278.25 Q160.0047,278.25 159.5945,278.4469 Q159.1844,278.6437 158.8672,279.0812 Q158.55,279.5187 158.55,280.1203 L158.55,280.7656 Q158.55,281.4875 159.1406,281.9687 Q159.7312,282.45 160.7812,282.45 Q161.4047,282.45 161.8422,282.3078 Q162.0937,282.2312 162.3781,281.9797 Q162.5641,281.8375 162.6625,281.7937 Q162.7609,281.75 162.8812,281.75 Q163.1109,281.75 163.2805,281.9305 Q163.45,282.1109 163.45,282.3625 Q163.45,282.6031 163.2094,282.8875 Q162.8594,283.3031 162.3016,283.5328 Q161.5687,283.85 160.6719,283.85 Q159.6219,283.85 158.7797,283.4344 Q158.1016,283.1062 157.6258,282.3953 Q157.15,281.6844 157.15,280.8422 L157.15,280.0766 Q157.15,279.2016 157.5711,278.4359 Q157.9922,277.6703 158.7305,277.2602 Q159.4687,276.85 160.3,276.85 Q160.8031,276.85 161.2406,277.025 Q161.6781,277.2 162.05,277.55 Z "/><text fill="#000000" font-family="sans-serif" font-size="8.4" lengthAdjust="spacingAndGlyphs" textLength="69.3" x="170.45" y="283.4371">AndroidMultiListUI</text><line style="stroke: #A80036; stroke-width: 1.0499999821186066;" x1="150.85" x2="241.15" y1="291.2" y2="291.2"/><line style="stroke: #A80036; stroke-width: 1.0499999821186066;" x1="150.85" x2="241.15" y1="296.8" y2="296.8"/><rect fill="#FEFECE" filter="url(#f1)" height="33.6" style="stroke: #A80036; stroke-width: 1.0499999821186066;" width="89.6" x="266.7" y="268.8"/><ellipse cx="277.2" cy="280" fill="#ADD1B2" rx="7.7" ry="7.7" style="stroke: #A80036; stroke-width: 0.699999988079071;"/><path d="M278.6,277.55 Q278.7422,277.2 278.9062,277.025 Q279.0703,276.85 279.2562,276.85 Q279.5844,276.85 279.7922,277.0469 Q280,277.2437 280,277.7031 L280,278.7969 Q280,279.2562 279.8031,279.4531 Q279.6062,279.65 279.3,279.65 Q279.0266,279.65 278.8516,279.5297 Q278.6766,279.4094 278.6,279.0922 Q278.5672,278.8734 278.4469,278.7531 Q278.2281,278.5234 277.8344,278.3867 Q277.4406,278.25 277.0469,278.25 Q276.5547,278.25 276.1445,278.4469 Q275.7344,278.6437 275.4172,279.0812 Q275.1,279.5187 275.1,280.1203 L275.1,280.7656 Q275.1,281.4875 275.6906,281.9687 Q276.2812,282.45 277.3312,282.45 Q277.9547,282.45 278.3922,282.3078 Q278.6437,282.2312 278.9281,281.9797 Q279.1141,281.8375 279.2125,281.7937 Q279.3109,281.75 279.4312,281.75 Q279.6609,281.75 279.8305,281.9305 Q280,282.1109 280,282.3625 Q280,282.6031 279.7594,282.8875 Q279.4094,283.3031 278.8516,283.5328 Q278.1187,283.85 277.2219,283.85 Q276.1719,283.85 275.3297,283.4344 Q274.6516,283.1062 274.1758,282.3953 Q273.7,281.6844 273.7,280.8422 L273.7,280.0766 Q273.7,279.2016 274.1211,278.4359 Q274.5422,277.6703 275.2805,277.2602 Q276.0187,276.85 276.85,276.85 Q277.3531,276.85 277.7906,277.025 Q278.2281,277.2 278.6,277.55 Z "/><text fill="#000000" font-family="sans-serif" font-size="8.4" lengthAdjust="spacingAndGlyphs" textLength="67.2" x="287" y="283.4371">AndroidTextBoxUI</text><line style="stroke: #A80036; stroke-width: 1.0499999821186066;" x1="267.4" x2="355.6" y1="291.2" y2="291.2"/><line style="stroke: #A80036; stroke-width: 1.0499999821186066;" x1="267.4" x2="355.6" y1="296.8" y2="296.8"/><rect fill="#FEFECE" filter="url(#f1)" height="33.6" style="stroke: #A80036; stroke-width: 1.0499999821186066;" width="81.9" x="381.15" y="268.8"/><ellipse cx="391.65" cy="280" fill="#ADD1B2" rx="7.7" ry="7.7" style="stroke: #A80036; stroke-width: 0.699999988079071;"/><path d="M393.05,277.55 Q393.1922,277.2 393.3562,277.025 Q393.5203,276.85 393.7062,276.85 Q394.0344,276.85 394.2422,277.0469 Q394.45,277.2437 394.45,277.7031 L394.45,278.7969 Q394.45,279.2562 394.2531,279.4531 Q394.0562,279.65 393.75,279.65 Q393.4766,279.65 393.3016,279.5297 Q393.1266,279.4094 393.05,279.0922 Q393.0172,278.8734 392.8969,278.7531 Q392.6781,278.5234 392.2844,278.3867 Q391.8906,278.25 391.4969,278.25 Q391.0047,278.25 390.5945,278.4469 Q390.1844,278.6437 389.8672,279.0812 Q389.55,279.5187 389.55,280.1203 L389.55,280.7656 Q389.55,281.4875 390.1406,281.9687 Q390.7312,282.45 391.7812,282.45 Q392.4047,282.45 392.8422,282.3078 Q393.0937,282.2312 393.3781,281.9797 Q393.5641,281.8375 393.6625,281.7937 Q393.7609,281.75 393.8812,281.75 Q394.1109,281.75 394.2805,281.9305 Q394.45,282.1109 394.45,282.3625 Q394.45,282.6031 394.2094,282.8875 Q393.8594,283.3031 393.3016,283.5328 Q392.5687,283.85 391.6719,283.85 Q390.6219,283.85 389.7797,283.4344 Q389.1016,283.1062 388.6258,282.3953 Q388.15,281.6844 388.15,280.8422 L388.15,280.0766 Q388.15,279.2016 388.5711,278.4359 Q388.9922,277.6703 389.7305,277.2602 Q390.4687,276.85 391.3,276.85 Q391.8031,276.85 392.2406,277.025 Q392.6781,277.2 393.05,277.55 Z "/><text fill="#000000" font-family="sans-serif" font-size="8.4" lengthAdjust="spacingAndGlyphs" textLength="59.5" x="401.45" y="283.4371">AndroidLabelUI</text><line style="stroke: #A80036; stroke-width: 1.0499999821186066;" x1="381.85" x2="462.35" y1="291.2" y2="291.2"/><line style="stroke: #A80036; stroke-width: 1.0499999821186066;" x1="381.85" x2="462.35" y1="296.8" y2="296.8"/><rect fill="#FEFECE" filter="url(#f1)" height="33.6" style="stroke: #A80036; stroke-width: 1.0499999821186066;" width="56" x="513.8" y="193.2"/><ellipse cx="524.3" cy="204.4" fill="#A9DCDF" rx="7.7" ry="7.7" style="stroke: #A80036; stroke-width: 0.699999988079071;"/><path d="M525.525,205.45 L523.2172,205.45 L522.9109,206.15 L522.9109,206.15 L523.2391,206.15 L523.6,206.5875 L523.6,206.85 L523.6,207.1125 L523.2391,207.55 L522.9109,207.55 L521.5875,207.55 L521.1609,207.55 L520.8,207.1125 L520.8,206.85 L520.8,206.5875 L521.1609,206.15 L521.5875,206.15 L523.2062,201.95 L522.5937,201.95 L521.8609,201.95 L521.5,201.5125 L521.5,201.25 L521.5,200.9875 L521.8609,200.55 L522.5937,200.55 L525.1641,200.55 L527.0453,206.15 L527.4391,206.15 L527.4391,206.15 L527.8,206.5875 L527.8,206.85 L527.8,207.1125 L527.4391,207.55 L527.0453,207.55 L525.7219,207.55 L525.3609,207.55 L525,207.1125 L525,206.85 L525,206.5875 L525.3609,206.15 L525.7219,206.15 L525.7219,206.15 L525.525,205.45 Z M525.1422,204.05 L524.3,201.5453 L523.5781,204.05 L525.1422,204.05 Z "/><text fill="#000000" font-family="sans-serif" font-size="8.4" font-style="italic" lengthAdjust="spacingAndGlyphs" textLength="33.6" x="534.1" y="207.8371">ButtonUI</text><line style="stroke: #A80036; stroke-width: 1.0499999821186066;" x1="514.5" x2="569.1" y1="215.6" y2="215.6"/><line style="stroke: #A80036; stroke-width: 1.0499999821186066;" x1="514.5" x2="569.1" y1="221.2" y2="221.2"/><rect fill="#FEFECE" filter="url(#f1)" height="33.6" style="stroke: #A80036; stroke-width: 1.0499999821186066;" width="54.6" x="606.2" y="193.2"/><ellipse cx="616.7" cy="204.4" fill="#A9DCDF" rx="7.7" ry="7.7" style="stroke: #A80036; stroke-width: 0.699999988079071;"/><path d="M617.925,205.45 L615.6172,205.45 L615.3109,206.15 L615.3109,206.15 L615.6391,206.15 L616,206.5875 L616,206.85 L616,207.1125 L615.6391,207.55 L615.3109,207.55 L613.9875,207.55 L613.5609,207.55 L613.2,207.1125 L613.2,206.85 L613.2,206.5875 L613.5609,206.15 L613.9875,206.15 L615.6062,201.95 L614.9937,201.95 L614.2609,201.95 L613.9,201.5125 L613.9,201.25 L613.9,200.9875 L614.2609,200.55 L614.9937,200.55 L617.5641,200.55 L619.4453,206.15 L619.8391,206.15 L619.8391,206.15 L620.2,206.5875 L620.2,206.85 L620.2,207.1125 L619.8391,207.55 L619.4453,207.55 L618.1219,207.55 L617.7609,207.55 L617.4,207.1125 L617.4,206.85 L617.4,206.5875 L617.7609,206.15 L618.1219,206.15 L618.1219,206.15 L617.925,205.45 Z M617.5422,204.05 L616.7,201.5453 L615.9781,204.05 L617.5422,204.05 Z "/><text fill="#000000" font-family="sans-serif" font-size="8.4" font-style="italic" lengthAdjust="spacingAndGlyphs" textLength="32.2" x="626.5" y="207.8371">MediaUI</text><line style="stroke: #A80036; stroke-width: 1.0499999821186066;" x1="606.9" x2="660.1" y1="215.6" y2="215.6"/><line style="stroke: #A80036; stroke-width: 1.0499999821186066;" x1="606.9" x2="660.1" y1="221.2" y2="221.2"/><rect fill="#FEFECE" filter="url(#f1)" height="33.6" style="stroke: #A80036; stroke-width: 1.0499999821186066;" width="73.5" x="685.65" y="193.2"/><ellipse cx="696.15" cy="204.4" fill="#A9DCDF" rx="7.7" ry="7.7" style="stroke: #A80036; stroke-width: 0.699999988079071;"/><path d="M697.375,205.45 L695.0672,205.45 L694.7609,206.15 L694.7609,206.15 L695.0891,206.15 L695.45,206.5875 L695.45,206.85 L695.45,207.1125 L695.0891,207.55 L694.7609,207.55 L693.4375,207.55 L693.0109,207.55 L692.65,207.1125 L692.65,206.85 L692.65,206.5875 L693.0109,206.15 L693.4375,206.15 L695.0562,201.95 L694.4437,201.95 L693.7109,201.95 L693.35,201.5125 L693.35,201.25 L693.35,200.9875 L693.7109,200.55 L694.4437,200.55 L697.0141,200.55 L698.8953,206.15 L699.2891,206.15 L699.2891,206.15 L699.65,206.5875 L699.65,206.85 L699.65,207.1125 L699.2891,207.55 L698.8953,207.55 L697.5719,207.55 L697.2109,207.55 L696.85,207.1125 L696.85,206.85 L696.85,206.5875 L697.2109,206.15 L697.5719,206.15 L697.5719,206.15 L697.375,205.45 Z M696.9922,204.05 L696.15,201.5453 L695.4281,204.05 L696.9922,204.05 Z "/><text fill="#000000" font-family="sans-serif" font-size="8.4" font-style="italic" lengthAdjust="spacingAndGlyphs" textLength="51.1" x="705.95" y="207.8371">OrientationUI</text><line style="stroke: #A80036; stroke-width: 1.0499999821186066;" x1="686.35" x2="758.45" y1="215.6" y2="215.6"/><line style="stroke: #A80036; stroke-width: 1.0499999821186066;" x1="686.35" x2="758.45" y1="221.2" y2="221.2"/><rect fill="#FEFECE" filter="url(#f1)" height="33.6" style="stroke: #A80036; stroke-width: 1.0499999821186066;" width="58.8" x="784" y="193.2"/><ellipse cx="794.5" cy="204.4" fill="#A9DCDF" rx="7.7" ry="7.7" style="stroke: #A80036; stroke-width: 0.699999988079071;"/><path d="M795.725,205.45 L793.4172,205.45 L793.1109,206.15 L793.1109,206.15 L793.439,206.15 L793.8,206.5875 L793.8,206.85 L793.8,207.1125 L793.439,207.55 L793.1109,207.55 L791.7875,207.55 L791.3609,207.55 L791,207.1125 L791,206.85 L791,206.5875 L791.3609,206.15 L791.7875,206.15 L793.4062,201.95 L792.7937,201.95 L792.0609,201.95 L791.7,201.5125 L791.7,201.25 L791.7,200.9875 L792.0609,200.55 L792.7937,200.55 L795.364,200.55 L797.2453,206.15 L797.639,206.15 L797.639,206.15 L798,206.5875 L798,206.85 L798,207.1125 L797.639,207.55 L797.2453,207.55 L795.9219,207.55 L795.5609,207.55 L795.2,207.1125 L795.2,206.85 L795.2,206.5875 L795.5609,206.15 L795.9219,206.15 L795.9219,206.15 L795.725,205.45 Z M795.3422,204.05 L794.5,201.5453 L793.7781,204.05 L795.3422,204.05 Z "/><text fill="#000000" font-family="sans-serif" font-size="8.4" font-style="italic" lengthAdjust="spacingAndGlyphs" textLength="36.4" x="804.3" y="207.8371">ChoiceUI</text><line style="stroke: #A80036; stroke-width: 1.0499999821186066;" x1="784.7" x2="842.1" y1="215.6" y2="215.6"/><line style="stroke: #A80036; stroke-width: 1.0499999821186066;" x1="784.7" x2="842.1" y1="221.2" y2="221.2"/><rect fill="#FEFECE" filter="url(#f1)" height="33.6" style="stroke: #A80036; stroke-width: 1.0499999821186066;" width="64.4" x="867.3" y="193.2"/><ellipse cx="877.8" cy="204.4" fill="#A9DCDF" rx="7.7" ry="7.7" style="stroke: #A80036; stroke-width: 0.699999988079071;"/><path d="M879.025,205.45 L876.7172,205.45 L876.4109,206.15 L876.4109,206.15 L876.739,206.15 L877.1,206.5875 L877.1,206.85 L877.1,207.1125 L876.739,207.55 L876.4109,207.55 L875.0875,207.55 L874.6609,207.55 L874.3,207.1125 L874.3,206.85 L874.3,206.5875 L874.6609,206.15 L875.0875,206.15 L876.7062,201.95 L876.0937,201.95 L875.3609,201.95 L875,201.5125 L875,201.25 L875,200.9875 L875.3609,200.55 L876.0937,200.55 L878.664,200.55 L880.5453,206.15 L880.939,206.15 L880.939,206.15 L881.3,206.5875 L881.3,206.85 L881.3,207.1125 L880.939,207.55 L880.5453,207.55 L879.2219,207.55 L878.8609,207.55 L878.5,207.1125 L878.5,206.85 L878.5,206.5875 L878.8609,206.15 L879.2219,206.15 L879.2219,206.15 L879.025,205.45 Z M878.6422,204.05 L877.8,201.5453 L877.0781,204.05 L878.6422,204.05 Z "/><text fill="#000000" font-family="sans-serif" font-size="8.4" font-style="italic" lengthAdjust="spacingAndGlyphs" textLength="42" x="887.6" y="207.8371">LocationUI</text><line style="stroke: #A80036; stroke-width: 1.0499999821186066;" x1="868" x2="931" y1="215.6" y2="215.6"/><line style="stroke: #A80036; stroke-width: 1.0499999821186066;" x1="868" x2="931" y1="221.2" y2="221.2"/><rect fill="#FEFECE" filter="url(#f1)" height="33.6" style="stroke: #A80036; stroke-width: 1.0499999821186066;" width="84.7" x="487.55" y="268.8"/><ellipse cx="498.05" cy="280" fill="#ADD1B2" rx="7.7" ry="7.7" style="stroke: #A80036; stroke-width: 0.699999988079071;"/><path d="M499.45,277.55 Q499.5922,277.2 499.7562,277.025 Q499.9203,276.85 500.1062,276.85 Q500.4344,276.85 500.6422,277.0469 Q500.85,277.2437 500.85,277.7031 L500.85,278.7969 Q500.85,279.2562 500.6531,279.4531 Q500.4562,279.65 500.15,279.65 Q499.8766,279.65 499.7016,279.5297 Q499.5266,279.4094 499.45,279.0922 Q499.4172,278.8734 499.2969,278.7531 Q499.0781,278.5234 498.6844,278.3867 Q498.2906,278.25 497.8969,278.25 Q497.4047,278.25 496.9945,278.4469 Q496.5844,278.6437 496.2672,279.0812 Q495.95,279.5187 495.95,280.1203 L495.95,280.7656 Q495.95,281.4875 496.5406,281.9687 Q497.1312,282.45 498.1812,282.45 Q498.8047,282.45 499.2422,282.3078 Q499.4937,282.2312 499.7781,281.9797 Q499.9641,281.8375 500.0625,281.7937 Q500.1609,281.75 500.2812,281.75 Q500.5109,281.75 500.6805,281.9305 Q500.85,282.1109 500.85,282.3625 Q500.85,282.6031 500.6094,282.8875 Q500.2594,283.3031 499.7016,283.5328 Q498.9687,283.85 498.0719,283.85 Q497.0219,283.85 496.1797,283.4344 Q495.5016,283.1062 495.0258,282.3953 Q494.55,281.6844 494.55,280.8422 L494.55,280.0766 Q494.55,279.2016 494.9711,278.4359 Q495.3922,277.6703 496.1305,277.2602 Q496.8687,276.85 497.7,276.85 Q498.2031,276.85 498.6406,277.025 Q499.0781,277.2 499.45,277.55 Z "/><text fill="#000000" font-family="sans-serif" font-size="8.4" lengthAdjust="spacingAndGlyphs" textLength="62.3" x="507.85" y="283.4371">AndroidButtonUI</text><line style="stroke: #A80036; stroke-width: 1.0499999821186066;" x1="488.25" x2="571.55" y1="291.2" y2="291.2"/><line style="stroke: #A80036; stroke-width: 1.0499999821186066;" x1="488.25" x2="571.55" y1="296.8" y2="296.8"/><rect fill="#FEFECE" filter="url(#f1)" height="33.6" style="stroke: #A80036; stroke-width: 1.0499999821186066;" width="83.3" x="596.75" y="268.8"/><ellipse cx="607.25" cy="280" fill="#ADD1B2" rx="7.7" ry="7.7" style="stroke: #A80036; stroke-width: 0.699999988079071;"/><path d="M608.65,277.55 Q608.7922,277.2 608.9562,277.025 Q609.1203,276.85 609.3062,276.85 Q609.6344,276.85 609.8422,277.0469 Q610.05,277.2437 610.05,277.7031 L610.05,278.7969 Q610.05,279.2562 609.8531,279.4531 Q609.6562,279.65 609.35,279.65 Q609.0766,279.65 608.9016,279.5297 Q608.7266,279.4094 608.65,279.0922 Q608.6172,278.8734 608.4969,278.7531 Q608.2781,278.5234 607.8844,278.3867 Q607.4906,278.25 607.0969,278.25 Q606.6047,278.25 606.1945,278.4469 Q605.7844,278.6437 605.4672,279.0812 Q605.15,279.5187 605.15,280.1203 L605.15,280.7656 Q605.15,281.4875 605.7406,281.9687 Q606.3312,282.45 607.3812,282.45 Q608.0047,282.45 608.4422,282.3078 Q608.6937,282.2312 608.9781,281.9797 Q609.1641,281.8375 609.2625,281.7937 Q609.3609,281.75 609.4812,281.75 Q609.7109,281.75 609.8805,281.9305 Q610.05,282.1109 610.05,282.3625 Q610.05,282.6031 609.8094,282.8875 Q609.4594,283.3031 608.9016,283.5328 Q608.1687,283.85 607.2719,283.85 Q606.2219,283.85 605.3797,283.4344 Q604.7016,283.1062 604.2258,282.3953 Q603.75,281.6844 603.75,280.8422 L603.75,280.0766 Q603.75,279.2016 604.1711,278.4359 Q604.5922,277.6703 605.3305,277.2602 Q606.0687,276.85 606.9,276.85 Q607.4031,276.85 607.8406,277.025 Q608.2781,277.2 608.65,277.55 Z "/><text fill="#000000" font-family="sans-serif" font-size="8.4" lengthAdjust="spacingAndGlyphs" textLength="60.9" x="617.05" y="283.4371">AndroidMediaUI</text><line style="stroke: #A80036; stroke-width: 1.0499999821186066;" x1="597.45" x2="679.35" y1="291.2" y2="291.2"/><line style="stroke: #A80036; stroke-width: 1.0499999821186066;" x1="597.45" x2="679.35" y1="296.8" y2="296.8"/><rect fill="#FEFECE" filter="url(#f1)" height="33.6" style="stroke: #A80036; stroke-width: 1.0499999821186066;" width="102.2" x="704.9" y="268.8"/><ellipse cx="715.4" cy="280" fill="#ADD1B2" rx="7.7" ry="7.7" style="stroke: #A80036; stroke-width: 0.699999988079071;"/><path d="M716.8,277.55 Q716.9422,277.2 717.1062,277.025 Q717.2703,276.85 717.4562,276.85 Q717.7844,276.85 717.9922,277.0469 Q718.2,277.2437 718.2,277.7031 L718.2,278.7969 Q718.2,279.2562 718.0031,279.4531 Q717.8062,279.65 717.5,279.65 Q717.2266,279.65 717.0516,279.5297 Q716.8766,279.4094 716.8,279.0922 Q716.7672,278.8734 716.6469,278.7531 Q716.4281,278.5234 716.0344,278.3867 Q715.6406,278.25 715.2469,278.25 Q714.7547,278.25 714.3445,278.4469 Q713.9344,278.6437 713.6172,279.0812 Q713.3,279.5187 713.3,280.1203 L713.3,280.7656 Q713.3,281.4875 713.8906,281.9687 Q714.4812,282.45 715.5312,282.45 Q716.1547,282.45 716.5922,282.3078 Q716.8437,282.2312 717.1281,281.9797 Q717.3141,281.8375 717.4125,281.7937 Q717.5109,281.75 717.6312,281.75 Q717.8609,281.75 718.0305,281.9305 Q718.2,282.1109 718.2,282.3625 Q718.2,282.6031 717.9594,282.8875 Q717.6094,283.3031 717.0516,283.5328 Q716.3187,283.85 715.4219,283.85 Q714.3719,283.85 713.5297,283.4344 Q712.8516,283.1062 712.3758,282.3953 Q711.9,281.6844 711.9,280.8422 L711.9,280.0766 Q711.9,279.2016 712.3211,278.4359 Q712.7422,277.6703 713.4805,277.2602 Q714.2187,276.85 715.05,276.85 Q715.5531,276.85 715.9906,277.025 Q716.4281,277.2 716.8,277.55 Z "/><text fill="#000000" font-family="sans-serif" font-size="8.4" lengthAdjust="spacingAndGlyphs" textLength="79.8" x="725.2" y="283.4371">AndroidOrientationUI</text><line style="stroke: #A80036; stroke-width: 1.0499999821186066;" x1="705.6" x2="806.4" y1="291.2" y2="291.2"/><line style="stroke: #A80036; stroke-width: 1.0499999821186066;" x1="705.6" x2="806.4" y1="296.8" y2="296.8"/><rect fill="#FEFECE" filter="url(#f1)" height="33.6" style="stroke: #A80036; stroke-width: 1.0499999821186066;" width="87.5" x="831.95" y="268.8"/><ellipse cx="842.45" cy="280" fill="#ADD1B2" rx="7.7" ry="7.7" style="stroke: #A80036; stroke-width: 0.699999988079071;"/><path d="M843.85,277.55 Q843.9922,277.2 844.1562,277.025 Q844.3203,276.85 844.5062,276.85 Q844.8344,276.85 845.0422,277.0469 Q845.25,277.2437 845.25,277.7031 L845.25,278.7969 Q845.25,279.2562 845.0531,279.4531 Q844.8562,279.65 844.55,279.65 Q844.2765,279.65 844.1015,279.5297 Q843.9265,279.4094 843.85,279.0922 Q843.8172,278.8734 843.6969,278.7531 Q843.4781,278.5234 843.0844,278.3867 Q842.6906,278.25 842.2969,278.25 Q841.8047,278.25 841.3945,278.4469 Q840.9844,278.6437 840.6672,279.0812 Q840.35,279.5187 840.35,280.1203 L840.35,280.7656 Q840.35,281.4875 840.9406,281.9687 Q841.5312,282.45 842.5812,282.45 Q843.2047,282.45 843.6422,282.3078 Q843.8937,282.2312 844.1781,281.9797 Q844.364,281.8375 844.4625,281.7937 Q844.5609,281.75 844.6812,281.75 Q844.9109,281.75 845.0805,281.9305 Q845.25,282.1109 845.25,282.3625 Q845.25,282.6031 845.0094,282.8875 Q844.6594,283.3031 844.1015,283.5328 Q843.3687,283.85 842.4719,283.85 Q841.4219,283.85 840.5797,283.4344 Q839.9015,283.1062 839.4258,282.3953 Q838.95,281.6844 838.95,280.8422 L838.95,280.0766 Q838.95,279.2016 839.3711,278.4359 Q839.7922,277.6703 840.5305,277.2602 Q841.2687,276.85 842.1,276.85 Q842.6031,276.85 843.0406,277.025 Q843.4781,277.2 843.85,277.55 Z "/><text fill="#000000" font-family="sans-serif" font-size="8.4" lengthAdjust="spacingAndGlyphs" textLength="65.1" x="852.25" y="283.4371">AndroidChoiceUI</text><line style="stroke: #A80036; stroke-width: 1.0499999821186066;" x1="832.65" x2="918.75" y1="291.2" y2="291.2"/><line style="stroke: #A80036; stroke-width: 1.0499999821186066;" x1="832.65" x2="918.75" y1="296.8" y2="296.8"/><rect fill="#FEFECE" filter="url(#f1)" height="33.6" style="stroke: #A80036; stroke-width: 1.0499999821186066;" width="93.1" x="943.95" y="268.8"/><ellipse cx="954.45" cy="280" fill="#ADD1B2" rx="7.7" ry="7.7" style="stroke: #A80036; stroke-width: 0.699999988079071;"/><path d="M955.85,277.55 Q955.9922,277.2 956.1562,277.025 Q956.3203,276.85 956.5062,276.85 Q956.8344,276.85 957.0422,277.0469 Q957.25,277.2437 957.25,277.7031 L957.25,278.7969 Q957.25,279.2562 957.0531,279.4531 Q956.8562,279.65 956.55,279.65 Q956.2765,279.65 956.1015,279.5297 Q955.9265,279.4094 955.85,279.0922 Q955.8172,278.8734 955.6969,278.7531 Q955.4781,278.5234 955.0844,278.3867 Q954.6906,278.25 954.2969,278.25 Q953.8047,278.25 953.3945,278.4469 Q952.9844,278.6437 952.6672,279.0812 Q952.35,279.5187 952.35,280.1203 L952.35,280.7656 Q952.35,281.4875 952.9406,281.9687 Q953.5312,282.45 954.5812,282.45 Q955.2047,282.45 955.6422,282.3078 Q955.8937,282.2312 956.1781,281.9797 Q956.364,281.8375 956.4625,281.7937 Q956.5609,281.75 956.6812,281.75 Q956.9109,281.75 957.0805,281.9305 Q957.25,282.1109 957.25,282.3625 Q957.25,282.6031 957.0094,282.8875 Q956.6594,283.3031 956.1015,283.5328 Q955.3687,283.85 954.4719,283.85 Q953.4219,283.85 952.5797,283.4344 Q951.9015,283.1062 951.4258,282.3953 Q950.95,281.6844 950.95,280.8422 L950.95,280.0766 Q950.95,279.2016 951.3711,278.4359 Q951.7922,277.6703 952.5305,277.2602 Q953.2687,276.85 954.1,276.85 Q954.6031,276.85 955.0406,277.025 Q955.4781,277.2 955.85,277.55 Z "/><text fill="#000000" font-family="sans-serif" font-size="8.4" lengthAdjust="spacingAndGlyphs" textLength="70.7" x="964.25" y="283.4371">AndroidLocationUI</text><line style="stroke: #A80036; stroke-width: 1.0499999821186066;" x1="944.65" x2="1036.35" y1="291.2" y2="291.2"/><line style="stroke: #A80036; stroke-width: 1.0499999821186066;" x1="944.65" x2="1036.35" y1="296.8" y2="296.8"/><rect fill="#FEFECE" filter="url(#f1)" height="33.6" style="stroke: #A80036; stroke-width: 1.0499999821186066;" width="80.5" x="956.55" y="193.2"/><ellipse cx="967.05" cy="204.4" fill="#ADD1B2" rx="7.7" ry="7.7" style="stroke: #A80036; stroke-width: 0.699999988079071;"/><path d="M968.45,201.95 Q968.5922,201.6 968.7562,201.425 Q968.9203,201.25 969.1062,201.25 Q969.4344,201.25 969.6422,201.4469 Q969.85,201.6437 969.85,202.1031 L969.85,203.1969 Q969.85,203.6562 969.6531,203.8531 Q969.4562,204.05 969.15,204.05 Q968.8765,204.05 968.7015,203.9297 Q968.5265,203.8094 968.45,203.4922 Q968.4172,203.2734 968.2969,203.1531 Q968.0781,202.9234 967.6844,202.7867 Q967.2906,202.65 966.8969,202.65 Q966.4047,202.65 965.9945,202.8469 Q965.5844,203.0437 965.2672,203.4812 Q964.95,203.9187 964.95,204.5203 L964.95,205.1656 Q964.95,205.8875 965.5406,206.3687 Q966.1312,206.85 967.1812,206.85 Q967.8047,206.85 968.2422,206.7078 Q968.4937,206.6312 968.7781,206.3797 Q968.964,206.2375 969.0625,206.1937 Q969.1609,206.15 969.2812,206.15 Q969.5109,206.15 969.6805,206.3305 Q969.85,206.5109 969.85,206.7625 Q969.85,207.0031 969.6094,207.2875 Q969.2594,207.7031 968.7015,207.9328 Q967.9687,208.25 967.0719,208.25 Q966.0219,208.25 965.1797,207.8344 Q964.5015,207.5062 964.0258,206.7953 Q963.55,206.0844 963.55,205.2422 L963.55,204.4766 Q963.55,203.6016 963.9711,202.8359 Q964.3922,202.0703 965.1305,201.6602 Q965.8687,201.25 966.7,201.25 Q967.2031,201.25 967.6406,201.425 Q968.0781,201.6 968.45,201.95 Z "/><text fill="#000000" font-family="sans-serif" font-size="8.4" lengthAdjust="spacingAndGlyphs" textLength="58.1" x="976.85" y="207.8371">AndroidPageUI</text><line style="stroke: #A80036; stroke-width: 1.0499999821186066;" x1="957.25" x2="1036.35" y1="215.6" y2="215.6"/><line style="stroke: #A80036; stroke-width: 1.0499999821186066;" x1="957.25" x2="1036.35" y1="221.2" y2="221.2"/><path d="M683.1146,66.5938 C609.8337,79.8273 452.0845,108.3131 367.6078,123.5682 " fill="none" style="stroke: #A80036; stroke-width: 0.699999988079071;"/><polygon fill="none" points="682.3586,61.7512,697.0068,64.0857,684.1002,71.3958,682.3586,61.7512" style="stroke: #A80036; stroke-width: 0.699999988079071;"/><path d="M722.4,89.6168 C722.4,99.1053 722.4,109.2266 722.4,117.3746 " fill="none" style="stroke: #A80036; stroke-width: 0.699999988079071;"/><polygon fill="none" points="717.5,89.6,722.4,75.6,727.3,89.6,717.5,89.6" style="stroke: #A80036; stroke-width: 0.699999988079071;"/><path d="M760.711,74.7677 C797.076,89.2591 850.752,110.6483 882.448,123.2791 " fill="none" style="stroke: #A80036; stroke-width: 0.699999988079071;"/><polygon fill="none" points="758.898,79.3184,747.705,69.5842,762.524,70.2149,758.898,79.3184" style="stroke: #A80036; stroke-width: 0.699999988079071;"/><path d="M251.7277,155.8053 C213.5742,169.022 165.3904,185.7135 133.0805,196.9051 " fill="none" style="stroke: #A80036; stroke-width: 0.699999988079071;"/><polygon fill="none" points="250.1891,151.1531,265.0221,151.2,253.3972,160.4127,250.1891,151.1531" style="stroke: #A80036; stroke-width: 0.699999988079071;"/><path d="M88.872,240.478 C86.1595,250.0645 83.2538,260.3296 80.92,268.5749 " fill="none" style="stroke: #A80036; stroke-width: 0.699999988079071;"/><polygon fill="none" points="84.2156,238.9366,92.743,226.8,93.6453,241.6057,84.2156,238.9366" style="stroke: #A80036; stroke-width: 0.699999988079071;"/><path d="M278.2787,159.5545 C263.3715,170.5277 246.1872,183.1774 232.8774,192.9746 " fill="none" style="stroke: #A80036; stroke-width: 0.699999988079071;"/><polygon fill="none" points="275.4486,155.5533,289.6278,151.2,281.2579,163.4458,275.4486,155.5533" style="stroke: #A80036; stroke-width: 0.699999988079071;"/><path d="M204.7332,240.8168 C202.8537,250.3053 200.8482,260.4267 199.234,268.5749 " fill="none" style="stroke: #A80036; stroke-width: 0.699999988079071;"/><polygon fill="none" points="199.983,239.5813,207.5101,226.8,209.5961,241.486,199.983,239.5813" style="stroke: #A80036; stroke-width: 0.699999988079071;"/><path d="M311.5,165.2168 C311.5,174.7053 311.5,184.8266 311.5,192.9746 " fill="none" style="stroke: #A80036; stroke-width: 0.699999988079071;"/><polygon fill="none" points="306.6,165.2,311.5,151.2,316.4,165.2,306.6,165.2" style="stroke: #A80036; stroke-width: 0.699999988079071;"/><path d="M311.5,240.8168 C311.5,250.3053 311.5,260.4267 311.5,268.5749 " fill="none" style="stroke: #A80036; stroke-width: 0.699999988079071;"/><polygon fill="none" points="306.6,240.8,311.5,226.8,316.4,240.8,306.6,240.8" style="stroke: #A80036; stroke-width: 0.699999988079071;"/><path d="M343.7623,159.8814 C357.9492,170.7783 374.2179,183.2747 386.8466,192.9746 " fill="none" style="stroke: #A80036; stroke-width: 0.699999988079071;"/><polygon fill="none" points="340.5787,163.6145,332.4608,151.2,346.5483,155.8424,340.5787,163.6145" style="stroke: #A80036; stroke-width: 0.699999988079071;"/><path d="M413.7826,240.8168 C415.5725,250.3053 417.4821,260.4267 419.02,268.5749 " fill="none" style="stroke: #A80036; stroke-width: 0.699999988079071;"/><polygon fill="none" points="408.9183,241.4664,411.138,226.8,418.5489,239.6492,408.9183,241.4664" style="stroke: #A80036; stroke-width: 0.699999988079071;"/><path d="M670.2325,156.5333 C637.5642,169.9551 596.7402,186.7278 570.0016,197.7136 " fill="none" style="stroke: #A80036; stroke-width: 0.699999988079071;"/><polygon fill="none" points="668.4006,151.9882,683.2126,151.2,672.1253,161.0532,668.4006,151.9882" style="stroke: #A80036; stroke-width: 0.699999988079071;"/><path d="M536.97,240.8168 C535.4482,250.3053 533.8249,260.4267 532.518,268.5749 " fill="none" style="stroke: #A80036; stroke-width: 0.699999988079071;"/><polygon fill="none" points="532.1624,239.848,539.2177,226.8,541.8392,241.3999,532.1624,239.848" style="stroke: #A80036; stroke-width: 0.699999988079071;"/><path d="M692.3175,160.2083 C679.3542,171.0275 664.5653,183.3713 653.0594,192.9746 " fill="none" style="stroke: #A80036; stroke-width: 0.699999988079071;"/><polygon fill="none" points="689.2221,156.4094,703.1101,151.2,695.5018,163.933,689.2221,156.4094" style="stroke: #A80036; stroke-width: 0.699999988079071;"/><path d="M635.4887,240.8168 C636.1152,250.3053 636.7837,260.4267 637.322,268.5749 " fill="none" style="stroke: #A80036; stroke-width: 0.699999988079071;"/><polygon fill="none" points="630.5964,241.0926,634.5633,226.8,640.3754,240.4472,630.5964,241.0926" style="stroke: #A80036; stroke-width: 0.699999988079071;"/><path d="M722.4,165.2168 C722.4,174.7053 722.4,184.8266 722.4,192.9746 " fill="none" style="stroke: #A80036; stroke-width: 0.699999988079071;"/><polygon fill="none" points="717.5,165.2,722.4,151.2,727.3,165.2,717.5,165.2" style="stroke: #A80036; stroke-width: 0.699999988079071;"/><path d="M735.581,239.8025 C740.005,249.5801 744.786,260.1357 748.608,268.5749 " fill="none" style="stroke: #A80036; stroke-width: 0.699999988079071;"/><polygon fill="none" points="731.003,241.5749,729.694,226.8,739.928,237.5324,731.003,241.5749" style="stroke: #A80036; stroke-width: 0.699999988079071;"/><path d="M753.193,160.2083 C766.465,171.0275 781.599,183.3713 793.38,192.9746 " fill="none" style="stroke: #A80036; stroke-width: 0.699999988079071;"/><polygon fill="none" points="749.896,163.8448,742.147,151.2,756.091,156.2498,749.896,163.8448" style="stroke: #A80036; stroke-width: 0.699999988079071;"/><path d="M836.15,237.7914 C844.816,248.1136 854.42,259.5536 861.994,268.5749 " fill="none" style="stroke: #A80036; stroke-width: 0.699999988079071;"/><polygon fill="none" points="832.167,240.6733,826.917,226.8,839.671,234.3712,832.167,240.6733" style="stroke: #A80036; stroke-width: 0.699999988079071;"/><path d="M773.885,156.6712 C803.978,169.2789 841.043,184.807 867.083,195.7179 " fill="none" style="stroke: #A80036; stroke-width: 0.699999988079071;"/><polygon fill="none" points="771.848,161.1295,760.83,151.2,775.635,152.0911,771.848,161.1295" style="stroke: #A80036; stroke-width: 0.699999988079071;"/><path d="M930.293,235.8083 C943.565,246.6275 958.699,258.9716 970.48,268.5749 " fill="none" style="stroke: #A80036; stroke-width: 0.699999988079071;"/><polygon fill="none" points="926.996,239.4448,919.247,226.8,933.191,231.8498,926.996,239.4448" style="stroke: #A80036; stroke-width: 0.699999988079071;"/><path d="M938.644,160.3728 C951.454,171.1521 966.035,183.4203 977.396,192.9746 " fill="none" style="stroke: #A80036; stroke-width: 0.699999988079071;"/><polygon fill="none" points="935.298,163.9624,927.738,151.2,941.605,156.4633,935.298,163.9624" style="stroke: #A80036; stroke-width: 0.699999988079071;"/></g></svg>