<?xml version="1.0" encoding="UTF-8" standalone="yes"?><svg xmlns="http://www.w3.org/2000/svg" xmlns:xlink="http://www.w3.org/1999/xlink" height="394.1px" style="width:1043px;height:394px;" version="1.1" viewBox="0 0 1043 394" width="1043.7px"><defs><filter height="300%" id="f1" width="300%" x="-1" y="-1"><feGaussianBlur result="blurOut" stdDeviation="1.399999976158142"/><feColorMatrix in="blurOut" result="blurOut2" type="matrix" values="0 0 0 0 0 0 0 0 0 0 0 0 0 0 0 0 0 0 .4 0"/><feOffset dx="2.799999952316284" dy="2.799999952316284" in="blurOut2" result="blurOut3"/><feBlend in="SourceGraphic" in2="blurOut3" mode="normal"/></filter></defs><g><polygon fill="#FFFFFF" filter="url(#f1)" points="15.4,16.8,215.6,16.8,220.5,33.3266,1038.8,33.3266,1038.8,389.2,15.4,389.2,15.4,16.8" style="stroke: #000000; stroke-width: 1.399999976158142;"/><line style="stroke: #000000; stroke-width: 1.399999976158142;" x1="15.4" x2="220.5" y1="33.3266" y2="33.3266"/><text fill="#000000" font-family="sans-serif" font-size="9.8" font-weight="bold" lengthAdjust="spacingAndGlyphs" textLength="196" x="18.2" y="28.3732">uk.ac.ucl.excites.sapelli.collector.model</text><rect fill="#FEFECE" filter="url(#f1)" height="33.6" style="stroke: #A80036; stroke-width: 1.0499999821186066;" width="71.4" x="510.3" y="42"/><ellipse cx="520.8" cy="53.2" fill="#A9DCDF" rx="7.7" ry="7.7" style="stroke: #A80036; stroke-width: 0.699999988079071;"/><path d="M522.025,54.25 L519.7172,54.25 L519.4109,54.95 L519.4109,54.95 L519.7391,54.95 L520.1,55.3875 L520.1,55.65 L520.1,55.9125 L519.7391,56.35 L519.4109,56.35 L518.0875,56.35 L517.6609,56.35 L517.3,55.9125 L517.3,55.65 L517.3,55.3875 L517.6609,54.95 L518.0875,54.95 L519.7062,50.75 L519.0937,50.75 L518.3609,50.75 L518,50.3125 L518,50.05 L518,49.7875 L518.3609,49.35 L519.0937,49.35 L521.6641,49.35 L523.5453,54.95 L523.9391,54.95 L523.9391,54.95 L524.3,55.3875 L524.3,55.65 L524.3,55.9125 L523.9391,56.35 L523.5453,56.35 L522.2219,56.35 L521.8609,56.35 L521.5,55.9125 L521.5,55.65 L521.5,55.3875 L521.8609,54.95 L522.2219,54.95 L522.2219,54.95 L522.025,54.25 Z M521.6422,52.85 L520.8,50.3453 L520.0781,52.85 L521.6422,52.85 Z "/><text fill="#000000" font-family="sans-serif" font-size="8.4" font-style="italic" lengthAdjust="spacingAndGlyphs" textLength="49" x="530.6" y="56.6371">JumpSource</text><line style="stroke: #A80036; stroke-width: 1.0499999821186066;" x1="511" x2="581" y1="64.4" y2="64.4"/><line style="stroke: #A80036; stroke-width: 1.0499999821186066;" x1="511" x2="581" y1="70" y2="70"/><rect fill="#FEFECE" filter="url(#f1)" height="33.6" style="stroke: #A80036; stroke-width: 1.0499999821186066;" width="41.3" x="490.35" y="117.6"/><ellipse cx="500.85" cy="128.8" fill="#A9DCDF" rx="7.7" ry="7.7" style="stroke: #A80036; stroke-width: 0.699999988079071;"/><path d="M502.075,129.85 L499.7672,129.85 L499.4609,130.55 L499.4609,130.55 L499.7891,130.55 L500.15,130.9875 L500.15,131.25 L500.15,131.5125 L499.7891,131.95 L499.4609,131.95 L498.1375,131.95 L497.7109,131.95 L497.35,131.5125 L497.35,131.25 L497.35,130.9875 L497.7109,130.55 L498.1375,130.55 L499.7562,126.35 L499.1437,126.35 L498.4109,126.35 L498.05,125.9125 L498.05,125.65 L498.05,125.3875 L498.4109,124.95 L499.1437,124.95 L501.7141,124.95 L503.5953,130.55 L503.9891,130.55 L503.9891,130.55 L504.35,130.9875 L504.35,131.25 L504.35,131.5125 L503.9891,131.95 L503.5953,131.95 L502.2719,131.95 L501.9109,131.95 L501.55,131.5125 L501.55,131.25 L501.55,130.9875 L501.9109,130.55 L502.2719,130.55 L502.2719,130.55 L502.075,129.85 Z M501.6922,128.45 L500.85,125.9453 L500.1281,128.45 L501.6922,128.45 Z "/><text fill="#000000" font-family="sans-serif" font-size="8.4" font-style="italic" lengthAdjust="spacingAndGlyphs" textLength="18.9" x="510.65" y="132.2371">Field</text><line style="stroke: #A80036; stroke-width: 1.0499999821186066;" x1="491.05" x2="530.95" y1="140" y2="140"/><line style="stroke: #A80036; stroke-width: 1.0499999821186066;" x1="491.05" x2="530.95" y1="145.6" y2="145.6"/><rect fill="#FEFECE" filter="url(#f1)" height="33.6" style="stroke: #A80036; stroke-width: 1.0499999821186066;" width="64.4" x="26.6" y="193.2"/><ellipse cx="37.1" cy="204.4" fill="#A9DCDF" rx="7.7" ry="7.7" style="stroke: #A80036; stroke-width: 0.699999988079071;"/><path d="M38.325,205.45 L36.0172,205.45 L35.7109,206.15 L35.7109,206.15 L36.0391,206.15 L36.4,206.5875 L36.4,206.85 L36.4,207.1125 L36.0391,207.55 L35.7109,207.55 L34.3875,207.55 L33.9609,207.55 L33.6,207.1125 L33.6,206.85 L33.6,206.5875 L33.9609,206.15 L34.3875,206.15 L36.0062,201.95 L35.3937,201.95 L34.6609,201.95 L34.3,201.5125 L34.3,201.25 L34.3,200.9875 L34.6609,200.55 L35.3937,200.55 L37.9641,200.55 L39.8453,206.15 L40.2391,206.15 L40.2391,206.15 L40.6,206.5875 L40.6,206.85 L40.6,207.1125 L40.2391,207.55 L39.8453,207.55 L38.5219,207.55 L38.1609,207.55 L37.8,207.1125 L37.8,206.85 L37.8,206.5875 L38.1609,206.15 L38.5219,206.15 L38.5219,206.15 L38.325,205.45 Z M37.9422,204.05 L37.1,201.5453 L36.3781,204.05 L37.9422,204.05 Z "/><text fill="#000000" font-family="sans-serif" font-size="8.4" font-style="italic" lengthAdjust="spacingAndGlyphs" textLength="42" x="46.9" y="207.8371">MediaField</text><line style="stroke: #A80036; stroke-width: 1.0499999821186066;" x1="27.3" x2="90.3" y1="215.6" y2="215.6"/><line style="stroke: #A80036; stroke-width: 1.0499999821186066;" x1="27.3" x2="90.3" y1="221.2" y2="221.2"/><rect fill="#FEFECE" filter="url(#f1)" height="33.6" style="stroke: #A80036; stroke-width: 1.0499999821186066;" width="52.5" x="31.85" y="268.8"/><ellipse cx="42.35" cy="280" fill="#A9DCDF" rx="7.7" ry="7.7" style="stroke: #A80036; stroke-width: 0.699999988079071;"/><path d="M43.575,281.05 L41.2672,281.05 L40.9609,281.75 L40.9609,281.75 L41.2891,281.75 L41.65,282.1875 L41.65,282.45 L41.65,282.7125 L41.2891,283.15 L40.9609,283.15 L39.6375,283.15 L39.2109,283.15 L38.85,282.7125 L38.85,282.45 L38.85,282.1875 L39.2109,281.75 L39.6375,281.75 L41.2562,277.55 L40.6437,277.55 L39.9109,277.55 L39.55,277.1125 L39.55,276.85 L39.55,276.5875 L39.9109,276.15 L40.6437,276.15 L43.2141,276.15 L45.0953,281.75 L45.4891,281.75 L45.4891,281.75 L45.85,282.1875 L45.85,282.45 L45.85,282.7125 L45.4891,283.15 L45.0953,283.15 L43.7719,283.15 L43.4109,283.15 L43.05,282.7125 L43.05,282.45 L43.05,282.1875 L43.4109,281.75 L43.7719,281.75 L43.7719,281.75 L43.575,281.05 Z M43.1922,279.65 L42.35,277.1453 L41.6281,279.65 L43.1922,279.65 Z "/><text fill="#000000" font-family="sans-serif" font-size="8.4" font-style="italic" lengthAdjust="spacingAndGlyphs" textLength="30.1" x="52.15" y="283.4371">AVField</text><line style="stroke: #A80036; stroke-width: 1.0499999821186066;" x1="32.55" x2="83.65" y1="291.2" y2="291.2"/><line style="stroke: #A80036; stroke-width: 1.0499999821186066;" x1="32.55" x2="83.65" y1="296.8" y2="296.8"/><rect fill="#FEFECE" filter="url(#f1)" height="33.6" style="stroke: #A80036; stroke-width: 1.0499999821186066;" width="68.6" x="115.5" y="193.2"/><ellipse cx="126" cy="204.4" fill="#A9DCDF" rx="7.7" ry="7.7" style="stroke: #A80036; stroke-width: 0.699999988079071;"/><path d="M127.225,205.45 L124.9172,205.45 L124.6109,206.15 L124.6109,206.15 L124.9391,206.15 L125.3,206.5875 L125.3,206.85 L125.3,207.1125 L124.9391,207.55 L124.6109,207.55 L123.2875,207.55 L122.8609,207.55 L122.5,207.1125 L122.5,206.85 L122.5,206.5875 L122.8609,206.15 L123.2875,206.15 L124.9062,201.95 L124.2937,201.95 L123.5609,201.95 L123.2,201.5125 L123.2,201.25 L123.2,200.9875 L123.5609,200.55 L124.2937,200.55 L126.8641,200.55 L128.7453,206.15 L129.1391,206.15 L129.1391,206.15 L129.5,206.5875 L129.5,206.85 L129.5,207.1125 L129.1391,207.55 L128.7453,207.55 L127.4219,207.55 L127.0609,207.55 L126.7,207.1125 L126.7,206.85 L126.7,206.5875 L127.0609,206.15 L127.4219,206.15 L127.4219,206.15 L127.225,205.45 Z M126.8422,204.05 L126,201.5453 L125.2781,204.05 L126.8422,204.05 Z "/><text fill="#000000" font-family="sans-serif" font-size="8.4" font-style="italic" lengthAdjust="spacingAndGlyphs" textLength="46.2" x="135.8" y="207.8371">UILessField</text><line style="stroke: #A80036; stroke-width: 1.0499999821186066;" x1="116.2" x2="183.4" y1="215.6" y2="215.6"/><line style="stroke: #A80036; stroke-width: 1.0499999821186066;" x1="116.2" x2="183.4" y1="221.2" y2="221.2"/><rect fill="#FEFECE" filter="url(#f1)" height="33.6" style="stroke: #A80036; stroke-width: 1.0499999821186066;" width="70.7" x="199.85" y="268.8"/><ellipse cx="210.35" cy="280" fill="#A9DCDF" rx="7.7" ry="7.7" style="stroke: #A80036; stroke-width: 0.699999988079071;"/><path d="M211.575,281.05 L209.2672,281.05 L208.9609,281.75 L208.9609,281.75 L209.2891,281.75 L209.65,282.1875 L209.65,282.45 L209.65,282.7125 L209.2891,283.15 L208.9609,283.15 L207.6375,283.15 L207.2109,283.15 L206.85,282.7125 L206.85,282.45 L206.85,282.1875 L207.2109,281.75 L207.6375,281.75 L209.2562,277.55 L208.6437,277.55 L207.9109,277.55 L207.55,277.1125 L207.55,276.85 L207.55,276.5875 L207.9109,276.15 L208.6437,276.15 L211.2141,276.15 L213.0953,281.75 L213.4891,281.75 L213.4891,281.75 L213.85,282.1875 L213.85,282.45 L213.85,282.7125 L213.4891,283.15 L213.0953,283.15 L211.7719,283.15 L211.4109,283.15 L211.05,282.7125 L211.05,282.45 L211.05,282.1875 L211.4109,281.75 L211.7719,281.75 L211.7719,281.75 L211.575,281.05 Z M211.1922,279.65 L210.35,277.1453 L209.6281,279.65 L211.1922,279.65 Z "/><text fill="#000000" font-family="sans-serif" font-size="8.4" font-style="italic" lengthAdjust="spacingAndGlyphs" textLength="48.3" x="220.15" y="283.4371">Relationship</text><line style="stroke: #A80036; stroke-width: 1.0499999821186066;" x1="200.55" x2="269.85" y1="291.2" y2="291.2"/><line style="stroke: #A80036; stroke-width: 1.0499999821186066;" x1="200.55" x2="269.85" y1="296.8" y2="296.8"/><rect fill="#FEFECE" filter="url(#f1)" height="33.6" style="stroke: #A80036; stroke-width: 1.0499999821186066;" width="42.7" x="208.95" y="193.2"/><ellipse cx="219.45" cy="204.4" fill="#ADD1B2" rx="7.7" ry="7.7" style="stroke: #A80036; stroke-width: 0.699999988079071;"/><path d="M220.85,201.95 Q220.9922,201.6 221.1562,201.425 Q221.3203,201.25 221.5062,201.25 Q221.8344,201.25 222.0422,201.4469 Q222.25,201.6437 222.25,202.1031 L222.25,203.1969 Q222.25,203.6562 222.0531,203.8531 Q221.8562,204.05 221.55,204.05 Q221.2766,204.05 221.1016,203.9297 Q220.9266,203.8094 220.85,203.4922 Q220.8172,203.2734 220.6969,203.1531 Q220.4781,202.9234 220.0844,202.7867 Q219.6906,202.65 219.2969,202.65 Q218.8047,202.65 218.3945,202.8469 Q217.9844,203.0437 217.6672,203.4812 Q217.35,203.9187 217.35,204.5203 L217.35,205.1656 Q217.35,205.8875 217.9406,206.3687 Q218.5312,206.85 219.5812,206.85 Q220.2047,206.85 220.6422,206.7078 Q220.8937,206.6312 221.1781,206.3797 Q221.3641,206.2375 221.4625,206.1937 Q221.5609,206.15 221.6812,206.15 Q221.9109,206.15 222.0805,206.3305 Q222.25,206.5109 222.25,206.7625 Q222.25,207.0031 222.0094,207.2875 Q221.6594,207.7031 221.1016,207.9328 Q220.3687,208.25 219.4719,208.25 Q218.4219,208.25 217.5797,207.8344 Q216.9016,207.5062 216.4258,206.7953 Q215.95,206.0844 215.95,205.2422 L215.95,204.4766 Q215.95,203.6016 216.3711,202.8359 Q216.7922,202.0703 217.5305,201.6602 Q218.2687,201.25 219.1,201.25 Q219.6031,201.25 220.0406,201.425 Q220.4781,201.6 220.85,201.95 Z "/><text fill="#000000" font-family="sans-serif" font-size="8.4" lengthAdjust="spacingAndGlyphs" textLength="20.3" x="229.25" y="207.8371">Page</text><line style="stroke: #A80036; stroke-width: 1.0499999821186066;" x1="209.65" x2="250.95" y1="215.6" y2="215.6"/><line style="stroke: #A80036; stroke-width: 1.0499999821186066;" x1="209.65" x2="250.95" y1="221.2" y2="221.2"/><rect fill="#FEFECE" filter="url(#f1)" height="33.6" style="stroke: #A80036; stroke-width: 1.0499999821186066;" width="79.8" x="276.5" y="193.2"/><ellipse cx="287" cy="204.4" fill="#ADD1B2" rx="7.7" ry="7.7" style="stroke: #A80036; stroke-width: 0.699999988079071;"/><path d="M288.4,201.95 Q288.5422,201.6 288.7062,201.425 Q288.8703,201.25 289.0562,201.25 Q289.3844,201.25 289.5922,201.4469 Q289.8,201.6437 289.8,202.1031 L289.8,203.1969 Q289.8,203.6562 289.6031,203.8531 Q289.4062,204.05 289.1,204.05 Q288.8266,204.05 288.6516,203.9297 Q288.4766,203.8094 288.4,203.4922 Q288.3672,203.2734 288.2469,203.1531 Q288.0281,202.9234 287.6344,202.7867 Q287.2406,202.65 286.8469,202.65 Q286.3547,202.65 285.9445,202.8469 Q285.5344,203.0437 285.2172,203.4812 Q284.9,203.9187 284.9,204.5203 L284.9,205.1656 Q284.9,205.8875 285.4906,206.3687 Q286.0812,206.85 287.1312,206.85 Q287.7547,206.85 288.1922,206.7078 Q288.4437,206.6312 288.7281,206.3797 Q288.9141,206.2375 289.0125,206.1937 Q289.1109,206.15 289.2312,206.15 Q289.4609,206.15 289.6305,206.3305 Q289.8,206.5109 289.8,206.7625 Q289.8,207.0031 289.5594,207.2875 Q289.2094,207.7031 288.6516,207.9328 Q287.9187,208.25 287.0219,208.25 Q285.9719,208.25 285.1297,207.8344 Q284.4516,207.5062 283.9758,206.7953 Q283.5,206.0844 283.5,205.2422 L283.5,204.4766 Q283.5,203.6016 283.9211,202.8359 Q284.3422,202.0703 285.0805,201.6602 Q285.8187,201.25 286.65,201.25 Q287.1531,201.25 287.5906,201.425 Q288.0281,201.6 288.4,201.95 Z "/><text fill="#000000" font-family="sans-serif" font-size="8.4" lengthAdjust="spacingAndGlyphs" textLength="57.4" x="296.8" y="207.8371">CheckBoxField</text><line style="stroke: #A80036; stroke-width: 1.0499999821186066;" x1="277.2" x2="355.6" y1="215.6" y2="215.6"/><line style="stroke: #A80036; stroke-width: 1.0499999821186066;" x1="277.2" x2="355.6" y1="221.2" y2="221.2"/><rect fill="#FEFECE" filter="url(#f1)" height="33.6" style="stroke: #A80036; stroke-width: 1.0499999821186066;" width="70.7" x="381.15" y="193.2"/><ellipse cx="391.65" cy="204.4" fill="#ADD1B2" rx="7.7" ry="7.7" style="stroke: #A80036; stroke-width: 0.699999988079071;"/><path d="M393.05,201.95 Q393.1922,201.6 393.3562,201.425 Q393.5203,201.25 393.7062,201.25 Q394.0344,201.25 394.2422,201.4469 Q394.45,201.6437 394.45,202.1031 L394.45,203.1969 Q394.45,203.6562 394.2531,203.8531 Q394.0562,204.05 393.75,204.05 Q393.4766,204.05 393.3016,203.9297 Q393.1266,203.8094 393.05,203.4922 Q393.0172,203.2734 392.8969,203.1531 Q392.6781,202.9234 392.2844,202.7867 Q391.8906,202.65 391.4969,202.65 Q391.0047,202.65 390.5945,202.8469 Q390.1844,203.0437 389.8672,203.4812 Q389.55,203.9187 389.55,204.5203 L389.55,205.1656 Q389.55,205.8875 390.1406,206.3687 Q390.7312,206.85 391.7812,206.85 Q392.4047,206.85 392.8422,206.7078 Q393.0937,206.6312 393.3781,206.3797 Q393.5641,206.2375 393.6625,206.1937 Q393.7609,206.15 393.8812,206.15 Q394.1109,206.15 394.2805,206.3305 Q394.45,206.5109 394.45,206.7625 Q394.45,207.0031 394.2094,207.2875 Q393.8594,207.7031 393.3016,207.9328 Q392.5687,208.25 391.6719,208.25 Q390.6219,208.25 389.7797,207.8344 Q389.1016,207.5062 388.6258,206.7953 Q388.15,206.0844 388.15,205.2422 L388.15,204.4766 Q388.15,203.6016 388.5711,202.8359 Q388.9922,202.0703 389.7305,201.6602 Q390.4687,201.25 391.3,201.25 Q391.8031,201.25 392.2406,201.425 Q392.6781,201.6 393.05,201.95 Z "/><text fill="#000000" font-family="sans-serif" font-size="8.4" lengthAdjust="spacingAndGlyphs" textLength="48.3" x="401.45" y="207.8371">TextBoxField</text><line style="stroke: #A80036; stroke-width: 1.0499999821186066;" x1="381.85" x2="451.15" y1="215.6" y2="215.6"/><line style="stroke: #A80036; stroke-width: 1.0499999821186066;" x1="381.85" x2="451.15" y1="221.2" y2="221.2"/><rect fill="#FEFECE" filter="url(#f1)" height="33.6" style="stroke: #A80036; stroke-width: 1.0499999821186066;" width="68.6" x="476.7" y="193.2"/><ellipse cx="487.2" cy="204.4" fill="#ADD1B2" rx="7.7" ry="7.7" style="stroke: #A80036; stroke-width: 0.699999988079071;"/><path d="M488.6,201.95 Q488.7422,201.6 488.9062,201.425 Q489.0703,201.25 489.2562,201.25 Q489.5844,201.25 489.7922,201.4469 Q490,201.6437 490,202.1031 L490,203.1969 Q490,203.6562 489.8031,203.8531 Q489.6062,204.05 489.3,204.05 Q489.0266,204.05 488.8516,203.9297 Q488.6766,203.8094 488.6,203.4922 Q488.5672,203.2734 488.4469,203.1531 Q488.2281,202.9234 487.8344,202.7867 Q487.4406,202.65 487.0469,202.65 Q486.5547,202.65 486.1445,202.8469 Q485.7344,203.0437 485.4172,203.4812 Q485.1,203.9187 485.1,204.5203 L485.1,205.1656 Q485.1,205.8875 485.6906,206.3687 Q486.2812,206.85 487.3312,206.85 Q487.9547,206.85 488.3922,206.7078 Q488.6437,206.6312 488.9281,206.3797 Q489.1141,206.2375 489.2125,206.1937 Q489.3109,206.15 489.4312,206.15 Q489.6609,206.15 489.8305,206.3305 Q490,206.5109 490,206.7625 Q490,207.0031 489.7594,207.2875 Q489.4094,207.7031 488.8516,207.9328 Q488.1187,208.25 487.2219,208.25 Q486.1719,208.25 485.3297,207.8344 Q484.6516,207.5062 484.1758,206.7953 Q483.7,206.0844 483.7,205.2422 L483.7,204.4766 Q483.7,203.6016 484.1211,202.8359 Q484.5422,202.0703 485.2805,201.6602 Q486.0187,201.25 486.85,201.25 Q487.3531,201.25 487.7906,201.425 Q488.2281,201.6 488.6,201.95 Z "/><text fill="#000000" font-family="sans-serif" font-size="8.4" lengthAdjust="spacingAndGlyphs" textLength="46.2" x="497" y="207.8371">ChoiceField</text><line style="stroke: #A80036; stroke-width: 1.0499999821186066;" x1="477.4" x2="544.6" y1="215.6" y2="215.6"/><line style="stroke: #A80036; stroke-width: 1.0499999821186066;" x1="477.4" x2="544.6" y1="221.2" y2="221.2"/><rect fill="#FEFECE" filter="url(#f1)" height="33.6" style="stroke: #A80036; stroke-width: 1.0499999821186066;" width="63" x="569.8" y="193.2"/><ellipse cx="580.3" cy="204.4" fill="#ADD1B2" rx="7.7" ry="7.7" style="stroke: #A80036; stroke-width: 0.699999988079071;"/><path d="M581.7,201.95 Q581.8422,201.6 582.0062,201.425 Q582.1703,201.25 582.3562,201.25 Q582.6844,201.25 582.8922,201.4469 Q583.1,201.6437 583.1,202.1031 L583.1,203.1969 Q583.1,203.6562 582.9031,203.8531 Q582.7062,204.05 582.4,204.05 Q582.1266,204.05 581.9516,203.9297 Q581.7766,203.8094 581.7,203.4922 Q581.6672,203.2734 581.5469,203.1531 Q581.3281,202.9234 580.9344,202.7867 Q580.5406,202.65 580.1469,202.65 Q579.6547,202.65 579.2445,202.8469 Q578.8344,203.0437 578.5172,203.4812 Q578.2,203.9187 578.2,204.5203 L578.2,205.1656 Q578.2,205.8875 578.7906,206.3687 Q579.3812,206.85 580.4312,206.85 Q581.0547,206.85 581.4922,206.7078 Q581.7437,206.6312 582.0281,206.3797 Q582.2141,206.2375 582.3125,206.1937 Q582.4109,206.15 582.5312,206.15 Q582.7609,206.15 582.9305,206.3305 Q583.1,206.5109 583.1,206.7625 Q583.1,207.0031 582.8594,207.2875 Q582.5094,207.7031 581.9516,207.9328 Q581.2187,208.25 580.3219,208.25 Q579.2719,208.25 578.4297,207.8344 Q577.7516,207.5062 577.2758,206.7953 Q576.8,206.0844 576.8,205.2422 L576.8,204.4766 Q576.8,203.6016 577.2211,202.8359 Q577.6422,202.0703 578.3805,201.6602 Q579.1187,201.25 579.95,201.25 Q580.4531,201.25 580.8906,201.425 Q581.3281,201.6 581.7,201.95 Z "/><text fill="#000000" font-family="sans-serif" font-size="8.4" lengthAdjust="spacingAndGlyphs" textLength="40.6" x="590.1" y="207.8371">LabelField</text><line style="stroke: #A80036; stroke-width: 1.0499999821186066;" x1="570.5" x2="632.1" y1="215.6" y2="215.6"/><line style="stroke: #A80036; stroke-width: 1.0499999821186066;" x1="570.5" x2="632.1" y1="221.2" y2="221.2"/><rect fill="#FEFECE" filter="url(#f1)" height="33.6" style="stroke: #A80036; stroke-width: 1.0499999821186066;" width="65.8" x="657.3" y="193.2"/><ellipse cx="667.8" cy="204.4" fill="#ADD1B2" rx="7.7" ry="7.7" style="stroke: #A80036; stroke-width: 0.699999988079071;"/><path d="M669.2,201.95 Q669.3422,201.6 669.5062,201.425 Q669.6703,201.25 669.8562,201.25 Q670.1844,201.25 670.3922,201.4469 Q670.6,201.6437 670.6,202.1031 L670.6,203.1969 Q670.6,203.6562 670.4031,203.8531 Q670.2062,204.05 669.9,204.05 Q669.6266,204.05 669.4516,203.9297 Q669.2766,203.8094 669.2,203.4922 Q669.1672,203.2734 669.0469,203.1531 Q668.8281,202.9234 668.4344,202.7867 Q668.0406,202.65 667.6469,202.65 Q667.1547,202.65 666.7445,202.8469 Q666.3344,203.0437 666.0172,203.4812 Q665.7,203.9187 665.7,204.5203 L665.7,205.1656 Q665.7,205.8875 666.2906,206.3687 Q666.8812,206.85 667.9312,206.85 Q668.5547,206.85 668.9922,206.7078 Q669.2437,206.6312 669.5281,206.3797 Q669.7141,206.2375 669.8125,206.1937 Q669.9109,206.15 670.0312,206.15 Q670.2609,206.15 670.4305,206.3305 Q670.6,206.5109 670.6,206.7625 Q670.6,207.0031 670.3594,207.2875 Q670.0094,207.7031 669.4516,207.9328 Q668.7187,208.25 667.8219,208.25 Q666.7719,208.25 665.9297,207.8344 Q665.2516,207.5062 664.7758,206.7953 Q664.3,206.0844 664.3,205.2422 L664.3,204.4766 Q664.3,203.6016 664.7211,202.8359 Q665.1422,202.0703 665.8805,201.6602 Q666.6187,201.25 667.45,201.25 Q667.9531,201.25 668.3906,201.425 Q668.8281,201.6 669.2,201.95 Z "/><text fill="#000000" font-family="sans-serif" font-size="8.4" lengthAdjust="spacingAndGlyphs" textLength="43.4" x="677.6" y="207.8371">ButtonField</text><line style="stroke: #A80036; stroke-width: 1.0499999821186066;" x1="658" x2="722.4" y1="215.6" y2="215.6"/><line style="stroke: #A80036; stroke-width: 1.0499999821186066;" x1="658" x2="722.4" y1="221.2" y2="221.2"/><rect fill="#FEFECE" filter="url(#f1)" height="33.6" style="stroke: #A80036; stroke-width: 1.0499999821186066;" width="63.7" x="108.85" y="268.8"/><ellipse cx="119.35" cy="280" fill="#ADD1B2" rx="7.7" ry="7.7" style="stroke: #A80036; stroke-width: 0.699999988079071;"/><path d="M120.75,277.55 Q120.8922,277.2 121.0562,277.025 Q121.2203,276.85 121.4062,276.85 Q121.7344,276.85 121.9422,277.0469 Q122.15,277.2437 122.15,277.7031 L122.15,278.7969 Q122.15,279.2562 121.9531,279.4531 Q121.7562,279.65 121.45,279.65 Q121.1766,279.65 121.0016,279.5297 Q120.8266,279.4094 120.75,279.0922 Q120.7172,278.8734 120.5969,278.7531 Q120.3781,278.5234 119.9844,278.3867 Q119.5906,278.25 119.1969,278.25 Q118.7047,278.25 118.2945,278.4469 Q117.8844,278.6437 117.5672,279.0812 Q117.25,279.5187 117.25,280.1203 L117.25,280.7656 Q117.25,281.4875 117.8406,281.9687 Q118.4312,282.45 119.4812,282.45 Q120.1047,282.45 120.5422,282.3078 Q120.7937,282.2312 121.0781,281.9797 Q121.2641,281.8375 121.3625,281.7937 Q121.4609,281.75 121.5812,281.75 Q121.8109,281.75 121.9805,281.9305 Q122.15,282.1109 122.15,282.3625 Q122.15,282.6031 121.9094,282.8875 Q121.5594,283.3031 121.0016,283.5328 Q120.2687,283.85 119.3719,283.85 Q118.3219,283.85 117.4797,283.4344 Q116.8016,283.1062 116.3258,282.3953 Q115.85,281.6844 115.85,280.8422 L115.85,280.0766 Q115.85,279.2016 116.2711,278.4359 Q116.6922,277.6703 117.4305,277.2602 Q118.1687,276.85 119,276.85 Q119.5031,276.85 119.9406,277.025 Q120.3781,277.2 120.75,277.55 Z "/><text fill="#000000" font-family="sans-serif" font-size="8.4" lengthAdjust="spacingAndGlyphs" textLength="41.3" x="129.15" y="283.4371">PhotoField</text><line style="stroke: #A80036; stroke-width: 1.0499999821186066;" x1="109.55" x2="171.85" y1="291.2" y2="291.2"/><line style="stroke: #A80036; stroke-width: 1.0499999821186066;" x1="109.55" x2="171.85" y1="296.8" y2="296.8"/><rect fill="#FEFECE" filter="url(#f1)" height="33.6" style="stroke: #A80036; stroke-width: 1.0499999821186066;" width="63" x="26.6" y="344.4"/><ellipse cx="37.1" cy="355.6" fill="#ADD1B2" rx="7.7" ry="7.7" style="stroke: #A80036; stroke-width: 0.699999988079071;"/><path d="M38.5,353.15 Q38.6422,352.8 38.8062,352.625 Q38.9703,352.45 39.1562,352.45 Q39.4844,352.45 39.6922,352.6469 Q39.9,352.8437 39.9,353.3031 L39.9,354.3969 Q39.9,354.8562 39.7031,355.0531 Q39.5062,355.25 39.2,355.25 Q38.9266,355.25 38.7516,355.1297 Q38.5766,355.0094 38.5,354.6922 Q38.4672,354.4734 38.3469,354.3531 Q38.1281,354.1234 37.7344,353.9867 Q37.3406,353.85 36.9469,353.85 Q36.4547,353.85 36.0445,354.0469 Q35.6344,354.2437 35.3172,354.6812 Q35,355.1187 35,355.7203 L35,356.3656 Q35,357.0875 35.5906,357.5687 Q36.1812,358.05 37.2312,358.05 Q37.8547,358.05 38.2922,357.9078 Q38.5437,357.8312 38.8281,357.5797 Q39.0141,357.4375 39.1125,357.3937 Q39.2109,357.35 39.3312,357.35 Q39.5609,357.35 39.7305,357.5305 Q39.9,357.7109 39.9,357.9625 Q39.9,358.2031 39.6594,358.4875 Q39.3094,358.9031 38.7516,359.1328 Q38.0187,359.45 37.1219,359.45 Q36.0719,359.45 35.2297,359.0344 Q34.5516,358.7062 34.0758,357.9953 Q33.6,357.2844 33.6,356.4422 L33.6,355.6766 Q33.6,354.8016 34.0211,354.0359 Q34.4422,353.2703 35.1805,352.8602 Q35.9187,352.45 36.75,352.45 Q37.2531,352.45 37.6906,352.625 Q38.1281,352.8 38.5,353.15 Z "/><text fill="#000000" font-family="sans-serif" font-size="8.4" lengthAdjust="spacingAndGlyphs" textLength="40.6" x="46.9" y="359.0371">VideoField</text><line style="stroke: #A80036; stroke-width: 1.0499999821186066;" x1="27.3" x2="88.9" y1="366.8" y2="366.8"/><line style="stroke: #A80036; stroke-width: 1.0499999821186066;" x1="27.3" x2="88.9" y1="372.4" y2="372.4"/><rect fill="#FEFECE" filter="url(#f1)" height="33.6" style="stroke: #A80036; stroke-width: 1.0499999821186066;" width="63" x="114.1" y="344.4"/><ellipse cx="124.6" cy="355.6" fill="#ADD1B2" rx="7.7" ry="7.7" style="stroke: #A80036; stroke-width: 0.699999988079071;"/><path d="M126,353.15 Q126.1422,352.8 126.3062,352.625 Q126.4703,352.45 126.6562,352.45 Q126.9844,352.45 127.1922,352.6469 Q127.4,352.8437 127.4,353.3031 L127.4,354.3969 Q127.4,354.8562 127.2031,355.0531 Q127.0062,355.25 126.7,355.25 Q126.4266,355.25 126.2516,355.1297 Q126.0766,355.0094 126,354.6922 Q125.9672,354.4734 125.8469,354.3531 Q125.6281,354.1234 125.2344,353.9867 Q124.8406,353.85 124.4469,353.85 Q123.9547,353.85 123.5445,354.0469 Q123.1344,354.2437 122.8172,354.6812 Q122.5,355.1187 122.5,355.7203 L122.5,356.3656 Q122.5,357.0875 123.0906,357.5687 Q123.6812,358.05 124.7312,358.05 Q125.3547,358.05 125.7922,357.9078 Q126.0437,357.8312 126.3281,357.5797 Q126.5141,357.4375 126.6125,357.3937 Q126.7109,357.35 126.8312,357.35 Q127.0609,357.35 127.2305,357.5305 Q127.4,357.7109 127.4,357.9625 Q127.4,358.2031 127.1594,358.4875 Q126.8094,358.9031 126.2516,359.1328 Q125.5187,359.45 124.6219,359.45 Q123.5719,359.45 122.7297,359.0344 Q122.0516,358.7062 121.5758,357.9953 Q121.1,357.2844 121.1,356.4422 L121.1,355.6766 Q121.1,354.8016 121.5211,354.0359 Q121.9422,353.2703 122.6805,352.8602 Q123.4187,352.45 124.25,352.45 Q124.7531,352.45 125.1906,352.625 Q125.6281,352.8 126,353.15 Z "/><text fill="#000000" font-family="sans-serif" font-size="8.4" lengthAdjust="spacingAndGlyphs" textLength="40.6" x="134.4" y="359.0371">AudioField</text><line style="stroke: #A80036; stroke-width: 1.0499999821186066;" x1="114.8" x2="176.4" y1="366.8" y2="366.8"/><line style="stroke: #A80036; stroke-width: 1.0499999821186066;" x1="114.8" x2="176.4" y1="372.4" y2="372.4"/><rect fill="#FEFECE" filter="url(#f1)" height="33.6" style="stroke: #A80036; stroke-width: 1.0499999821186066;" width="56.7" x="295.05" y="268.8"/><ellipse cx="305.55" cy="280" fill="#ADD1B2" rx="7.7" ry="7.7" style="stroke: #A80036; stroke-width: 0.699999988079071;"/><path d="M306.95,277.55 Q307.0922,277.2 307.2562,277.025 Q307.4203,276.85 307.6062,276.85 Q307.9344,276.85 308.1422,277.0469 Q308.35,277.2437 308.35,277.7031 L308.35,278.7969 Q308.35,279.2562 308.1531,279.4531 Q307.9562,279.65 307.65,279.65 Q307.3766,279.65 307.2016,279.5297 Q307.0266,279.4094 306.95,279.0922 Q306.9172,278.8734 306.7969,278.7531 Q306.5781,278.5234 306.1844,278.3867 Q305.7906,278.25 305.3969,278.25 Q304.9047,278.25 304.4945,278.4469 Q304.0844,278.6437 303.7672,279.0812 Q303.45,279.5187 303.45,280.1203 L303.45,280.7656 Q303.45,281.4875 304.0406,281.9687 Q304.6312,282.45 305.6812,282.45 Q306.3047,282.45 306.7422,282.3078 Q306.9937,282.2312 307.2781,281.9797 Q307.4641,281.8375 307.5625,281.7937 Q307.6609,281.75 307.7812,281.75 Q308.0109,281.75 308.1805,281.9305 Q308.35,282.1109 308.35,282.3625 Q308.35,282.6031 308.1094,282.8875 Q307.7594,283.3031 307.2016,283.5328 Q306.4687,283.85 305.5719,283.85 Q304.5219,283.85 303.6797,283.4344 Q303.0016,283.1062 302.5258,282.3953 Q302.05,281.6844 302.05,280.8422 L302.05,280.0766 Q302.05,279.2016 302.4711,278.4359 Q302.8922,277.6703 303.6305,277.2602 Q304.3687,276.85 305.2,276.85 Q305.7031,276.85 306.1406,277.025 Q306.5781,277.2 306.95,277.55 Z "/><text fill="#000000" font-family="sans-serif" font-size="8.4" lengthAdjust="spacingAndGlyphs" textLength="34.3" x="315.35" y="283.4371">EndField</text><line style="stroke: #A80036; stroke-width: 1.0499999821186066;" x1="295.75" x2="351.05" y1="291.2" y2="291.2"/><line style="stroke: #A80036; stroke-width: 1.0499999821186066;" x1="295.75" x2="351.05" y1="296.8" y2="296.8"/><rect fill="#FEFECE" filter="url(#f1)" height="33.6" style="stroke: #A80036; stroke-width: 1.0499999821186066;" width="72.1" x="201.95" y="344.4"/><ellipse cx="212.45" cy="355.6" fill="#ADD1B2" rx="7.7" ry="7.7" style="stroke: #A80036; stroke-width: 0.699999988079071;"/><path d="M213.85,353.15 Q213.9922,352.8 214.1562,352.625 Q214.3203,352.45 214.5062,352.45 Q214.8344,352.45 215.0422,352.6469 Q215.25,352.8437 215.25,353.3031 L215.25,354.3969 Q215.25,354.8562 215.0531,355.0531 Q214.8562,355.25 214.55,355.25 Q214.2766,355.25 214.1016,355.1297 Q213.9266,355.0094 213.85,354.6922 Q213.8172,354.4734 213.6969,354.3531 Q213.4781,354.1234 213.0844,353.9867 Q212.6906,353.85 212.2969,353.85 Q211.8047,353.85 211.3945,354.0469 Q210.9844,354.2437 210.6672,354.6812 Q210.35,355.1187 210.35,355.7203 L210.35,356.3656 Q210.35,357.0875 210.9406,357.5687 Q211.5312,358.05 212.5812,358.05 Q213.2047,358.05 213.6422,357.9078 Q213.8937,357.8312 214.1781,357.5797 Q214.3641,357.4375 214.4625,357.3937 Q214.5609,357.35 214.6812,357.35 Q214.9109,357.35 215.0805,357.5305 Q215.25,357.7109 215.25,357.9625 Q215.25,358.2031 215.0094,358.4875 Q214.6594,358.9031 214.1016,359.1328 Q213.3687,359.45 212.4719,359.45 Q211.4219,359.45 210.5797,359.0344 Q209.9016,358.7062 209.4258,357.9953 Q208.95,357.2844 208.95,356.4422 L208.95,355.6766 Q208.95,354.8016 209.3711,354.0359 Q209.7922,353.2703 210.5305,352.8602 Q211.2687,352.45 212.1,352.45 Q212.6031,352.45 213.0406,352.625 Q213.4781,352.8 213.85,353.15 Z "/><text fill="#000000" font-family="sans-serif" font-size="8.4" lengthAdjust="spacingAndGlyphs" textLength="49.7" x="222.25" y="359.0371">LinksToField</text><line style="stroke: #A80036; stroke-width: 1.0499999821186066;" x1="202.65" x2="273.35" y1="366.8" y2="366.8"/><line style="stroke: #A80036; stroke-width: 1.0499999821186066;" x1="202.65" x2="273.35" y1="372.4" y2="372.4"/><rect fill="#FEFECE" filter="url(#f1)" height="33.6" style="stroke: #A80036; stroke-width: 1.0499999821186066;" width="83.3" x="298.55" y="344.4"/><ellipse cx="309.05" cy="355.6" fill="#ADD1B2" rx="7.7" ry="7.7" style="stroke: #A80036; stroke-width: 0.699999988079071;"/><path d="M310.45,353.15 Q310.5922,352.8 310.7562,352.625 Q310.9203,352.45 311.1062,352.45 Q311.4344,352.45 311.6422,352.6469 Q311.85,352.8437 311.85,353.3031 L311.85,354.3969 Q311.85,354.8562 311.6531,355.0531 Q311.4562,355.25 311.15,355.25 Q310.8766,355.25 310.7016,355.1297 Q310.5266,355.0094 310.45,354.6922 Q310.4172,354.4734 310.2969,354.3531 Q310.0781,354.1234 309.6844,353.9867 Q309.2906,353.85 308.8969,353.85 Q308.4047,353.85 307.9945,354.0469 Q307.5844,354.2437 307.2672,354.6812 Q306.95,355.1187 306.95,355.7203 L306.95,356.3656 Q306.95,357.0875 307.5406,357.5687 Q308.1312,358.05 309.1812,358.05 Q309.8047,358.05 310.2422,357.9078 Q310.4937,357.8312 310.7781,357.5797 Q310.9641,357.4375 311.0625,357.3937 Q311.1609,357.35 311.2812,357.35 Q311.5109,357.35 311.6805,357.5305 Q311.85,357.7109 311.85,357.9625 Q311.85,358.2031 311.6094,358.4875 Q311.2594,358.9031 310.7016,359.1328 Q309.9687,359.45 309.0719,359.45 Q308.0219,359.45 307.1797,359.0344 Q306.5016,358.7062 306.0258,357.9953 Q305.55,357.2844 305.55,356.4422 L305.55,355.6766 Q305.55,354.8016 305.9711,354.0359 Q306.3922,353.2703 307.1305,352.8602 Q307.8687,352.45 308.7,352.45 Q309.2031,352.45 309.6406,352.625 Q310.0781,352.8 310.45,353.15 Z "/><text fill="#000000" font-family="sans-serif" font-size="8.4" lengthAdjust="spacingAndGlyphs" textLength="60.9" x="318.85" y="359.0371">BelongsToField</text><line style="stroke: #A80036; stroke-width: 1.0499999821186066;" x1="299.25" x2="381.15" y1="366.8" y2="366.8"/><line style="stroke: #A80036; stroke-width: 1.0499999821186066;" x1="299.25" x2="381.15" y1="372.4" y2="372.4"/><rect fill="#FEFECE" filter="url(#f1)" height="33.6" style="stroke: #A80036; stroke-width: 1.0499999821186066;" width="74.2" x="747.6" y="193.2"/><ellipse cx="758.1" cy="204.4" fill="#ADD1B2" rx="7.7" ry="7.7" style="stroke: #A80036; stroke-width: 0.699999988079071;"/><path d="M759.5,201.95 Q759.6422,201.6 759.8062,201.425 Q759.9703,201.25 760.1562,201.25 Q760.4844,201.25 760.6922,201.4469 Q760.9,201.6437 760.9,202.1031 L760.9,203.1969 Q760.9,203.6562 760.7031,203.8531 Q760.5062,204.05 760.2,204.05 Q759.9265,204.05 759.7515,203.9297 Q759.5765,203.8094 759.5,203.4922 Q759.4672,203.2734 759.3469,203.1531 Q759.1281,202.9234 758.7344,202.7867 Q758.3406,202.65 757.9469,202.65 Q757.4547,202.65 757.0445,202.8469 Q756.6344,203.0437 756.3172,203.4812 Q756,203.9187 756,204.5203 L756,205.1656 Q756,205.8875 756.5906,206.3687 Q757.1812,206.85 758.2312,206.85 Q758.8547,206.85 759.2922,206.7078 Q759.5437,206.6312 759.8281,206.3797 Q760.014,206.2375 760.1125,206.1937 Q760.2109,206.15 760.3312,206.15 Q760.5609,206.15 760.7305,206.3305 Q760.9,206.5109 760.9,206.7625 Q760.9,207.0031 760.6594,207.2875 Q760.3094,207.7031 759.7515,207.9328 Q759.0187,208.25 758.1219,208.25 Q757.0719,208.25 756.2297,207.8344 Q755.5515,207.5062 755.0758,206.7953 Q754.6,206.0844 754.6,205.2422 L754.6,204.4766 Q754.6,203.6016 755.0211,202.8359 Q755.4422,202.0703 756.1805,201.6602 Q756.9187,201.25 757.75,201.25 Q758.2531,201.25 758.6906,201.425 Q759.1281,201.6 759.5,201.95 Z "/><text fill="#000000" font-family="sans-serif" font-size="8.4" lengthAdjust="spacingAndGlyphs" textLength="51.8" x="767.9" y="207.8371">LocationField</text><line style="stroke: #A80036; stroke-width: 1.0499999821186066;" x1="748.3" x2="821.1" y1="215.6" y2="215.6"/><line style="stroke: #A80036; stroke-width: 1.0499999821186066;" x1="748.3" x2="821.1" y1="221.2" y2="221.2"/><rect fill="#FEFECE" filter="url(#f1)" height="33.6" style="stroke: #A80036; stroke-width: 1.0499999821186066;" width="83.3" x="846.65" y="193.2"/><ellipse cx="857.15" cy="204.4" fill="#ADD1B2" rx="7.7" ry="7.7" style="stroke: #A80036; stroke-width: 0.699999988079071;"/><path d="M858.55,201.95 Q858.6922,201.6 858.8562,201.425 Q859.0203,201.25 859.2062,201.25 Q859.5344,201.25 859.7422,201.4469 Q859.95,201.6437 859.95,202.1031 L859.95,203.1969 Q859.95,203.6562 859.7531,203.8531 Q859.5562,204.05 859.25,204.05 Q858.9765,204.05 858.8015,203.9297 Q858.6265,203.8094 858.55,203.4922 Q858.5172,203.2734 858.3969,203.1531 Q858.1781,202.9234 857.7844,202.7867 Q857.3906,202.65 856.9969,202.65 Q856.5047,202.65 856.0945,202.8469 Q855.6844,203.0437 855.3672,203.4812 Q855.05,203.9187 855.05,204.5203 L855.05,205.1656 Q855.05,205.8875 855.6406,206.3687 Q856.2312,206.85 857.2812,206.85 Q857.9047,206.85 858.3422,206.7078 Q858.5937,206.6312 858.8781,206.3797 Q859.064,206.2375 859.1625,206.1937 Q859.2609,206.15 859.3812,206.15 Q859.6109,206.15 859.7805,206.3305 Q859.95,206.5109 859.95,206.7625 Q859.95,207.0031 859.7094,207.2875 Q859.3594,207.7031 858.8015,207.9328 Q858.0687,208.25 857.1719,208.25 Q856.1219,208.25 855.2797,207.8344 Q854.6015,207.5062 854.1258,206.7953 Q853.65,206.0844 853.65,205.2422 L853.65,204.4766 Q853.65,203.6016 854.0711,202.8359 Q854.4922,202.0703 855.2305,201.6602 Q855.9687,201.25 856.8,201.25 Q857.3031,201.25 857.7406,201.425 Q858.1781,201.6 858.55,201.95 Z "/><text fill="#000000" font-family="sans-serif" font-size="8.4" lengthAdjust="spacingAndGlyphs" textLength="60.9" x="866.95" y="207.8371">OrientationField</text><line style="stroke: #A80036; stroke-width: 1.0499999821186066;" x1="847.35" x2="929.25" y1="215.6" y2="215.6"/><line style="stroke: #A80036; stroke-width: 1.0499999821186066;" x1="847.35" x2="929.25" y1="221.2" y2="221.2"/><rect fill="#FEFECE" filter="url(#f1)" height="33.6" style="stroke: #A80036; stroke-width: 1.0499999821186066;" width="72.8" x="954.8" y="193.2"/><ellipse cx="965.3" cy="204.4" fill="#ADD1B2" rx="7.7" ry="7.7" style="stroke: #A80036; stroke-width: 0.699999988079071;"/><path d="M966.7,201.95 Q966.8422,201.6 967.0062,201.425 Q967.1703,201.25 967.3562,201.25 Q967.6844,201.25 967.8922,201.4469 Q968.1,201.6437 968.1,202.1031 L968.1,203.1969 Q968.1,203.6562 967.9031,203.8531 Q967.7062,204.05 967.4,204.05 Q967.1265,204.05 966.9515,203.9297 Q966.7765,203.8094 966.7,203.4922 Q966.6672,203.2734 966.5469,203.1531 Q966.3281,202.9234 965.9344,202.7867 Q965.5406,202.65 965.1469,202.65 Q964.6547,202.65 964.2445,202.8469 Q963.8344,203.0437 963.5172,203.4812 Q963.2,203.9187 963.2,204.5203 L963.2,205.1656 Q963.2,205.8875 963.7906,206.3687 Q964.3812,206.85 965.4312,206.85 Q966.0547,206.85 966.4922,206.7078 Q966.7437,206.6312 967.0281,206.3797 Q967.214,206.2375 967.3125,206.1937 Q967.4109,206.15 967.5312,206.15 Q967.7609,206.15 967.9305,206.3305 Q968.1,206.5109 968.1,206.7625 Q968.1,207.0031 967.8594,207.2875 Q967.5094,207.7031 966.9515,207.9328 Q966.2187,208.25 965.3219,208.25 Q964.2719,208.25 963.4297,207.8344 Q962.7515,207.5062 962.2758,206.7953 Q961.8,206.0844 961.8,205.2422 L961.8,204.4766 Q961.8,203.6016 962.2211,202.8359 Q962.6422,202.0703 963.3805,201.6602 Q964.1187,201.25 964.95,201.25 Q965.4531,201.25 965.8906,201.425 Q966.3281,201.6 966.7,201.95 Z "/><text fill="#000000" font-family="sans-serif" font-size="8.4" lengthAdjust="spacingAndGlyphs" textLength="50.4" x="975.1" y="207.8371">MultiListField</text><line style="stroke: #A80036; stroke-width: 1.0499999821186066;" x1="955.5" x2="1026.9" y1="215.6" y2="215.6"/><line style="stroke: #A80036; stroke-width: 1.0499999821186066;" x1="955.5" x2="1026.9" y1="221.2" y2="221.2"/><rect fill="#FEFECE" filter="url(#f1)" height="33.6" style="stroke: #A80036; stroke-width: 1.0499999821186066;" width="49.7" x="556.15" y="117.6"/><ellipse cx="566.65" cy="128.8" fill="#ADD1B2" rx="7.7" ry="7.7" style="stroke: #A80036; stroke-width: 0.699999988079071;"/><path d="M568.05,126.35 Q568.1922,126 568.3562,125.825 Q568.5203,125.65 568.7062,125.65 Q569.0344,125.65 569.2422,125.8469 Q569.45,126.0437 569.45,126.5031 L569.45,127.5969 Q569.45,128.0562 569.2531,128.2531 Q569.0562,128.45 568.75,128.45 Q568.4766,128.45 568.3016,128.3297 Q568.1266,128.2094 568.05,127.8922 Q568.0172,127.6734 567.8969,127.5531 Q567.6781,127.3234 567.2844,127.1867 Q566.8906,127.05 566.4969,127.05 Q566.0047,127.05 565.5945,127.2469 Q565.1844,127.4437 564.8672,127.8812 Q564.55,128.3187 564.55,128.9203 L564.55,129.5656 Q564.55,130.2875 565.1406,130.7687 Q565.7312,131.25 566.7812,131.25 Q567.4047,131.25 567.8422,131.1078 Q568.0937,131.0312 568.3781,130.7797 Q568.5641,130.6375 568.6625,130.5937 Q568.7609,130.55 568.8812,130.55 Q569.1109,130.55 569.2805,130.7305 Q569.45,130.9109 569.45,131.1625 Q569.45,131.4031 569.2094,131.6875 Q568.8594,132.1031 568.3016,132.3328 Q567.5687,132.65 566.6719,132.65 Q565.6219,132.65 564.7797,132.2344 Q564.1016,131.9062 563.6258,131.1953 Q563.15,130.4844 563.15,129.6422 L563.15,128.8766 Q563.15,128.0016 563.5711,127.2359 Q563.9922,126.4703 564.7305,126.0602 Q565.4687,125.65 566.3,125.65 Q566.8031,125.65 567.2406,125.825 Q567.6781,126 568.05,126.35 Z "/><text fill="#000000" font-family="sans-serif" font-size="8.4" lengthAdjust="spacingAndGlyphs" textLength="27.3" x="576.45" y="132.2371">Trigger</text><line style="stroke: #A80036; stroke-width: 1.0499999821186066;" x1="556.85" x2="605.15" y1="140" y2="140"/><line style="stroke: #A80036; stroke-width: 1.0499999821186066;" x1="556.85" x2="605.15" y1="145.6" y2="145.6"/><path d="M532.4312,88.2658 C527.7748,98.1372 522.7271,108.8388 518.7007,117.3746 " fill="none" style="stroke: #A80036; stroke-width: 0.699999988079071;"/><polygon fill="none" points="528.0009,86.1721,538.4057,75.6,536.8643,90.3525,528.0009,86.1721" style="stroke: #A80036; stroke-width: 0.699999988079071;"/><path d="M476.2737,140.9373 C427.9758,149.5816 338.1637,167.5737 264.6,193.2 C260.3755,194.6714 255.9753,196.497 251.7907,198.3856 " fill="none" style="stroke: #A80036; stroke-width: 0.699999988079071;"/><polygon fill="none" points="475.51,136.0961,490.1449,138.5083,477.1998,145.7498,475.51,136.0961" style="stroke: #A80036; stroke-width: 0.699999988079071;"/><path d="M476.9597,148.0794 C443.3576,160.8915 391.9895,180.4782 356.4449,194.0309 " fill="none" style="stroke: #A80036; stroke-width: 0.699999988079071;"/><polygon fill="none" points="475.3476,143.4503,490.1743,143.0408,478.8385,152.607,475.3476,143.4503" style="stroke: #A80036; stroke-width: 0.699999988079071;"/><path d="M479.4391,159.8814 C465.5609,170.7783 449.6457,183.2747 437.2914,192.9746 " fill="none" style="stroke: #A80036; stroke-width: 0.699999988079071;"/><polygon fill="none" points="476.4578,155.9922,490.4949,151.2,482.51,163.6999,476.4578,155.9922" style="stroke: #A80036; stroke-width: 0.699999988079071;"/><path d="M511,165.2168 C511,174.7053 511,184.8266 511,192.9746 " fill="none" style="stroke: #A80036; stroke-width: 0.699999988079071;"/><polygon fill="none" points="506.1,165.2,511,151.2,515.9,165.2,506.1,165.2" style="stroke: #A80036; stroke-width: 0.699999988079071;"/><path d="M541.5564,160.2083 C554.7234,171.0275 569.7454,183.3713 581.4326,192.9746 " fill="none" style="stroke: #A80036; stroke-width: 0.699999988079071;"/><polygon fill="none" points="538.2993,163.8742,530.5937,151.2,544.5216,156.3023,538.2993,163.8742" style="stroke: #A80036; stroke-width: 0.699999988079071;"/><path d="M544.6602,151.2798 C589.8781,171.1367 629.7844,186.6522 657.0704,196.9793 " fill="none" style="stroke: #A80036; stroke-width: 0.699999988079071;"/><polygon fill="none" points="542.5833,155.7192,531.7711,145.565,546.5558,146.7606,542.5833,155.7192" style="stroke: #A80036; stroke-width: 0.699999988079071;"/><path d="M476.2905,137.5857 C405.2909,143.206 238.707,159.1394 102.9,193.2 C99.0262,194.1716 95.0194,195.3609 91.0735,196.6496 " fill="none" style="stroke: #A80036; stroke-width: 0.699999988079071;"/><polygon fill="none" points="475.9923,132.6941,490.3255,136.5126,476.7399,142.4661,475.9923,132.6941" style="stroke: #A80036; stroke-width: 0.699999988079071;"/><path d="M87.0583,236.3011 C98.868,247.0013 112.2415,259.1169 122.6806,268.5746 " fill="none" style="stroke: #A80036; stroke-width: 0.699999988079071;"/><polygon fill="none" points="83.6563,239.8312,76.5709,226.8,90.2363,232.5687,83.6563,239.8312" style="stroke: #A80036; stroke-width: 0.699999988079071;"/><path d="M58.5159,240.8168 C58.4263,250.3053 58.3309,260.4266 58.254,268.5746 " fill="none" style="stroke: #A80036; stroke-width: 0.699999988079071;"/><polygon fill="none" points="53.6162,240.7531,58.6481,226.8,63.4157,240.8462,53.6162,240.7531" style="stroke: #A80036; stroke-width: 0.699999988079071;"/><path d="M58.1,316.4168 C58.1,325.9053 58.1,336.0267 58.1,344.1749 " fill="none" style="stroke: #A80036; stroke-width: 0.699999988079071;"/><polygon fill="none" points="53.2001,316.4,58.1,302.4,63.0001,316.4,53.2001,316.4" style="stroke: #A80036; stroke-width: 0.699999988079071;"/><path d="M87.9025,311.5728 C100.6145,322.3521 115.0814,334.6202 126.3486,344.1749 " fill="none" style="stroke: #A80036; stroke-width: 0.699999988079071;"/><polygon fill="none" points="84.595,315.1925,77.0861,302.4,90.9328,307.7179,84.595,315.1925" style="stroke: #A80036; stroke-width: 0.699999988079071;"/><path d="M476.2583,139.8047 C417.9196,148.0864 296.8224,166.915 196.7,193.2 C192.6197,194.271 188.3833,195.5219 184.2001,196.8449 " fill="none" style="stroke: #A80036; stroke-width: 0.699999988079071;"/><polygon fill="none" points="475.6304,134.9453,490.1736,137.8615,476.9856,144.6508,475.6304,134.9453" style="stroke: #A80036; stroke-width: 0.699999988079071;"/><path d="M197.3405,231.0196 C228.6312,244.3938 268.5459,261.4542 294.9856,272.755 " fill="none" style="stroke: #A80036; stroke-width: 0.699999988079071;"/><polygon fill="none" points="195.2531,235.4562,184.3051,225.4483,199.1045,226.4451,195.2531,235.4562" style="stroke: #A80036; stroke-width: 0.699999988079071;"/><path d="M179.0761,236.1366 C191.4374,246.8767 205.4696,259.0686 216.4106,268.5746 " fill="none" style="stroke: #A80036; stroke-width: 0.699999988079071;"/><polygon fill="none" points="175.6853,239.6814,168.3304,226.8,182.1127,232.2838,175.6853,239.6814" style="stroke: #A80036; stroke-width: 0.699999988079071;"/><path d="M236.3368,316.4168 C236.6945,325.9053 237.0767,336.0267 237.384,344.1749 " fill="none" style="stroke: #A80036; stroke-width: 0.699999988079071;"/><polygon fill="none" points="231.4389,316.575,235.8076,302.4,241.2319,316.2054,231.4389,316.575" style="stroke: #A80036; stroke-width: 0.699999988079071;"/><path d="M269.6176,310.6215 C285.257,321.6731 303.3352,334.4487 317.2799,344.3032 " fill="none" style="stroke: #A80036; stroke-width: 0.699999988079071;"/><polygon fill="none" points="266.5887,314.4813,257.9836,302.4,272.2447,306.4782,266.5887,314.4813" style="stroke: #A80036; stroke-width: 0.699999988079071;"/><path d="M545.111,150.8171 C628.9066,179.0481 655.627,171.339 735.7,193.2 C739.501,194.2374 743.442,195.3945 747.362,196.5985 " fill="none" style="stroke: #A80036; stroke-width: 0.699999988079071;"/><polygon fill="none" points="543.3596,155.3958,531.7403,146.1761,546.5726,146.1376,543.3596,155.3958" style="stroke: #A80036; stroke-width: 0.699999988079071;"/><path d="M545.1698,150.5602 C671.244,188.0753 711.298,166.0687 834.4,193.2 C838.313,194.0617 842.352,195.0606 846.377,196.1302 " fill="none" style="stroke: #A80036; stroke-width: 0.699999988079071;"/><polygon fill="none" points="543.6081,155.2061,531.6619,146.4141,546.4837,145.838,543.6081,155.2061" style="stroke: #A80036; stroke-width: 0.699999988079071;"/><path d="M545.5065,150.5336 C717.745,198.1973 772.576,156.8217 942.2,193.2 C946.316,194.0827 950.572,195.1838 954.779,196.3934 " fill="none" style="stroke: #A80036; stroke-width: 0.699999988079071;"/><polygon fill="none" points="543.9203,155.1767,531.8019,146.6241,546.609,145.7526,543.9203,155.1767" style="stroke: #A80036; stroke-width: 0.699999988079071;"/><path d="M559.5688,88.2658 C564.2252,98.1372 569.2729,108.8388 573.2993,117.3746 " fill="none" style="stroke: #A80036; stroke-width: 0.699999988079071;"/><polygon fill="none" points="555.1357,90.3525,553.5943,75.6,563.9991,86.1721,555.1357,90.3525" style="stroke: #A80036; stroke-width: 0.699999988079071;"/></g></svg>