<?xml version="1.0" encoding="UTF-8" standalone="yes"?><svg xmlns="http://www.w3.org/2000/svg" xmlns:xlink="http://www.w3.org/1999/xlink" height="389px" style="width:1495px;height:389px;" version="1.1" viewBox="0 0 1495 389" width="1495px"><defs><filter height="300%" id="f1" width="300%" x="-1" y="-1"><feGaussianBlur result="blurOut" stdDeviation="2.0"/><feColorMatrix in="blurOut" result="blurOut2" type="matrix" values="0 0 0 0 0 0 0 0 0 0 0 0 0 0 0 0 0 0 .4 0"/><feOffset dx="4.0" dy="4.0" in="blurOut2" result="blurOut3"/><feBlend in="SourceGraphic" in2="blurOut3" mode="normal"/></filter></defs><g><rect fill="#FEFECE" filter="url(#f1)" height="48" style="stroke: #A80036; stroke-width: 1.5;" width="72" x="1000.5" y="8"/><ellipse cx="1015.5" cy="24" fill="#A9DCDF" rx="11" ry="11" style="stroke: #A80036; stroke-width: 1.0;"/><path d="M1017.25,25.5 L1013.9531,25.5 L1013.5156,26.5 L1013.5156,26.5 L1013.9844,26.5 L1014.5,27.125 L1014.5,27.5 L1014.5,27.875 L1013.9844,28.5 L1013.5156,28.5 L1011.625,28.5 L1011.0156,28.5 L1010.5,27.875 L1010.5,27.5 L1010.5,27.125 L1011.0156,26.5 L1011.625,26.5 L1013.9375,20.5 L1013.0625,20.5 L1012.0156,20.5 L1011.5,19.875 L1011.5,19.5 L1011.5,19.125 L1012.0156,18.5 L1013.0625,18.5 L1016.7344,18.5 L1019.4219,26.5 L1019.9844,26.5 L1019.9844,26.5 L1020.5,27.125 L1020.5,27.5 L1020.5,27.875 L1019.9844,28.5 L1019.4219,28.5 L1017.5313,28.5 L1017.0156,28.5 L1016.5,27.875 L1016.5,27.5 L1016.5,27.125 L1017.0156,26.5 L1017.5313,26.5 L1017.5313,26.5 L1017.25,25.5 Z M1016.7031,23.5 L1015.5,19.9219 L1014.4688,23.5 L1016.7031,23.5 Z "/><text fill="#000000" font-family="sans-serif" font-size="12" font-style="italic" lengthAdjust="spacingAndGlyphs" textLength="40" x="1029.5" y="28.9102">FieldUI</text><line style="stroke: #A80036; stroke-width: 1.5;" x1="1001.5" x2="1071.5" y1="40" y2="40"/><line style="stroke: #A80036; stroke-width: 1.5;" x1="1001.5" x2="1071.5" y1="48" y2="48"/><rect fill="#FEFECE" filter="url(#f1)" height="48" style="stroke: #A80036; stroke-width: 1.5;" width="160" x="332.5" y="116"/><ellipse cx="347.5" cy="132" fill="#A9DCDF" rx="11" ry="11" style="stroke: #A80036; stroke-width: 1.0;"/><path d="M349.25,133.5 L345.9531,133.5 L345.5156,134.5 L345.5156,134.5 L345.9844,134.5 L346.5,135.125 L346.5,135.5 L346.5,135.875 L345.9844,136.5 L345.5156,136.5 L343.625,136.5 L343.0156,136.5 L342.5,135.875 L342.5,135.5 L342.5,135.125 L343.0156,134.5 L343.625,134.5 L345.9375,128.5 L345.0625,128.5 L344.0156,128.5 L343.5,127.875 L343.5,127.5 L343.5,127.125 L344.0156,126.5 L345.0625,126.5 L348.7344,126.5 L351.4219,134.5 L351.9844,134.5 L351.9844,134.5 L352.5,135.125 L352.5,135.5 L352.5,135.875 L351.9844,136.5 L351.4219,136.5 L349.5313,136.5 L349.0156,136.5 L348.5,135.875 L348.5,135.5 L348.5,135.125 L349.0156,134.5 L349.5313,134.5 L349.5313,134.5 L349.25,133.5 Z M348.7031,131.5 L347.5,127.9219 L346.4688,131.5 L348.7031,131.5 Z "/><text fill="#000000" font-family="sans-serif" font-size="12" font-style="italic" lengthAdjust="spacingAndGlyphs" textLength="128" x="361.5" y="136.9102">NonSelfLeavingFieldUI</text><line style="stroke: #A80036; stroke-width: 1.5;" x1="333.5" x2="491.5" y1="148" y2="148"/><line style="stroke: #A80036; stroke-width: 1.5;" x1="333.5" x2="491.5" y1="156" y2="156"/><rect fill="#FEFECE" filter="url(#f1)" height="48" style="stroke: #A80036; stroke-width: 1.5;" width="137" x="968" y="116"/><ellipse cx="983" cy="132" fill="#A9DCDF" rx="11" ry="11" style="stroke: #A80036; stroke-width: 1.0;"/><path d="M984.75,133.5 L981.4531,133.5 L981.0156,134.5 L981.0156,134.5 L981.4844,134.5 L982,135.125 L982,135.5 L982,135.875 L981.4844,136.5 L981.0156,136.5 L979.125,136.5 L978.5156,136.5 L978,135.875 L978,135.5 L978,135.125 L978.5156,134.5 L979.125,134.5 L981.4375,128.5 L980.5625,128.5 L979.5156,128.5 L979,127.875 L979,127.5 L979,127.125 L979.5156,126.5 L980.5625,126.5 L984.2344,126.5 L986.9219,134.5 L987.4844,134.5 L987.4844,134.5 L988,135.125 L988,135.5 L988,135.875 L987.4844,136.5 L986.9219,136.5 L985.0313,136.5 L984.5156,136.5 L984,135.875 L984,135.5 L984,135.125 L984.5156,134.5 L985.0313,134.5 L985.0313,134.5 L984.75,133.5 Z M984.2031,131.5 L983,127.9219 L981.9688,131.5 L984.2031,131.5 Z "/><text fill="#000000" font-family="sans-serif" font-size="12" font-style="italic" lengthAdjust="spacingAndGlyphs" textLength="105" x="997" y="136.9102">SelfLeavingFieldUI</text><line style="stroke: #A80036; stroke-width: 1.5;" x1="969" x2="1104" y1="148" y2="148"/><line style="stroke: #A80036; stroke-width: 1.5;" x1="969" x2="1104" y1="156" y2="156"/><rect fill="#FEFECE" filter="url(#f1)" height="48" style="stroke: #A80036; stroke-width: 1.5;" width="74" x="1265.5" y="116"/><ellipse cx="1280.5" cy="132" fill="#A9DCDF" rx="11" ry="11" style="stroke: #A80036; stroke-width: 1.0;"/><path d="M1282.25,133.5 L1278.9531,133.5 L1278.5156,134.5 L1278.5156,134.5 L1278.9844,134.5 L1279.5,135.125 L1279.5,135.5 L1279.5,135.875 L1278.9844,136.5 L1278.5156,136.5 L1276.625,136.5 L1276.0156,136.5 L1275.5,135.875 L1275.5,135.5 L1275.5,135.125 L1276.0156,134.5 L1276.625,134.5 L1278.9375,128.5 L1278.0625,128.5 L1277.0156,128.5 L1276.5,127.875 L1276.5,127.5 L1276.5,127.125 L1277.0156,126.5 L1278.0625,126.5 L1281.7344,126.5 L1284.4219,134.5 L1284.9844,134.5 L1284.9844,134.5 L1285.5,135.125 L1285.5,135.5 L1285.5,135.875 L1284.9844,136.5 L1284.4219,136.5 L1282.5313,136.5 L1282.0156,136.5 L1281.5,135.875 L1281.5,135.5 L1281.5,135.125 L1282.0156,134.5 L1282.5313,134.5 L1282.5313,134.5 L1282.25,133.5 Z M1281.7031,131.5 L1280.5,127.9219 L1279.4688,131.5 L1281.7031,131.5 Z "/><text fill="#000000" font-family="sans-serif" font-size="12" font-style="italic" lengthAdjust="spacingAndGlyphs" textLength="42" x="1294.5" y="136.9102">PageUI</text><line style="stroke: #A80036; stroke-width: 1.5;" x1="1266.5" x2="1338.5" y1="148" y2="148"/><line style="stroke: #A80036; stroke-width: 1.5;" x1="1266.5" x2="1338.5" y1="156" y2="156"/><rect fill="#FEFECE" filter="url(#f1)" height="48" style="stroke: #A80036; stroke-width: 1.5;" width="102" x="55.5" y="224"/><ellipse cx="70.5" cy="240" fill="#A9DCDF" rx="11" ry="11" style="stroke: #A80036; stroke-width: 1.0;"/><path d="M72.25,241.5 L68.9531,241.5 L68.5156,242.5 L68.5156,242.5 L68.9844,242.5 L69.5,243.125 L69.5,243.5 L69.5,243.875 L68.9844,244.5 L68.5156,244.5 L66.625,244.5 L66.0156,244.5 L65.5,243.875 L65.5,243.5 L65.5,243.125 L66.0156,242.5 L66.625,242.5 L68.9375,236.5 L68.0625,236.5 L67.0156,236.5 L66.5,235.875 L66.5,235.5 L66.5,235.125 L67.0156,234.5 L68.0625,234.5 L71.7344,234.5 L74.4219,242.5 L74.9844,242.5 L74.9844,242.5 L75.5,243.125 L75.5,243.5 L75.5,243.875 L74.9844,244.5 L74.4219,244.5 L72.5313,244.5 L72.0156,244.5 L71.5,243.875 L71.5,243.5 L71.5,243.125 L72.0156,242.5 L72.5313,242.5 L72.5313,242.5 L72.25,241.5 Z M71.7031,239.5 L70.5,235.9219 L69.4688,239.5 L71.7031,239.5 Z "/><text fill="#000000" font-family="sans-serif" font-size="12" font-style="italic" lengthAdjust="spacingAndGlyphs" textLength="70" x="84.5" y="244.9102">CheckBoxUI</text><line style="stroke: #A80036; stroke-width: 1.5;" x1="56.5" x2="156.5" y1="256" y2="256"/><line style="stroke: #A80036; stroke-width: 1.5;" x1="56.5" x2="156.5" y1="264" y2="264"/><rect fill="#FEFECE" filter="url(#f1)" height="48" style="stroke: #A80036; stroke-width: 1.5;" width="89" x="223" y="224"/><ellipse cx="238" cy="240" fill="#A9DCDF" rx="11" ry="11" style="stroke: #A80036; stroke-width: 1.0;"/><path d="M239.75,241.5 L236.4531,241.5 L236.0156,242.5 L236.0156,242.5 L236.4844,242.5 L237,243.125 L237,243.5 L237,243.875 L236.4844,244.5 L236.0156,244.5 L234.125,244.5 L233.5156,244.5 L233,243.875 L233,243.5 L233,243.125 L233.5156,242.5 L234.125,242.5 L236.4375,236.5 L235.5625,236.5 L234.5156,236.5 L234,235.875 L234,235.5 L234,235.125 L234.5156,234.5 L235.5625,234.5 L239.2344,234.5 L241.9219,242.5 L242.4844,242.5 L242.4844,242.5 L243,243.125 L243,243.5 L243,243.875 L242.4844,244.5 L241.9219,244.5 L240.0313,244.5 L239.5156,244.5 L239,243.875 L239,243.5 L239,243.125 L239.5156,242.5 L240.0313,242.5 L240.0313,242.5 L239.75,241.5 Z M239.2031,239.5 L238,235.9219 L236.9688,239.5 L239.2031,239.5 Z "/><text fill="#000000" font-family="sans-serif" font-size="12" font-style="italic" lengthAdjust="spacingAndGlyphs" textLength="57" x="252" y="244.9102">MultiListUI</text><line style="stroke: #A80036; stroke-width: 1.5;" x1="224" x2="311" y1="256" y2="256"/><line style="stroke: #A80036; stroke-width: 1.5;" x1="224" x2="311" y1="264" y2="264"/><rect fill="#FEFECE" filter="url(#f1)" height="48" style="stroke: #A80036; stroke-width: 1.5;" width="89" x="368" y="224"/><ellipse cx="383" cy="240" fill="#A9DCDF" rx="11" ry="11" style="stroke: #A80036; stroke-width: 1.0;"/><path d="M384.75,241.5 L381.4531,241.5 L381.0156,242.5 L381.0156,242.5 L381.4844,242.5 L382,243.125 L382,243.5 L382,243.875 L381.4844,244.5 L381.0156,244.5 L379.125,244.5 L378.5156,244.5 L378,243.875 L378,243.5 L378,243.125 L378.5156,242.5 L379.125,242.5 L381.4375,236.5 L380.5625,236.5 L379.5156,236.5 L379,235.875 L379,235.5 L379,235.125 L379.5156,234.5 L380.5625,234.5 L384.2344,234.5 L386.9219,242.5 L387.4844,242.5 L387.4844,242.5 L388,243.125 L388,243.5 L388,243.875 L387.4844,244.5 L386.9219,244.5 L385.0313,244.5 L384.5156,244.5 L384,243.875 L384,243.5 L384,243.125 L384.5156,242.5 L385.0313,242.5 L385.0313,242.5 L384.75,241.5 Z M384.2031,239.5 L383,235.9219 L381.9688,239.5 L384.2031,239.5 Z "/><text fill="#000000" font-family="sans-serif" font-size="12" font-style="italic" lengthAdjust="spacingAndGlyphs" textLength="57" x="397" y="244.9102">TextBoxUI</text><line style="stroke: #A80036; stroke-width: 1.5;" x1="369" x2="456" y1="256" y2="256"/><line style="stroke: #A80036; stroke-width: 1.5;" x1="369" x2="456" y1="264" y2="264"/><rect fill="#FEFECE" filter="url(#f1)" height="48" style="stroke: #A80036; stroke-width: 1.5;" width="77" x="512" y="224"/><ellipse cx="527" cy="240" fill="#A9DCDF" rx="11" ry="11" style="stroke: #A80036; stroke-width: 1.0;"/><path d="M528.75,241.5 L525.4531,241.5 L525.0156,242.5 L525.0156,242.5 L525.4844,242.5 L526,243.125 L526,243.5 L526,243.875 L525.4844,244.5 L525.0156,244.5 L523.125,244.5 L522.5156,244.5 L522,243.875 L522,243.5 L522,243.125 L522.5156,242.5 L523.125,242.5 L525.4375,236.5 L524.5625,236.5 L523.5156,236.5 L523,235.875 L523,235.5 L523,235.125 L523.5156,234.5 L524.5625,234.5 L528.2344,234.5 L530.9219,242.5 L531.4844,242.5 L531.4844,242.5 L532,243.125 L532,243.5 L532,243.875 L531.4844,244.5 L530.9219,244.5 L529.0313,244.5 L528.5156,244.5 L528,243.875 L528,243.5 L528,243.125 L528.5156,242.5 L529.0313,242.5 L529.0313,242.5 L528.75,241.5 Z M528.2031,239.5 L527,235.9219 L525.9688,239.5 L528.2031,239.5 Z "/><text fill="#000000" font-family="sans-serif" font-size="12" font-style="italic" lengthAdjust="spacingAndGlyphs" textLength="45" x="541" y="244.9102">LabelUI</text><line style="stroke: #A80036; stroke-width: 1.5;" x1="513" x2="588" y1="256" y2="256"/><line style="stroke: #A80036; stroke-width: 1.5;" x1="513" x2="588" y1="264" y2="264"/><rect fill="#FEFECE" filter="url(#f1)" height="48" style="stroke: #A80036; stroke-width: 1.5;" width="141" x="6" y="332"/><ellipse cx="21" cy="348" fill="#ADD1B2" rx="11" ry="11" style="stroke: #A80036; stroke-width: 1.0;"/><path d="M23,344.5 Q23.2031,344 23.4375,343.75 Q23.6719,343.5 23.9375,343.5 Q24.4063,343.5 24.7031,343.7813 Q25,344.0625 25,344.7188 L25,346.2813 Q25,346.9375 24.7188,347.2188 Q24.4375,347.5 24,347.5 Q23.6094,347.5 23.3594,347.3281 Q23.1094,347.1563 23,346.7031 Q22.9531,346.3906 22.7813,346.2188 Q22.4688,345.8906 21.9063,345.6953 Q21.3438,345.5 20.7813,345.5 Q20.0781,345.5 19.4922,345.7813 Q18.9063,346.0625 18.4531,346.6875 Q18,347.3125 18,348.1719 L18,349.0938 Q18,350.125 18.8438,350.8125 Q19.6875,351.5 21.1875,351.5 Q22.0781,351.5 22.7031,351.2969 Q23.0625,351.1875 23.4688,350.8281 Q23.7344,350.625 23.875,350.5625 Q24.0156,350.5 24.1875,350.5 Q24.5156,350.5 24.7578,350.7578 Q25,351.0156 25,351.375 Q25,351.7188 24.6563,352.125 Q24.1563,352.7188 23.3594,353.0469 Q22.3125,353.5 21.0313,353.5 Q19.5313,353.5 18.3281,352.9063 Q17.3594,352.4375 16.6797,351.4219 Q16,350.4063 16,349.2031 L16,348.1094 Q16,346.8594 16.6016,345.7656 Q17.2031,344.6719 18.2578,344.0859 Q19.3125,343.5 20.5,343.5 Q21.2188,343.5 21.8438,343.75 Q22.4688,344 23,344.5 Z "/><text fill="#000000" font-family="sans-serif" font-size="12" lengthAdjust="spacingAndGlyphs" textLength="109" x="35" y="352.9102">AndroidCheckBoxUI</text><line style="stroke: #A80036; stroke-width: 1.5;" x1="7" x2="146" y1="364" y2="364"/><line style="stroke: #A80036; stroke-width: 1.5;" x1="7" x2="146" y1="372" y2="372"/><rect fill="#FEFECE" filter="url(#f1)" height="48" style="stroke: #A80036; stroke-width: 1.5;" width="131" x="182" y="332"/><ellipse cx="197" cy="348" fill="#ADD1B2" rx="11" ry="11" style="stroke: #A80036; stroke-width: 1.0;"/><path d="M199,344.5 Q199.2031,344 199.4375,343.75 Q199.6719,343.5 199.9375,343.5 Q200.4063,343.5 200.7031,343.7813 Q201,344.0625 201,344.7188 L201,346.2813 Q201,346.9375 200.7188,347.2188 Q200.4375,347.5 200,347.5 Q199.6094,347.5 199.3594,347.3281 Q199.1094,347.1563 199,346.7031 Q198.9531,346.3906 198.7813,346.2188 Q198.4688,345.8906 197.9063,345.6953 Q197.3438,345.5 196.7813,345.5 Q196.0781,345.5 195.4922,345.7813 Q194.9063,346.0625 194.4531,346.6875 Q194,347.3125 194,348.1719 L194,349.0938 Q194,350.125 194.8438,350.8125 Q195.6875,351.5 197.1875,351.5 Q198.0781,351.5 198.7031,351.2969 Q199.0625,351.1875 199.4688,350.8281 Q199.7344,350.625 199.875,350.5625 Q200.0156,350.5 200.1875,350.5 Q200.5156,350.5 200.7578,350.7578 Q201,351.0156 201,351.375 Q201,351.7188 200.6563,352.125 Q200.1563,352.7188 199.3594,353.0469 Q198.3125,353.5 197.0313,353.5 Q195.5313,353.5 194.3281,352.9063 Q193.3594,352.4375 192.6797,351.4219 Q192,350.4063 192,349.2031 L192,348.1094 Q192,346.8594 192.6016,345.7656 Q193.2031,344.6719 194.2578,344.0859 Q195.3125,343.5 196.5,343.5 Q197.2188,343.5 197.8438,343.75 Q198.4688,344 199,344.5 Z "/><text fill="#000000" font-family="sans-serif" font-size="12" lengthAdjust="spacingAndGlyphs" textLength="99" x="211" y="352.9102">AndroidMultiListUI</text><line style="stroke: #A80036; stroke-width: 1.5;" x1="183" x2="312" y1="364" y2="364"/><line style="stroke: #A80036; stroke-width: 1.5;" x1="183" x2="312" y1="372" y2="372"/><rect fill="#FEFECE" filter="url(#f1)" height="48" style="stroke: #A80036; stroke-width: 1.5;" width="128" x="348.5" y="332"/><ellipse cx="363.5" cy="348" fill="#ADD1B2" rx="11" ry="11" style="stroke: #A80036; stroke-width: 1.0;"/><path d="M365.5,344.5 Q365.7031,344 365.9375,343.75 Q366.1719,343.5 366.4375,343.5 Q366.9063,343.5 367.2031,343.7813 Q367.5,344.0625 367.5,344.7188 L367.5,346.2813 Q367.5,346.9375 367.2188,347.2188 Q366.9375,347.5 366.5,347.5 Q366.1094,347.5 365.8594,347.3281 Q365.6094,347.1563 365.5,346.7031 Q365.4531,346.3906 365.2813,346.2188 Q364.9688,345.8906 364.4063,345.6953 Q363.8438,345.5 363.2813,345.5 Q362.5781,345.5 361.9922,345.7813 Q361.4063,346.0625 360.9531,346.6875 Q360.5,347.3125 360.5,348.1719 L360.5,349.0938 Q360.5,350.125 361.3438,350.8125 Q362.1875,351.5 363.6875,351.5 Q364.5781,351.5 365.2031,351.2969 Q365.5625,351.1875 365.9688,350.8281 Q366.2344,350.625 366.375,350.5625 Q366.5156,350.5 366.6875,350.5 Q367.0156,350.5 367.2578,350.7578 Q367.5,351.0156 367.5,351.375 Q367.5,351.7188 367.1563,352.125 Q366.6563,352.7188 365.8594,353.0469 Q364.8125,353.5 363.5313,353.5 Q362.0313,353.5 360.8281,352.9063 Q359.8594,352.4375 359.1797,351.4219 Q358.5,350.4063 358.5,349.2031 L358.5,348.1094 Q358.5,346.8594 359.1016,345.7656 Q359.7031,344.6719 360.7578,344.0859 Q361.8125,343.5 363,343.5 Q363.7188,343.5 364.3438,343.75 Q364.9688,344 365.5,344.5 Z "/><text fill="#000000" font-family="sans-serif" font-size="12" lengthAdjust="spacingAndGlyphs" textLength="96" x="377.5" y="352.9102">AndroidTextBoxUI</text><line style="stroke: #A80036; stroke-width: 1.5;" x1="349.5" x2="475.5" y1="364" y2="364"/><line style="stroke: #A80036; stroke-width: 1.5;" x1="349.5" x2="475.5" y1="372" y2="372"/><rect fill="#FEFECE" filter="url(#f1)" height="48" style="stroke: #A80036; stroke-width: 1.5;" width="117" x="512" y="332"/><ellipse cx="527" cy="348" fill="#ADD1B2" rx="11" ry="11" style="stroke: #A80036; stroke-width: 1.0;"/><path d="M529,344.5 Q529.2031,344 529.4375,343.75 Q529.6719,343.5 529.9375,343.5 Q530.4063,343.5 530.7031,343.7813 Q531,344.0625 531,344.7188 L531,346.2813 Q531,346.9375 530.7188,347.2188 Q530.4375,347.5 530,347.5 Q529.6094,347.5 529.3594,347.3281 Q529.1094,347.1563 529,346.7031 Q528.9531,346.3906 528.7813,346.2188 Q528.4688,345.8906 527.9063,345.6953 Q527.3438,345.5 526.7813,345.5 Q526.0781,345.5 525.4922,345.7813 Q524.9063,346.0625 524.4531,346.6875 Q524,347.3125 524,348.1719 L524,349.0938 Q524,350.125 524.8438,350.8125 Q525.6875,351.5 527.1875,351.5 Q528.0781,351.5 528.7031,351.2969 Q529.0625,351.1875 529.4688,350.8281 Q529.7344,350.625 529.875,350.5625 Q530.0156,350.5 530.1875,350.5 Q530.5156,350.5 530.7578,350.7578 Q531,351.0156 531,351.375 Q531,351.7188 530.6563,352.125 Q530.1563,352.7188 529.3594,353.0469 Q528.3125,353.5 527.0313,353.5 Q525.5313,353.5 524.3281,352.9063 Q523.3594,352.4375 522.6797,351.4219 Q522,350.4063 522,349.2031 L522,348.1094 Q522,346.8594 522.6016,345.7656 Q523.2031,344.6719 524.2578,344.0859 Q525.3125,343.5 526.5,343.5 Q527.2188,343.5 527.8438,343.75 Q528.4688,344 529,344.5 Z "/><text fill="#000000" font-family="sans-serif" font-size="12" lengthAdjust="spacingAndGlyphs" textLength="85" x="541" y="352.9102">AndroidLabelUI</text><line style="stroke: #A80036; stroke-width: 1.5;" x1="513" x2="628" y1="364" y2="364"/><line style="stroke: #A80036; stroke-width: 1.5;" x1="513" x2="628" y1="372" y2="372"/><rect fill="#FEFECE" filter="url(#f1)" height="48" style="stroke: #A80036; stroke-width: 1.5;" width="80" x="709.5" y="224"/><ellipse cx="724.5" cy="240" fill="#A9DCDF" rx="11" ry="11" style="stroke: #A80036; stroke-width: 1.0;"/><path d="M726.25,241.5 L722.9531,241.5 L722.5156,242.5 L722.5156,242.5 L722.9844,242.5 L723.5,243.125 L723.5,243.5 L723.5,243.875 L722.9844,244.5 L722.5156,244.5 L720.625,244.5 L720.0156,244.5 L719.5,243.875 L719.5,243.5 L719.5,243.125 L720.0156,242.5 L720.625,242.5 L722.9375,236.5 L722.0625,236.5 L721.0156,236.5 L720.5,235.875 L720.5,235.5 L720.5,235.125 L721.0156,234.5 L722.0625,234.5 L725.7344,234.5 L728.4219,242.5 L728.9844,242.5 L728.9844,242.5 L729.5,243.125 L729.5,243.5 L729.5,243.875 L728.9844,244.5 L728.4219,244.5 L726.5313,244.5 L726.0156,244.5 L725.5,243.875 L725.5,243.5 L725.5,243.125 L726.0156,242.5 L726.5313,242.5 L726.5313,242.5 L726.25,241.5 Z M725.7031,239.5 L724.5,235.9219 L723.4688,239.5 L725.7031,239.5 Z "/><text fill="#000000" font-family="sans-serif" font-size="12" font-style="italic" lengthAdjust="spacingAndGlyphs" textLength="48" x="738.5" y="244.9102">ButtonUI</text><line style="stroke: #A80036; stroke-width: 1.5;" x1="710.5" x2="788.5" y1="256" y2="256"/><line style="stroke: #A80036; stroke-width: 1.5;" x1="710.5" x2="788.5" y1="264" y2="264"/><rect fill="#FEFECE" filter="url(#f1)" height="48" style="stroke: #A80036; stroke-width: 1.5;" width="78" x="850.5" y="224"/><ellipse cx="865.5" cy="240" fill="#A9DCDF" rx="11" ry="11" style="stroke: #A80036; stroke-width: 1.0;"/><path d="M867.25,241.5 L863.9531,241.5 L863.5156,242.5 L863.5156,242.5 L863.9844,242.5 L864.5,243.125 L864.5,243.5 L864.5,243.875 L863.9844,244.5 L863.5156,244.5 L861.625,244.5 L861.0156,244.5 L860.5,243.875 L860.5,243.5 L860.5,243.125 L861.0156,242.5 L861.625,242.5 L863.9375,236.5 L863.0625,236.5 L862.0156,236.5 L861.5,235.875 L861.5,235.5 L861.5,235.125 L862.0156,234.5 L863.0625,234.5 L866.7344,234.5 L869.4219,242.5 L869.9844,242.5 L869.9844,242.5 L870.5,243.125 L870.5,243.5 L870.5,243.875 L869.9844,244.5 L869.4219,244.5 L867.5313,244.5 L867.0156,244.5 L866.5,243.875 L866.5,243.5 L866.5,243.125 L867.0156,242.5 L867.5313,242.5 L867.5313,242.5 L867.25,241.5 Z M866.7031,239.5 L865.5,235.9219 L864.4688,239.5 L866.7031,239.5 Z "/><text fill="#000000" font-family="sans-serif" font-size="12" font-style="italic" lengthAdjust="spacingAndGlyphs" textLength="46" x="879.5" y="244.9102">MediaUI</text><line style="stroke: #A80036; stroke-width: 1.5;" x1="851.5" x2="927.5" y1="256" y2="256"/><line style="stroke: #A80036; stroke-width: 1.5;" x1="851.5" x2="927.5" y1="264" y2="264"/><rect fill="#FEFECE" filter="url(#f1)" height="48" style="stroke: #A80036; stroke-width: 1.5;" width="105" x="984" y="224"/><ellipse cx="999" cy="240" fill="#A9DCDF" rx="11" ry="11" style="stroke: #A80036; stroke-width: 1.0;"/><path d="M1000.75,241.5 L997.4531,241.5 L997.0156,242.5 L997.0156,242.5 L997.4844,242.5 L998,243.125 L998,243.5 L998,243.875 L997.4844,244.5 L997.0156,244.5 L995.125,244.5 L994.5156,244.5 L994,243.875 L994,243.5 L994,243.125 L994.5156,242.5 L995.125,242.5 L997.4375,236.5 L996.5625,236.5 L995.5156,236.5 L995,235.875 L995,235.5 L995,235.125 L995.5156,234.5 L996.5625,234.5 L1000.2344,234.5 L1002.9219,242.5 L1003.4844,242.5 L1003.4844,242.5 L1004,243.125 L1004,243.5 L1004,243.875 L1003.4844,244.5 L1002.9219,244.5 L1001.0313,244.5 L1000.5156,244.5 L1000,243.875 L1000,243.5 L1000,243.125 L1000.5156,242.5 L1001.0313,242.5 L1001.0313,242.5 L1000.75,241.5 Z M1000.2031,239.5 L999,235.9219 L997.9688,239.5 L1000.2031,239.5 Z "/><text fill="#000000" font-family="sans-serif" font-size="12" font-style="italic" lengthAdjust="spacingAndGlyphs" textLength="73" x="1013" y="244.9102">OrientationUI</text><line style="stroke: #A80036; stroke-width: 1.5;" x1="985" x2="1088" y1="256" y2="256"/><line style="stroke: #A80036; stroke-width: 1.5;" x1="985" x2="1088" y1="264" y2="264"/><rect fill="#FEFECE" filter="url(#f1)" height="48" style="stroke: #A80036; stroke-width: 1.5;" width="84" x="1124.5" y="224"/><ellipse cx="1139.5" cy="240" fill="#A9DCDF" rx="11" ry="11" style="stroke: #A80036; stroke-width: 1.0;"/><path d="M1141.25,241.5 L1137.9531,241.5 L1137.5156,242.5 L1137.5156,242.5 L1137.9844,242.5 L1138.5,243.125 L1138.5,243.5 L1138.5,243.875 L1137.9844,244.5 L1137.5156,244.5 L1135.625,244.5 L1135.0156,244.5 L1134.5,243.875 L1134.5,243.5 L1134.5,243.125 L1135.0156,242.5 L1135.625,242.5 L1137.9375,236.5 L1137.0625,236.5 L1136.0156,236.5 L1135.5,235.875 L1135.5,235.5 L1135.5,235.125 L1136.0156,234.5 L1137.0625,234.5 L1140.7344,234.5 L1143.4219,242.5 L1143.9844,242.5 L1143.9844,242.5 L1144.5,243.125 L1144.5,243.5 L1144.5,243.875 L1143.9844,244.5 L1143.4219,244.5 L1141.5313,244.5 L1141.0156,244.5 L1140.5,243.875 L1140.5,243.5 L1140.5,243.125 L1141.0156,242.5 L1141.5313,242.5 L1141.5313,242.5 L1141.25,241.5 Z M1140.7031,239.5 L1139.5,235.9219 L1138.4688,239.5 L1140.7031,239.5 Z "/><text fill="#000000" font-family="sans-serif" font-size="12" font-style="italic" lengthAdjust="spacingAndGlyphs" textLength="52" x="1153.5" y="244.9102">ChoiceUI</text><line style="stroke: #A80036; stroke-width: 1.5;" x1="1125.5" x2="1207.5" y1="256" y2="256"/><line style="stroke: #A80036; stroke-width: 1.5;" x1="1125.5" x2="1207.5" y1="264" y2="264"/><rect fill="#FEFECE" filter="url(#f1)" height="48" style="stroke: #A80036; stroke-width: 1.5;" width="92" x="1243.5" y="224"/><ellipse cx="1258.5" cy="240" fill="#A9DCDF" rx="11" ry="11" style="stroke: #A80036; stroke-width: 1.0;"/><path d="M1260.25,241.5 L1256.9531,241.5 L1256.5156,242.5 L1256.5156,242.5 L1256.9844,242.5 L1257.5,243.125 L1257.5,243.5 L1257.5,243.875 L1256.9844,244.5 L1256.5156,244.5 L1254.625,244.5 L1254.0156,244.5 L1253.5,243.875 L1253.5,243.5 L1253.5,243.125 L1254.0156,242.5 L1254.625,242.5 L1256.9375,236.5 L1256.0625,236.5 L1255.0156,236.5 L1254.5,235.875 L1254.5,235.5 L1254.5,235.125 L1255.0156,234.5 L1256.0625,234.5 L1259.7344,234.5 L1262.4219,242.5 L1262.9844,242.5 L1262.9844,242.5 L1263.5,243.125 L1263.5,243.5 L1263.5,243.875 L1262.9844,244.5 L1262.4219,244.5 L1260.5313,244.5 L1260.0156,244.5 L1259.5,243.875 L1259.5,243.5 L1259.5,243.125 L1260.0156,242.5 L1260.5313,242.5 L1260.5313,242.5 L1260.25,241.5 Z M1259.7031,239.5 L1258.5,235.9219 L1257.4688,239.5 L1259.7031,239.5 Z "/><text fill="#000000" font-family="sans-serif" font-size="12" font-style="italic" lengthAdjust="spacingAndGlyphs" textLength="60" x="1272.5" y="244.9102">LocationUI</text><line style="stroke: #A80036; stroke-width: 1.5;" x1="1244.5" x2="1334.5" y1="256" y2="256"/><line style="stroke: #A80036; stroke-width: 1.5;" x1="1244.5" x2="1334.5" y1="264" y2="264"/><rect fill="#FEFECE" filter="url(#f1)" height="48" style="stroke: #A80036; stroke-width: 1.5;" width="121" x="664" y="332"/><ellipse cx="679" cy="348" fill="#ADD1B2" rx="11" ry="11" style="stroke: #A80036; stroke-width: 1.0;"/><path d="M681,344.5 Q681.2031,344 681.4375,343.75 Q681.6719,343.5 681.9375,343.5 Q682.4063,343.5 682.7031,343.7813 Q683,344.0625 683,344.7188 L683,346.2813 Q683,346.9375 682.7188,347.2188 Q682.4375,347.5 682,347.5 Q681.6094,347.5 681.3594,347.3281 Q681.1094,347.1563 681,346.7031 Q680.9531,346.3906 680.7813,346.2188 Q680.4688,345.8906 679.9063,345.6953 Q679.3438,345.5 678.7813,345.5 Q678.0781,345.5 677.4922,345.7813 Q676.9063,346.0625 676.4531,346.6875 Q676,347.3125 676,348.1719 L676,349.0938 Q676,350.125 676.8438,350.8125 Q677.6875,351.5 679.1875,351.5 Q680.0781,351.5 680.7031,351.2969 Q681.0625,351.1875 681.4688,350.8281 Q681.7344,350.625 681.875,350.5625 Q682.0156,350.5 682.1875,350.5 Q682.5156,350.5 682.7578,350.7578 Q683,351.0156 683,351.375 Q683,351.7188 682.6563,352.125 Q682.1563,352.7188 681.3594,353.0469 Q680.3125,353.5 679.0313,353.5 Q677.5313,353.5 676.3281,352.9063 Q675.3594,352.4375 674.6797,351.4219 Q674,350.4063 674,349.2031 L674,348.1094 Q674,346.8594 674.6016,345.7656 Q675.2031,344.6719 676.2578,344.0859 Q677.3125,343.5 678.5,343.5 Q679.2188,343.5 679.8438,343.75 Q680.4688,344 681,344.5 Z "/><text fill="#000000" font-family="sans-serif" font-size="12" lengthAdjust="spacingAndGlyphs" textLength="89" x="693" y="352.9102">AndroidButtonUI</text><line style="stroke: #A80036; stroke-width: 1.5;" x1="665" x2="784" y1="364" y2="364"/><line style="stroke: #A80036; stroke-width: 1.5;" x1="665" x2="784" y1="372" y2="372"/><rect fill="#FEFECE" filter="url(#f1)" height="48" style="stroke: #A80036; stroke-width: 1.5;" width="119" x="820" y="332"/><ellipse cx="835" cy="348" fill="#ADD1B2" rx="11" ry="11" style="stroke: #A80036; stroke-width: 1.0;"/><path d="M837,344.5 Q837.2031,344 837.4375,343.75 Q837.6719,343.5 837.9375,343.5 Q838.4063,343.5 838.7031,343.7813 Q839,344.0625 839,344.7188 L839,346.2813 Q839,346.9375 838.7188,347.2188 Q838.4375,347.5 838,347.5 Q837.6094,347.5 837.3594,347.3281 Q837.1094,347.1563 837,346.7031 Q836.9531,346.3906 836.7813,346.2188 Q836.4688,345.8906 835.9063,345.6953 Q835.3438,345.5 834.7813,345.5 Q834.0781,345.5 833.4922,345.7813 Q832.9063,346.0625 832.4531,346.6875 Q832,347.3125 832,348.1719 L832,349.0938 Q832,350.125 832.8438,350.8125 Q833.6875,351.5 835.1875,351.5 Q836.0781,351.5 836.7031,351.2969 Q837.0625,351.1875 837.4688,350.8281 Q837.7344,350.625 837.875,350.5625 Q838.0156,350.5 838.1875,350.5 Q838.5156,350.5 838.7578,350.7578 Q839,351.0156 839,351.375 Q839,351.7188 838.6563,352.125 Q838.1563,352.7188 837.3594,353.0469 Q836.3125,353.5 835.0313,353.5 Q833.5313,353.5 832.3281,352.9063 Q831.3594,352.4375 830.6797,351.4219 Q830,350.4063 830,349.2031 L830,348.1094 Q830,346.8594 830.6016,345.7656 Q831.2031,344.6719 832.2578,344.0859 Q833.3125,343.5 834.5,343.5 Q835.2188,343.5 835.8438,343.75 Q836.4688,344 837,344.5 Z "/><text fill="#000000" font-family="sans-serif" font-size="12" lengthAdjust="spacingAndGlyphs" textLength="87" x="849" y="352.9102">AndroidMediaUI</text><line style="stroke: #A80036; stroke-width: 1.5;" x1="821" x2="938" y1="364" y2="364"/><line style="stroke: #A80036; stroke-width: 1.5;" x1="821" x2="938" y1="372" y2="372"/><rect fill="#FEFECE" filter="url(#f1)" height="48" style="stroke: #A80036; stroke-width: 1.5;" width="146" x="974.5" y="332"/><ellipse cx="989.5" cy="348" fill="#ADD1B2" rx="11" ry="11" style="stroke: #A80036; stroke-width: 1.0;"/><path d="M991.5,344.5 Q991.7031,344 991.9375,343.75 Q992.1719,343.5 992.4375,343.5 Q992.9063,343.5 993.2031,343.7813 Q993.5,344.0625 993.5,344.7188 L993.5,346.2813 Q993.5,346.9375 993.2188,347.2188 Q992.9375,347.5 992.5,347.5 Q992.1094,347.5 991.8594,347.3281 Q991.6094,347.1563 991.5,346.7031 Q991.4531,346.3906 991.2813,346.2188 Q990.9688,345.8906 990.4063,345.6953 Q989.8438,345.5 989.2813,345.5 Q988.5781,345.5 987.9922,345.7813 Q987.4063,346.0625 986.9531,346.6875 Q986.5,347.3125 986.5,348.1719 L986.5,349.0938 Q986.5,350.125 987.3438,350.8125 Q988.1875,351.5 989.6875,351.5 Q990.5781,351.5 991.2031,351.2969 Q991.5625,351.1875 991.9688,350.8281 Q992.2344,350.625 992.375,350.5625 Q992.5156,350.5 992.6875,350.5 Q993.0156,350.5 993.2578,350.7578 Q993.5,351.0156 993.5,351.375 Q993.5,351.7188 993.1563,352.125 Q992.6563,352.7188 991.8594,353.0469 Q990.8125,353.5 989.5313,353.5 Q988.0313,353.5 986.8281,352.9063 Q985.8594,352.4375 985.1797,351.4219 Q984.5,350.4063 984.5,349.2031 L984.5,348.1094 Q984.5,346.8594 985.1016,345.7656 Q985.7031,344.6719 986.7578,344.0859 Q987.8125,343.5 989,343.5 Q989.7188,343.5 990.3438,343.75 Q990.9688,344 991.5,344.5 Z "/><text fill="#000000" font-family="sans-serif" font-size="12" lengthAdjust="spacingAndGlyphs" textLength="114" x="1003.5" y="352.9102">AndroidOrientationUI</text><line style="stroke: #A80036; stroke-width: 1.5;" x1="975.5" x2="1119.5" y1="364" y2="364"/><line style="stroke: #A80036; stroke-width: 1.5;" x1="975.5" x2="1119.5" y1="372" y2="372"/><rect fill="#FEFECE" filter="url(#f1)" height="48" style="stroke: #A80036; stroke-width: 1.5;" width="125" x="1156" y="332"/><ellipse cx="1171" cy="348" fill="#ADD1B2" rx="11" ry="11" style="stroke: #A80036; stroke-width: 1.0;"/><path d="M1173,344.5 Q1173.2031,344 1173.4375,343.75 Q1173.6719,343.5 1173.9375,343.5 Q1174.4063,343.5 1174.7031,343.7813 Q1175,344.0625 1175,344.7188 L1175,346.2813 Q1175,346.9375 1174.7188,347.2188 Q1174.4375,347.5 1174,347.5 Q1173.6094,347.5 1173.3594,347.3281 Q1173.1094,347.1563 1173,346.7031 Q1172.9531,346.3906 1172.7813,346.2188 Q1172.4688,345.8906 1171.9063,345.6953 Q1171.3438,345.5 1170.7813,345.5 Q1170.0781,345.5 1169.4922,345.7813 Q1168.9063,346.0625 1168.4531,346.6875 Q1168,347.3125 1168,348.1719 L1168,349.0938 Q1168,350.125 1168.8438,350.8125 Q1169.6875,351.5 1171.1875,351.5 Q1172.0781,351.5 1172.7031,351.2969 Q1173.0625,351.1875 1173.4688,350.8281 Q1173.7344,350.625 1173.875,350.5625 Q1174.0156,350.5 1174.1875,350.5 Q1174.5156,350.5 1174.7578,350.7578 Q1175,351.0156 1175,351.375 Q1175,351.7188 1174.6563,352.125 Q1174.1563,352.7188 1173.3594,353.0469 Q1172.3125,353.5 1171.0313,353.5 Q1169.5313,353.5 1168.3281,352.9063 Q1167.3594,352.4375 1166.6797,351.4219 Q1166,350.4063 1166,349.2031 L1166,348.1094 Q1166,346.8594 1166.6016,345.7656 Q1167.2031,344.6719 1168.2578,344.0859 Q1169.3125,343.5 1170.5,343.5 Q1171.2188,343.5 1171.8438,343.75 Q1172.4688,344 1173,344.5 Z "/><text fill="#000000" font-family="sans-serif" font-size="12" lengthAdjust="spacingAndGlyphs" textLength="93" x="1185" y="352.9102">AndroidChoiceUI</text><line style="stroke: #A80036; stroke-width: 1.5;" x1="1157" x2="1280" y1="364" y2="364"/><line style="stroke: #A80036; stroke-width: 1.5;" x1="1157" x2="1280" y1="372" y2="372"/><rect fill="#FEFECE" filter="url(#f1)" height="48" style="stroke: #A80036; stroke-width: 1.5;" width="133" x="1316" y="332"/><ellipse cx="1331" cy="348" fill="#ADD1B2" rx="11" ry="11" style="stroke: #A80036; stroke-width: 1.0;"/><path d="M1333,344.5 Q1333.2031,344 1333.4375,343.75 Q1333.6719,343.5 1333.9375,343.5 Q1334.4063,343.5 1334.7031,343.7813 Q1335,344.0625 1335,344.7188 L1335,346.2813 Q1335,346.9375 1334.7188,347.2188 Q1334.4375,347.5 1334,347.5 Q1333.6094,347.5 1333.3594,347.3281 Q1333.1094,347.1563 1333,346.7031 Q1332.9531,346.3906 1332.7813,346.2188 Q1332.4688,345.8906 1331.9063,345.6953 Q1331.3438,345.5 1330.7813,345.5 Q1330.0781,345.5 1329.4922,345.7813 Q1328.9063,346.0625 1328.4531,346.6875 Q1328,347.3125 1328,348.1719 L1328,349.0938 Q1328,350.125 1328.8438,350.8125 Q1329.6875,351.5 1331.1875,351.5 Q1332.0781,351.5 1332.7031,351.2969 Q1333.0625,351.1875 1333.4688,350.8281 Q1333.7344,350.625 1333.875,350.5625 Q1334.0156,350.5 1334.1875,350.5 Q1334.5156,350.5 1334.7578,350.7578 Q1335,351.0156 1335,351.375 Q1335,351.7188 1334.6563,352.125 Q1334.1563,352.7188 1333.3594,353.0469 Q1332.3125,353.5 1331.0313,353.5 Q1329.5313,353.5 1328.3281,352.9063 Q1327.3594,352.4375 1326.6797,351.4219 Q1326,350.4063 1326,349.2031 L1326,348.1094 Q1326,346.8594 1326.6016,345.7656 Q1327.2031,344.6719 1328.2578,344.0859 Q1329.3125,343.5 1330.5,343.5 Q1331.2188,343.5 1331.8438,343.75 Q1332.4688,344 1333,344.5 Z "/><text fill="#000000" font-family="sans-serif" font-size="12" lengthAdjust="spacingAndGlyphs" textLength="101" x="1345" y="352.9102">AndroidLocationUI</text><line style="stroke: #A80036; stroke-width: 1.5;" x1="1317" x2="1448" y1="364" y2="364"/><line style="stroke: #A80036; stroke-width: 1.5;" x1="1317" x2="1448" y1="372" y2="372"/><rect fill="#FEFECE" filter="url(#f1)" height="48" style="stroke: #A80036; stroke-width: 1.5;" width="115" x="1371" y="224"/><ellipse cx="1386" cy="240" fill="#ADD1B2" rx="11" ry="11" style="stroke: #A80036; stroke-width: 1.0;"/><path d="M1388,236.5 Q1388.2031,236 1388.4375,235.75 Q1388.6719,235.5 1388.9375,235.5 Q1389.4063,235.5 1389.7031,235.7813 Q1390,236.0625 1390,236.7188 L1390,238.2813 Q1390,238.9375 1389.7188,239.2188 Q1389.4375,239.5 1389,239.5 Q1388.6094,239.5 1388.3594,239.3281 Q1388.1094,239.1563 1388,238.7031 Q1387.9531,238.3906 1387.7813,238.2188 Q1387.4688,237.8906 1386.9063,237.6953 Q1386.3438,237.5 1385.7813,237.5 Q1385.0781,237.5 1384.4922,237.7813 Q1383.9063,238.0625 1383.4531,238.6875 Q1383,239.3125 1383,240.1719 L1383,241.0938 Q1383,242.125 1383.8438,242.8125 Q1384.6875,243.5 1386.1875,243.5 Q1387.0781,243.5 1387.7031,243.2969 Q1388.0625,243.1875 1388.4688,242.8281 Q1388.7344,242.625 1388.875,242.5625 Q1389.0156,242.5 1389.1875,242.5 Q1389.5156,242.5 1389.7578,242.7578 Q1390,243.0156 1390,243.375 Q1390,243.7188 1389.6563,244.125 Q1389.1563,244.7188 1388.3594,245.0469 Q1387.3125,245.5 1386.0313,245.5 Q1384.5313,245.5 1383.3281,244.9063 Q1382.3594,244.4375 1381.6797,243.4219 Q1381,242.4063 1381,241.2031 L1381,240.1094 Q1381,238.8594 1381.6016,237.7656 Q1382.2031,236.6719 1383.2578,236.0859 Q1384.3125,235.5 1385.5,235.5 Q1386.2188,235.5 1386.8438,235.75 Q1387.4688,236 1388,236.5 Z "/><text fill="#000000" font-family="sans-serif" font-size="12" lengthAdjust="spacingAndGlyphs" textLength="83" x="1400" y="244.9102">AndroidPageUI</text><line style="stroke: #A80036; stroke-width: 1.5;" x1="1372" x2="1485" y1="256" y2="256"/><line style="stroke: #A80036; stroke-width: 1.5;" x1="1372" x2="1485" y1="264" y2="264"/><path d="M980.219,42.561 C868.997,61.454 620.746,103.625 492.542,125.403 " fill="none" style="stroke: #A80036; stroke-width: 1.0;"/><polygon fill="none" points="979.364,35.606,1000.254,39.157,981.709,49.408,979.364,35.606" style="stroke: #A80036; stroke-width: 1.0;"/><path d="M1036.5,76.024 C1036.5,89.579 1036.5,104.038 1036.5,115.678 " fill="none" style="stroke: #A80036; stroke-width: 1.0;"/><polygon fill="none" points="1029.5,76,1036.5,56,1043.5,76,1029.5,76" style="stroke: #A80036; stroke-width: 1.0;"/><path d="M1091.23,54.811 C1143.18,75.513 1219.86,106.069 1265.14,124.113 " fill="none" style="stroke: #A80036; stroke-width: 1.0;"/><polygon fill="none" points="1088.64,61.312,1072.65,47.406,1093.82,48.307,1088.64,61.312" style="stroke: #A80036; stroke-width: 1.0;"/><path d="M327.111,170.579 C272.606,189.46 203.772,213.305 157.615,229.293 " fill="none" style="stroke: #A80036; stroke-width: 1.0;"/><polygon fill="none" points="324.913,163.933,346.103,164,329.496,177.161,324.913,163.933" style="stroke: #A80036; stroke-width: 1.0;"/><path d="M94.4604,291.5399 C90.5846,305.2345 86.4341,319.8995 83.1004,331.6784 " fill="none" style="stroke: #A80036; stroke-width: 1.0;"/><polygon fill="none" points="87.8085,289.3383,99.9904,272,101.2794,293.1508,87.8085,289.3383" style="stroke: #A80036; stroke-width: 1.0;"/><path d="M364.652,175.979 C343.128,191.713 318.314,209.853 299.151,223.862 " fill="none" style="stroke: #A80036; stroke-width: 1.0;"/><polygon fill="none" points="360.76,170.153,381.037,164,369.022,181.455,360.76,170.153" style="stroke: #A80036; stroke-width: 1.0;"/><path d="M259.382,292.0236 C256.825,305.5792 254.097,320.0381 251.9,331.6784 " fill="none" style="stroke: #A80036; stroke-width: 1.0;"/><polygon fill="none" points="252.573,290.3558,263.16,272,266.331,292.9515,252.573,290.3558" style="stroke: #A80036; stroke-width: 1.0;"/><path d="M412.5,184.024 C412.5,197.579 412.5,212.038 412.5,223.678 " fill="none" style="stroke: #A80036; stroke-width: 1.0;"/><polygon fill="none" points="405.5,184,412.5,164,419.5,184,405.5,184" style="stroke: #A80036; stroke-width: 1.0;"/><path d="M412.5,292.0236 C412.5,305.5792 412.5,320.0381 412.5,331.6784 " fill="none" style="stroke: #A80036; stroke-width: 1.0;"/><polygon fill="none" points="405.5,292.0005,412.5,272,419.5,292.0004,405.5,292.0005" style="stroke: #A80036; stroke-width: 1.0;"/><path d="M458.589,176.402 C478.856,191.969 502.097,209.821 520.138,223.678 " fill="none" style="stroke: #A80036; stroke-width: 1.0;"/><polygon fill="none" points="454.041,181.735,442.444,164,462.569,170.632,454.041,181.735" style="stroke: #A80036; stroke-width: 1.0;"/><path d="M558.618,292.0236 C561.175,305.5792 563.903,320.0381 566.1,331.6784 " fill="none" style="stroke: #A80036; stroke-width: 1.0;"/><polygon fill="none" points="551.669,292.9515,554.84,272,565.427,290.3558,551.669,292.9515" style="stroke: #A80036; stroke-width: 1.0;"/><path d="M955.379,170.961 C901.212,190.967 832.32,216.411 789.567,232.202 " fill="none" style="stroke: #A80036; stroke-width: 1.0;"/><polygon fill="none" points="953.039,164.363,974.225,164,957.889,177.496,953.039,164.363" style="stroke: #A80036; stroke-width: 1.0;"/><path d="M739.467,291.5399 C736.237,305.2345 732.778,319.8995 730,331.6784 " fill="none" style="stroke: #A80036; stroke-width: 1.0;"/><polygon fill="none" points="732.671,289.8595,744.075,272,746.297,293.0732,732.671,289.8595" style="stroke: #A80036; stroke-width: 1.0;"/><path d="M988.316,175.745 C966.421,191.533 941.111,209.784 921.588,223.862 " fill="none" style="stroke: #A80036; stroke-width: 1.0;"/><polygon fill="none" points="984.287,170.02,1004.603,164,992.475,181.376,984.287,170.02" style="stroke: #A80036; stroke-width: 1.0;"/><path d="M885.441,292.0236 C884.162,305.5792 882.798,320.0381 881.7,331.6784 " fill="none" style="stroke: #A80036; stroke-width: 1.0;"/><polygon fill="none" points="878.483,291.2545,887.33,272,892.421,292.5695,878.483,291.2545" style="stroke: #A80036; stroke-width: 1.0;"/><path d="M1036.5,184.024 C1036.5,197.579 1036.5,212.038 1036.5,223.678 " fill="none" style="stroke: #A80036; stroke-width: 1.0;"/><polygon fill="none" points="1029.5,184,1036.5,164,1043.5,184,1029.5,184" style="stroke: #A80036; stroke-width: 1.0;"/><path d="M1040.96,292.0236 C1042.37,305.5792 1043.87,320.0381 1045.08,331.6784 " fill="none" style="stroke: #A80036; stroke-width: 1.0;"/><polygon fill="none" points="1033.99,292.6162,1038.89,272,1047.91,291.171,1033.99,292.6162" style="stroke: #A80036; stroke-width: 1.0;"/><path d="M1080.49,176.869 C1099.45,192.325 1121.07,209.959 1137.9,223.678 " fill="none" style="stroke: #A80036; stroke-width: 1.0;"/><polygon fill="none" points="1075.78,182.064,1064.71,164,1084.63,171.214,1075.78,182.064" style="stroke: #A80036; stroke-width: 1.0;"/><path d="M1186.66,290.0936 C1193.58,304.1958 1201.08,319.4838 1207.06,331.6784 " fill="none" style="stroke: #A80036; stroke-width: 1.0;"/><polygon fill="none" points="1180.31,293.0392,1177.78,272,1192.88,286.8732,1180.31,293.0392" style="stroke: #A80036; stroke-width: 1.0;"/><path d="M1110.05,171.816 C1153.04,189.827 1205.99,212.01 1243.19,227.597 " fill="none" style="stroke: #A80036; stroke-width: 1.0;"/><polygon fill="none" points="1107.14,178.185,1091.4,164,1112.55,165.273,1107.14,178.185" style="stroke: #A80036; stroke-width: 1.0;"/><path d="M1323.04,287.227 C1336.08,302.0966 1350.61,318.6523 1362.04,331.6784 " fill="none" style="stroke: #A80036; stroke-width: 1.0;"/><polygon fill="none" points="1317.61,291.651,1309.68,272,1328.13,282.4178,1317.61,291.651" style="stroke: #A80036; stroke-width: 1.0;"/><path d="M1345.42,177.104 C1363.72,192.503 1384.55,210.029 1400.78,223.678 " fill="none" style="stroke: #A80036; stroke-width: 1.0;"/><polygon fill="none" points="1340.64,182.232,1329.84,164,1349.65,171.519,1340.64,182.232" style="stroke: #A80036; stroke-width: 1.0;"/></g></svg>