<?xml version="1.0" encoding="UTF-8" standalone="no"?>
<!-- Created with Inkscape (http://www.inkscape.org/) -->

<svg
   xmlns:dc="http://purl.org/dc/elements/1.1/"
   xmlns:cc="http://creativecommons.org/ns#"
   xmlns:rdf="http://www.w3.org/1999/02/22-rdf-syntax-ns#"
   xmlns:svg="http://www.w3.org/2000/svg"
   xmlns="http://www.w3.org/2000/svg"
   version="1.1"
   width="449.33676"
   height="591.90741"
   id="svg2"
   xml:space="preserve"><metadata
     id="metadata8"><rdf:RDF><cc:Work
         rdf:about=""><dc:format>image/svg+xml</dc:format><dc:type
           rdf:resource="http://purl.org/dc/dcmitype/StillImage" /><dc:title></dc:title></cc:Work></rdf:RDF></metadata><defs
     id="defs6"><clipPath
       id="clipPath18"><path
         d="m 0,0 3911,0 0,4330.81 -3911,0 L 0,0 z"
         id="path20" /></clipPath></defs><g
     transform="matrix(1.25,0,0,-1.25,-21.693249,551.35125)"
     id="g10"><g
       id="g3919"><g
         transform="scale(0.1,0.1)"
         id="g12"><g
           id="g14"><g
             id="g3891"><path
               d="m 1180.56,2918.62 c 0,0 225.48,360.78 -499.173,401.27 480.843,-50.37 628.823,-358.99 104.57,-587.29 680.673,245.21 950.253,-119.64 1061.663,-352.69 -131.56,386.51 -414.83,521.79 -667.06,538.71"
               id="path22"
               style="fill:#4aa9cd;fill-opacity:1;fill-rule:nonzero;stroke:none" /><path
               d="m 812.344,3101.45 c 24.023,51.77 82.566,71.3 134.367,47.26 48.785,-24.41 71.239,-82.61 47.273,-134.39 -24.406,-48.75 -85.617,-71.65 -134.367,-47.25 -51.824,24.03 -71.679,85.59 -47.273,134.38 l 0,0"
               id="path24"
               style="fill:#4aa9cd;fill-opacity:1;fill-rule:nonzero;stroke:none" /><path
               d="m 1647.26,3740.74 c 0,0 -398.25,-29.44 -114.91,590.07 -168.49,-421.35 23.08,-679.25 442.01,-343.75 -501.41,-458 -316.34,-841.49 -171.53,-1035.96 -263.45,278.33 -251.88,572.76 -155.57,789.64"
               id="path26"
               style="fill:#4aa9cd;fill-opacity:1;fill-rule:nonzero;stroke:none" /><path
               d="m 1656.5,4126.5 c -53.52,2.71 -95.36,-37.39 -98.04,-90.92 -1.06,-51.19 37.45,-95.29 90.93,-98.04 51.19,-1.06 96.96,39.75 98,90.92 2.76,53.55 -39.7,96.95 -90.89,98.04 l 0,0"
               id="path28"
               style="fill:#4aa9cd;fill-opacity:1;fill-rule:nonzero;stroke:none" /><path
               d="m 2737.86,3160.43 c 0,0 -255.1,307.22 413.82,436.05 -440.93,-107.32 -539.76,-413.02 -23.41,-559.44 -663.99,142.48 -868.85,-230.81 -943.17,-461.59 73.77,376.08 320.22,537.55 552.76,584.98"
               id="path30"
               style="fill:#4aa9cd;fill-opacity:1;fill-rule:nonzero;stroke:none" /><path
               d="m 3057.35,3376.8 c -28.87,45.16 -85.78,55.94 -130.94,27.07 -42.3,-28.83 -55.88,-85.81 -27.05,-130.96 28.83,-42.28 88.65,-55.88 130.9,-27.01 45.21,28.83 55.9,88.61 27.09,130.9 l 0,0"
               id="path32"
               style="fill:#4aa9cd;fill-opacity:1;fill-rule:nonzero;stroke:none" /><path
               d="m 1308.51,2453.82 c 0,0 36.62,274.75 -404.225,103.65 298.845,99.6 469.765,-43.64 220.195,-320.29 337.81,328.79 596.03,184.95 724.87,76.68 -182.13,193.88 -386.63,197.86 -540.84,139.96"
               id="path34"
               style="fill:#4aa9cd;fill-opacity:1;fill-rule:nonzero;stroke:none" /><path
               d="m 1040.82,2463.12 c 0.29,37.2 29.78,64.55 66.98,64.24 35.53,-1.35 64.53,-29.84 64.23,-67.01 -1.33,-35.5 -31.48,-65.56 -66.98,-64.21 -37.23,0.29 -65.57,31.47 -64.23,66.98 l 0,0"
               id="path36"
               style="fill:#4aa9cd;fill-opacity:1;fill-rule:nonzero;stroke:none" /><path
               d="m 2290.18,3638.04 c 0,0 274.81,-36.41 103.34,404.3 99.86,-298.78 -43.28,-469.8 -320.12,-220.47 329.07,-337.53 185.43,-595.86 77.27,-724.79 193.73,182.28 197.54,386.8 139.51,540.96"
               id="path38"
               style="fill:#4aa9cd;fill-opacity:1;fill-rule:nonzero;stroke:none" /><path
               d="m 2299.28,3905.71 c 37.19,-0.26 64.55,-29.73 64.28,-66.93 -1.29,-35.52 -29.77,-64.54 -66.93,-64.3 -35.51,1.32 -65.59,31.47 -64.3,66.98 0.27,37.19 31.44,65.58 66.95,64.25 l 0,0"
               id="path40"
               style="fill:#4aa9cd;fill-opacity:1;fill-rule:nonzero;stroke:none" /><path
               d="m 1349.66,3375.22 c 0,0 67.65,202.92 -149.39,281.85 140.94,-112.74 192.71,-283.66 -111.45,-338.98 388.57,44.87 485.36,-180.49 515.15,-316.95 -21.41,219.72 -141.56,312.08 -254.31,374.08"
               id="path42"
               style="fill:#4aa9cd;fill-opacity:1;fill-rule:nonzero;stroke:none" /><path
               d="m 1148.33,3508.96 c 19.05,24.31 52.29,27.33 76.57,8.27 22.66,-18.87 27.27,-52.3 8.25,-76.58 -18.88,-22.65 -53.93,-27.12 -76.56,-8.24 -24.32,19.05 -27.14,53.91 -8.26,76.55 l 0,0"
               id="path44"
               style="fill:#4aa9cd;fill-opacity:1;fill-rule:nonzero;stroke:none" /><path
               d="m 2034.54,3429.29 c 0,0 124.31,83.19 38.18,219.75 29.61,-122.66 -14.98,-239.3 -206.79,-139.59 233.98,-141.64 190.93,-307.66 148.94,-395.82 82.28,130.61 55.43,233.09 19.67,315.66"
               id="path46"
               style="fill:#4aa9cd;fill-opacity:1;fill-rule:nonzero;stroke:none" /><path
               d="m 1980.55,3589.45 c 20.96,5.25 40.63,-7.31 45.88,-28.24 4.45,-20.14 -7.32,-40.58 -28.22,-45.86 -20.16,-4.43 -41.43,8.13 -45.87,28.24 -5.26,20.95 8.09,41.43 28.21,45.86 l 0,0"
               id="path48"
               style="fill:#4aa9cd;fill-opacity:1;fill-rule:nonzero;stroke:none" /><path
               d="m 1491.66,2112.7 c 0,0 58.57,-180.4 -259.25,-119.68 213.44,-30.13 310.77,87.4 108.63,242.75 267.95,-179.55 423.99,-50.84 497.31,37.95 -98.61,-152.99 -235.76,-180.93 -346.69,-161.02"
               id="path50"
               style="fill:#4aa9cd;fill-opacity:1;fill-rule:nonzero;stroke:none" /><path
               d="m 1312.64,2073.39 c 4.8,-25.01 28.03,-39.76 53.03,-34.97 23.72,5.31 39.73,28.06 34.96,53.04 -5.31,23.72 -29.31,40.24 -53.03,34.93 -25,-4.79 -40.23,-29.25 -34.96,-53 l 0,0"
               id="path52"
               style="fill:#4aa9cd;fill-opacity:1;fill-rule:nonzero;stroke:none" /><path
               d="m 2475.4,2154.99 c 0,0 -58.58,-180.41 259.25,-119.69 -213.43,-30.13 -310.76,87.39 -108.63,242.77 -267.97,-179.57 -423.96,-50.86 -497.3,37.92 98.63,-152.99 235.76,-180.92 346.68,-161"
               id="path54"
               style="fill:#4aa9cd;fill-opacity:1;fill-rule:nonzero;stroke:none" /><path
               d="m 2654.42,2115.66 c -4.79,-25.01 -28.01,-39.75 -53.03,-34.95 -23.71,5.29 -39.71,28.04 -34.94,53.03 5.31,23.72 29.3,40.24 53.03,34.93 25,-4.79 40.23,-29.25 34.94,-53.01 l 0,0"
               id="path56"
               style="fill:#4aa9cd;fill-opacity:1;fill-rule:nonzero;stroke:none" /><path
               d="m 2647.27,3587.48 c 0,0 -141.02,126.88 164.57,233.32 -199.86,-80.69 -225.35,-231.16 27.4,-264.51 -321.85,21.37 -392.54,-168.12 -411.64,-281.7 8.87,181.82 113.64,274.62 219.67,312.89"
               id="path58"
               style="fill:#4aa9cd;fill-opacity:1;fill-rule:nonzero;stroke:none" /><path
               d="m 2782.56,3711.08 c -16.66,19.25 -44.16,20.41 -63.39,3.74 -17.9,-16.45 -20.36,-44.16 -3.72,-63.39 16.45,-17.9 45.49,-20.2 63.38,-3.74 19.26,16.65 20.2,45.49 3.73,63.39 l 0,0"
               id="path60"
               style="fill:#4aa9cd;fill-opacity:1;fill-rule:nonzero;stroke:none" /><path
               d="m 2658.34,2776.23 c 0,0 -40.35,185.34 269.87,93.27 -209.38,51.22 -317.95,-56.02 -132.25,-230.74 -248.77,205.34 -416.81,92.83 -498.63,11.79 113.36,142.39 252.58,156.53 361.01,125.68"
               id="path62"
               style="fill:#4aa9cd;fill-opacity:1;fill-rule:nonzero;stroke:none" /><path
               d="m 2840.38,2797.53 c -2.31,25.36 -23.95,42.36 -49.28,40.07 -24.16,-2.91 -42.35,-23.96 -40.08,-49.29 2.93,-24.14 25.14,-42.95 49.3,-40.05 25.35,2.29 42.95,25.13 40.06,49.27 l 0,0"
               id="path64"
               style="fill:#4aa9cd;fill-opacity:1;fill-rule:nonzero;stroke:none" /><path
               d="m 2657.56,2485.86 c 0,0 -32.81,248.9 366.21,93.35 -270.5,90.6 -425.48,-38.91 -199.84,-289.76 -305.51,298.19 -539.51,168.25 -656.37,70.38 165.2,175.34 350.43,178.67 490,126.03"
               id="path66"
               style="fill:#4aa9cd;fill-opacity:1;fill-rule:nonzero;stroke:none" /><path
               d="m 2900.02,2493.94 c -0.27,33.71 -26.91,58.53 -60.6,58.28 -32.17,-1.18 -58.48,-26.96 -58.26,-60.61 1.17,-32.15 28.43,-59.41 60.6,-58.23 33.66,0.2 59.42,28.4 58.26,60.56 l 0,0"
               id="path68"
               style="fill:#4aa9cd;fill-opacity:1;fill-rule:nonzero;stroke:none" /><path
               d="m 1912.02,3293.57 c -15.12,-229.95 75.64,-459.89 57.52,-629.33 -15.17,-124.09 -105.89,27.18 -187.62,175.44 214.84,-396.34 187.62,-1249.66 -378.22,-1515.91 354.04,114.98 680.82,136.18 1225.47,6.04 -335.92,118.05 -874.49,810.92 -393.38,1600.65 -63.54,-99.82 -124.03,-142.18 -169.44,-130.09 -96.81,27.23 -121.04,266.26 -154.33,493.2 l 0,0"
               id="path70"
               style="fill:#656263;fill-opacity:1;fill-rule:nonzero;stroke:none" /><path
               d="m 1970.88,1223.68 c 527.41,0 1023.23,-87.5 1455,-241.2 -395.84,210.84 -902.61,337.41 -1455,337.41 -552.34,0 -1059.103,-126.57 -1454.974,-337.41 431.762,153.7 927.634,241.2 1454.974,241.2"
               id="path72"
               style="fill:#4aa9cd;fill-opacity:1;fill-rule:nonzero;stroke:none" /></g></g></g><text
         x="20.858927"
         y="0.84263813"
         transform="scale(1,-1)"
         id="text3063"
         xml:space="preserve"
         style="font-size:61.3809166px;font-style:normal;font-variant:normal;font-weight:bold;font-stretch:normal;line-height:125%;letter-spacing:0px;word-spacing:0px;fill:#4aa9cd;fill-opacity:1;stroke:none;font-family:Trebuchet MS;-inkscape-font-specification:Trebuchet MS Bold"><tspan
           x="20.858927"
           y="0.84263813"
           id="tspan3065"
           style="font-size:115.08921814px;fill:#4aa9cd;fill-opacity:1">Sapelli</tspan><tspan
           x="20.858927"
           y="144.70416"
           id="tspan3079"
           style="font-size:115.08921814px;fill:#4aa9cd;fill-opacity:1" /></text>
</g></g></svg>