<?xml version="1.0" encoding="utf-8"?>
<!-- Generator: Adobe Illustrator 16.0.3, SVG Export Plug-In . SVG Version: 6.00 Build 0)  -->
<!DOCTYPE svg PUBLIC "-//W3C//DTD SVG 1.1//EN" "http://www.w3.org/Graphics/SVG/1.1/DTD/svg11.dtd">
<svg version="1.1" id="Layer_1" xmlns="http://www.w3.org/2000/svg" xmlns:xlink="http://www.w3.org/1999/xlink" x="0px" y="0px"
	 width="500px" height="563.243px" viewBox="0 0 500 563.243" enable-background="new 0 0 500 563.243" xml:space="preserve">
<g>
	<polygon fill="#FFFFFF" points="358.766,71.05 249.923,13.079 141.095,71.05 32.254,13.079 32.254,302.437 141.095,360.392 
		249.923,302.437 358.766,360.392 467.643,302.437 467.643,13.079 	"/>
	<path fill="#26A5C9" d="M358.766,62.152L249.923,4.16L141.095,62.152L24.377,0v307.14l116.718,62.186l108.828-58.006
		l108.843,58.006l116.712-62.186V0L358.766,62.152z M142.684,79.119l105.691-56.288v271.524l-105.691,56.294V79.119z M251.52,22.831
		l105.693,56.288v271.531L251.52,294.355V22.831z M40.121,26.169l99.407,52.949v271.531l-99.407-52.954V26.169z M459.774,297.695
		l-99.417,52.954V79.119l99.417-52.949V297.695z"/>
</g>
<g>
	<path fill="#28A6C9" d="M6.322,513.219l7.586-18.413c8.112,5.69,16.094,8.535,23.945,8.535c12.064,0,18.097-4.214,18.097-12.645
		c0-3.951-1.422-7.717-4.268-11.301c-2.845-3.582-8.707-7.599-17.583-12.051c-8.878-4.452-14.857-8.113-17.939-10.985
		c-3.082-2.871-5.453-6.282-7.113-10.234c-1.659-3.951-2.489-8.324-2.489-13.118c0-8.956,3.28-16.384,9.839-22.286
		c6.559-5.899,14.976-8.851,25.249-8.851c13.381,0,23.207,2.503,29.477,7.507l-6.243,17.702c-7.219-5.163-14.831-7.744-22.839-7.744
		c-4.742,0-8.416,1.252-11.024,3.753c-2.608,2.503-3.912,5.757-3.912,9.76c0,6.638,7.35,13.541,22.048,20.705
		c7.745,3.793,13.329,7.284,16.754,10.471c3.424,3.188,6.032,6.903,7.823,11.143c1.791,4.241,2.687,8.969,2.687,14.185
		c0,9.378-3.702,17.097-11.103,23.155c-7.403,6.059-17.32,9.088-29.753,9.088C24.761,521.596,15.015,518.804,6.322,513.219z"/>
	<path fill="#28A6C9" d="M140.509,511.165c-1.792,2.951-4.914,5.362-9.365,7.231c-4.453,1.87-9.102,2.806-13.948,2.806
		c-9.115,0-16.279-2.278-21.495-6.836c-5.216-4.556-7.824-11.024-7.824-19.401c0-9.799,3.675-17.465,11.024-22.997
		c7.349-5.532,17.793-8.298,31.334-8.298c2.317,0,5.058,0.395,8.219,1.186c0-9.958-6.296-14.936-18.888-14.936
		c-7.428,0-13.646,1.238-18.65,3.714l-4.268-15.331c6.796-3.266,14.883-4.9,24.261-4.9c12.907,0,22.364,2.938,28.37,8.812
		c6.006,5.875,9.009,17.004,9.009,33.389V493.7c0,11.274,2.265,18.361,6.796,21.258c-1.634,2.845-3.451,4.597-5.453,5.255
		c-2.003,0.658-4.294,0.988-6.875,0.988c-2.845,0-5.401-1.055-7.666-3.161C142.827,515.934,141.299,513.642,140.509,511.165z
		 M138.612,479.792c-3.372-0.684-5.901-1.027-7.586-1.027c-15.595,0-23.392,5.111-23.392,15.331c0,7.586,4.398,11.38,13.197,11.38
		c11.854,0,17.781-5.927,17.781-17.781V479.792z"/>
	<path fill="#28A6C9" d="M197.803,517.487v35.325h-19.757V434.983h19.757v5.69c4.951-4.847,11.037-7.271,18.255-7.271
		c26.974,0,40.461,14.857,40.461,44.571c0,13.857-3.728,24.525-11.182,32.006c-7.456,7.481-17.636,11.222-30.543,11.222
		C208.577,521.201,202.913,519.962,197.803,517.487z M197.803,455.688v44.492c3.582,2.898,7.771,4.346,12.565,4.346
		c9.114,0,15.66-2.173,19.638-6.52c3.978-4.346,5.967-11.208,5.967-20.586c0-10.009-1.976-17.056-5.927-21.139
		c-3.951-4.083-10.484-6.125-19.599-6.125C205.706,450.156,201.49,452.001,197.803,455.688z"/>
	<path fill="#28A6C9" d="M349.455,483.348H289c0.368,6.744,2.687,11.986,6.954,15.726c4.268,3.741,10.009,5.611,17.228,5.611
		c9.009,0,15.857-2.344,20.547-7.033l7.666,15.094c-6.955,5.638-17.334,8.456-31.137,8.456c-12.908,0-23.115-3.78-30.623-11.34
		c-7.507-7.56-11.261-18.109-11.261-31.65c0-13.329,4.122-24.129,12.368-32.401c8.245-8.271,18.137-12.407,29.674-12.407
		c12.275,0,22.127,3.663,29.556,10.985c7.428,7.323,11.143,16.648,11.143,27.975C351.114,474.787,350.561,478.448,349.455,483.348z
		 M289.71,468.491h41.568c-1.371-12.38-8.218-18.571-20.546-18.571C299.457,449.919,292.449,456.111,289.71,468.491z"/>
	<path fill="#28A6C9" d="M370.318,403.452l19.756-4.742v95.147c0,10.432,3.108,16.649,9.325,18.65
		c-3.056,5.796-8.272,8.693-15.647,8.693c-8.957,0-13.434-6.216-13.434-18.65V403.452z"/>
	<path fill="#28A6C9" d="M418.05,403.452l19.756-4.742v95.147c0,10.432,3.108,16.649,9.325,18.65
		c-3.056,5.796-8.272,8.693-15.647,8.693c-8.957,0-13.434-6.216-13.434-18.65V403.452z"/>
	<path fill="#28A6C9" d="M467.678,519.621v-68.437h-10.827v-16.2h30.82v84.637H467.678z M477.873,402.188
		c3.161,0,5.86,1.12,8.1,3.358c2.239,2.24,3.359,4.939,3.359,8.101s-1.12,5.861-3.359,8.1c-2.24,2.24-4.939,3.358-8.1,3.358
		s-5.861-1.119-8.1-3.358c-2.24-2.239-3.359-4.939-3.359-8.1s1.119-5.86,3.359-8.101
		C472.011,403.308,474.711,402.188,477.873,402.188z"/>
</g>
<g>
	<path d="M366.542,389.633c0,0,12.116,0.511,34.816-2.208c0,0,30.401-2.6,31.129-27.913V169.878
		c-0.728-25.339-31.129-27.905-31.129-27.905c-22.7-2.734-34.816-2.207-34.816-2.207s-12.163-0.527-34.861,2.207
		c0,0-30.372,2.566-31.095,27.905v189.634c0.723,25.313,31.095,27.913,31.095,27.913
		C354.379,390.144,366.542,389.633,366.542,389.633z"/>
	<rect x="309.532" y="168.01" fill="#FFFFFF" width="113.967" height="192.786"/>
	<g>
		<g>
			<path d="M334.259,255.278c0,0,9.33-14.902-20.644-16.577c19.887,2.062,26.005,14.829,4.35,24.25
				c28.102-10.114,39.256,4.964,43.857,14.608C356.379,261.559,344.669,255.977,334.259,255.278z"/>
			<path d="M319.02,247.734c1.006-2.131,3.418-2.949,5.56-1.958c2.018,1.021,2.936,3.413,1.952,5.547
				c-0.98,2.026-3.518,2.964-5.554,1.948C318.854,252.275,318.016,249.756,319.02,247.734L319.02,247.734z"/>
		</g>
		<g>
			<path d="M353.387,222.72c0,0-16.208,3.018-7.344-23.728c-5.054,18.062,3.968,27.817,19.685,12.165
				c-18.54,21.038-9.206,35.969-2.378,43.316C351.257,244.214,350.429,232.075,353.387,222.72z"/>
			<path d="M352.047,206.828c-2.217,0.155-3.764,1.971-3.615,4.18c0.177,2.129,1.968,3.758,4.185,3.613
				c2.086-0.177,3.791-2.042,3.61-4.164C356.093,208.253,354.143,206.65,352.047,206.828L352.047,206.828z"/>
		</g>
		<g>
			<path d="M398.612,245.293c0,0-10.553-12.7,17.103-18.014c-18.21,4.413-22.29,17.066-0.965,23.111
				c-27.418-5.894-35.915,9.541-38.967,19.082C378.812,253.916,389.023,247.256,398.612,245.293z"/>
			<path d="M411.82,236.335c-1.194-1.863-3.53-2.302-5.42-1.111c-1.743,1.191-2.284,3.552-1.101,5.42
				c1.187,1.758,3.662,2.283,5.414,1.089C412.569,240.552,413.001,238.081,411.82,236.335L411.82,236.335z"/>
		</g>
		<g>
			<path d="M382.158,226.709c0,0,11.335,1.509,4.247-16.726c4.121,12.371-1.77,19.436-13.222,9.128
				c13.613,13.95,7.663,24.611,3.178,29.932C384.396,241.519,384.547,233.086,382.158,226.709z"/>
			<path d="M382.512,215.631c1.55,0.008,2.667,1.229,2.648,2.782c-0.034,1.465-1.226,2.661-2.734,2.656
				c-1.465-0.073-2.72-1.323-2.671-2.786C379.754,216.772,381.047,215.579,382.512,215.631L382.512,215.631z"/>
		</g>
		<g>
			<path d="M340.931,232.148c0,0,0.981-8.021-7.654-9.312c6.05,3.105,9.243,9.048-1.596,13.364
				c14.042-4.565,19.298,3.054,21.448,7.866C350.697,236.086,345.56,233.594,340.931,232.148z"/>
			<path d="M332.457,228.701c0.527-1.055,1.733-1.405,2.788-0.906c0.972,0.535,1.377,1.731,0.851,2.786
				c-0.511,0.977-1.76,1.396-2.733,0.872C332.301,230.955,331.922,229.678,332.457,228.701L332.457,228.701z"/>
		</g>
		<g>
			<path d="M347.106,288.585c0,0,2.417,7.459-10.719,4.941c8.838,1.249,12.866-3.61,4.515-10.036
				c11.039,7.441,17.511,2.129,20.554-1.543C357.355,288.262,351.698,289.409,347.106,288.585z"/>
			<path d="M339.715,290.225c0.211,1.033,1.169,1.626,2.21,1.436c0.977-0.215,1.635-1.143,1.438-2.188
				c-0.23-0.977-1.207-1.655-2.188-1.44C340.131,288.223,339.494,289.238,339.715,290.225L339.715,290.225z"/>
		</g>
		<g>
			<path d="M387.792,286.855c0,0-2.427,7.437,10.704,4.918c-8.822,1.253-12.866-3.604-4.5-10.024
				c-11.054,7.43-17.524,2.113-20.564-1.549C377.534,286.509,383.173,287.661,387.792,286.855z"/>
			<path d="M395.161,288.467c-0.203,1.045-1.151,1.636-2.193,1.445c-0.981-0.215-1.628-1.147-1.44-2.192
				c0.216-0.986,1.206-1.655,2.188-1.44C394.762,286.47,395.379,287.485,395.161,288.467L395.161,288.467z"/>
		</g>
		<g>
			<path d="M394.889,227.632c0,0-5.857-5.227,6.8-9.622c-8.264,3.328-9.32,9.536,1.12,10.925
				c-13.291-0.901-16.218,6.92-17.002,11.627C386.151,233.062,390.497,229.236,394.889,227.632z"/>
			<path d="M400.483,222.524c-0.709-0.804-1.847-0.837-2.646-0.138c-0.728,0.67-0.824,1.798-0.14,2.604
				c0.662,0.747,1.863,0.841,2.605,0.148C401.104,224.453,401.152,223.267,400.483,222.524L400.483,222.524z"/>
		</g>
		<g>
			<path d="M395.304,273.184c0,0-1.374-10.288,15.145-3.894c-11.172-3.713-17.598,1.633-8.263,11.978
				c-12.65-12.302-22.307-6.926-27.128-2.903C381.879,271.133,389.52,271.006,395.304,273.184z"/>
			<path d="M405.327,272.827c-0.005-1.377-1.134-2.402-2.518-2.393c-1.309,0.054-2.407,1.09-2.393,2.52
				c0.052,1.294,1.158,2.446,2.508,2.393C404.308,275.342,405.389,274.167,405.327,272.827L405.327,272.827z"/>
		</g>
		<path d="M364.493,239.772c-0.617,9.5,3.111,19.027,2.361,26.024c-0.613,5.137-4.372-1.136-7.751-7.253
			c8.9,16.371,7.751,51.653-15.63,62.659c14.634-4.778,28.153-5.635,50.667-0.249c-13.896-4.883-36.142-33.529-16.281-66.157
			c-2.618,4.116-5.13,5.879-6.993,5.381C366.854,259.032,365.859,249.165,364.493,239.772L364.493,239.772z"/>
		<path d="M366.91,325.332c21.81,0,42.305,3.61,60.159,9.966c-16.366-8.706-37.305-13.95-60.159-13.95
			c-22.804,0-43.781,5.244-60.134,13.95C324.613,328.942,345.111,325.332,366.91,325.332z"/>
		<path d="M374.986,234.248c1.548,1.829,2.49,10.757-4.506,16.807l0,0c14.386-10.077,4.363-32.456-11.598-29.382
			c4.277,0.503,7.046,6.643,7.506,12.216c0.346,3.993,2.188,7.948,3.596,8.514C375.226,244.497,376.308,236.953,374.986,234.248"/>
		<path d="M352.013,246.328c1.866,0.266,7.129,5.225,6.036,12.549l0,0c3.49-13.604-14.283-22.017-22.408-11.813
			c2.888-1.94,7.766,0.357,10.935,3.479c2.317,2.289,5.51,3.719,6.621,3.353C357.529,252.443,354.22,247.285,352.013,246.328"/>
		<path d="M342.951,269.976c2.187-1.191,11.624-0.303,16.376,8.141l0,0c-7.357-16.876-32.526-11.273-32.744,5.809
			c1.438-4.351,8.369-5.859,14.165-5.176c4.214,0.498,8.69-0.61,9.532-1.885C353.585,271.87,346.03,269.18,342.951,269.976"/>
		<path d="M391.249,257.759c-2.327-0.469-10.627,2.993-12.576,12.016l0,0c1.904-17.421,26.357-19.408,31.355-3.954
			c-2.517-3.535-9.253-2.979-14.326-0.698c-3.682,1.626-8.025,1.904-9.16,0.962C382.147,262.456,388.261,257.897,391.249,257.759"/>
	</g>
</g>
</svg>
