<?xml version="1.0" encoding="utf-8"?>
<!-- Generator: Adobe Illustrator 16.0.0, SVG Export Plug-In . SVG Version: 6.00 Build 0)  -->
<!DOCTYPE svg PUBLIC "-//W3C//DTD SVG 1.1//EN" "http://www.w3.org/Graphics/SVG/1.1/DTD/svg11.dtd">
<svg version="1.1" id="Layer_1" xmlns="http://www.w3.org/2000/svg" xmlns:xlink="http://www.w3.org/1999/xlink" x="0px" y="0px"
	 width="195.477px" height="223.734px" viewBox="0 0 195.477 223.734" enable-background="new 0 0 195.477 223.734"
	 xml:space="preserve">
<g>
	<polygon fill="#FFFFFF" points="142.64,28.766 98.589,5.299 54.541,28.766 10.49,5.299 10.49,122.402 54.541,145.867 
		98.589,122.402 142.64,145.867 186.691,122.402 186.691,5.299 	"/>
	<path fill="#28A5C9" d="M142.64,25.16L98.589,1.696L54.541,25.16L7.305,0v124.313l47.236,25.162l44.048-23.468l44.051,23.468
		l47.234-25.162V0L142.64,25.16z M55.176,32.033L97.952,9.247v109.886l-42.775,22.79L55.176,32.033L55.176,32.033z M99.226,9.247
		l42.777,22.786v109.889l-42.777-22.79V9.247z M13.669,10.602l40.233,21.431v109.889l-40.233-21.433V10.602z M183.51,120.489
		l-40.232,21.433V32.033l40.232-21.431V120.489z"/>
</g>
<g>
	<path fill="#28A5C9" d="M0,207.711l3.069-7.452c3.283,2.303,6.514,3.454,9.69,3.454c4.883,0,7.323-1.706,7.323-5.116
		c0-1.6-0.574-3.124-1.727-4.575c-1.151-1.449-3.523-3.074-7.116-4.876c-3.594-1.803-6.014-3.284-7.26-4.446
		c-1.248-1.161-2.207-2.543-2.878-4.142c-0.671-1.6-1.008-3.369-1.008-5.31c0-3.625,1.328-6.632,3.982-9.02
		c2.654-2.389,6.061-3.582,10.218-3.582c5.417,0,9.392,1.013,11.929,3.038l-2.525,7.163c-2.923-2.089-6.004-3.134-9.244-3.134
		c-1.918,0-3.406,0.508-4.461,1.521c-1.056,1.013-1.582,2.328-1.582,3.949c0,2.688,2.974,5.479,8.922,8.38
		c3.133,1.535,5.395,2.947,6.778,4.236c1.388,1.291,2.442,2.792,3.167,4.51c0.726,1.718,1.088,3.631,1.088,5.741
		c0,3.795-1.497,6.918-4.492,9.37c-2.997,2.452-7.012,3.68-12.042,3.68C7.461,211.102,3.517,209.97,0,207.711z"/>
	<path fill="#28A5C9" d="M54.306,206.879c-0.725,1.194-1.988,2.17-3.79,2.927c-1.803,0.756-3.684,1.135-5.645,1.135
		c-3.689,0-6.589-0.92-8.7-2.768c-2.111-1.843-3.167-4.461-3.167-7.852c0-3.965,1.487-7.068,4.463-9.306
		c2.974-2.239,7.199-3.357,12.68-3.357c0.938,0,2.047,0.159,3.326,0.479c0-4.03-2.547-6.046-7.645-6.046
		c-3.005,0-5.521,0.502-7.548,1.504l-1.727-6.205c2.75-1.32,6.023-1.982,9.818-1.982c5.225,0,9.052,1.189,11.482,3.567
		c2.432,2.376,3.646,6.882,3.646,13.512v7.325c0,4.563,0.916,7.431,2.75,8.603c-0.66,1.151-1.396,1.861-2.207,2.128
		c-0.812,0.266-1.738,0.398-2.783,0.398c-1.151,0-2.186-0.427-3.103-1.278C55.244,208.81,54.625,207.882,54.306,206.879z
		 M53.538,194.183c-1.365-0.278-2.389-0.417-3.071-0.417c-6.312,0-9.466,2.067-9.466,6.205c0,3.069,1.779,4.605,5.341,4.605
		c4.797,0,7.196-2.399,7.196-7.196V194.183z"/>
	<path fill="#28A5C9" d="M77.494,209.438v14.296h-7.997v-47.687h7.997v2.303c2.004-1.961,4.466-2.943,7.388-2.943
		c10.916,0,16.375,6.012,16.375,18.039c0,5.607-1.509,9.925-4.526,12.953c-3.019,3.026-7.139,4.541-12.361,4.541
		C81.853,210.94,79.561,210.44,77.494,209.438z M77.494,184.427v18.006c1.448,1.174,3.144,1.759,5.085,1.759
		c3.688,0,6.337-0.879,7.946-2.638c1.609-1.76,2.414-4.535,2.414-8.331c0-4.052-0.798-6.903-2.397-8.556s-4.243-2.479-7.934-2.479
		C80.691,182.188,78.986,182.935,77.494,184.427z"/>
	<path fill="#28A5C9" d="M138.869,195.622h-24.468c0.15,2.729,1.089,4.851,2.814,6.363c1.728,1.515,4.051,2.271,6.972,2.271
		c3.646,0,6.417-0.948,8.316-2.846l3.103,6.107c-2.813,2.282-7.015,3.422-12.601,3.422c-5.225,0-9.355-1.528-12.395-4.589
		c-3.037-3.059-4.559-7.328-4.559-12.81c0-5.394,1.669-9.766,5.006-13.114c3.336-3.346,7.34-5.021,12.01-5.021
		c4.968,0,8.954,1.482,11.96,4.446c3.008,2.964,4.512,6.736,4.512,11.321C139.541,192.157,139.317,193.638,138.869,195.622z
		 M114.689,189.608h16.823c-0.555-5.009-3.326-7.517-8.316-7.517C118.633,182.092,115.798,184.599,114.689,189.608z"/>
	<path fill="#28A5C9" d="M147.312,163.286l7.995-1.918v38.509c0,4.222,1.258,6.737,3.774,7.547
		c-1.237,2.348-3.349,3.519-6.332,3.519c-3.626,0-5.438-2.516-5.438-7.547L147.312,163.286L147.312,163.286z"/>
	<path fill="#28A5C9" d="M166.628,163.286l7.995-1.918v38.509c0,4.222,1.258,6.737,3.773,7.547
		c-1.235,2.348-3.348,3.519-6.332,3.519c-3.626,0-5.438-2.516-5.438-7.547L166.628,163.286L166.628,163.286z"/>
	<path fill="#28A5C9" d="M186.712,210.302v-27.696h-4.382v-6.557h12.475v34.253H186.712z M190.838,162.776
		c1.279,0,2.373,0.453,3.279,1.357c0.905,0.908,1.359,2,1.359,3.279s-0.455,2.372-1.359,3.277c-0.906,0.908-2,1.359-3.279,1.359
		c-1.278,0-2.372-0.452-3.277-1.359c-0.907-0.905-1.359-1.998-1.359-3.277s0.452-2.372,1.359-3.279
		C188.466,163.229,189.56,162.776,190.838,162.776z"/>
</g>
<g>
	<path fill="#6D6E70" d="M145.775,157.689c0,0,4.909,0.208,14.098-0.894c0,0,12.296-1.042,12.594-11.292V68.753
		c-0.298-10.25-12.594-11.289-12.594-11.289c-9.188-1.104-14.098-0.893-14.098-0.893s-4.911-0.211-14.1,0.893
		c0,0-12.298,1.039-12.591,11.289v76.751c0.293,10.249,12.591,11.292,12.591,11.292
		C140.865,157.896,145.775,157.689,145.775,157.689z"/>
	<rect x="122.711" y="68.007" fill="#FFFFFF" width="46.126" height="78.014"/>
	<g>
		<g>
			<path fill="#6D6E70" d="M132.713,103.319c0,0,3.771-6.03-8.35-6.711c8.045,0.843,10.521,6.006,1.75,9.825
				c11.387-4.104,15.893,2.004,17.757,5.897C141.672,105.864,136.932,103.604,132.713,103.319z"/>
			<path fill="#6D6E70" d="M126.553,100.264c0.405-0.866,1.383-1.192,2.251-0.792c0.815,0.409,1.188,1.382,0.789,2.25
				c-0.407,0.814-1.429,1.196-2.248,0.787C126.48,102.108,126.147,101.079,126.553,100.264L126.553,100.264z"/>
		</g>
		<g>
			<path fill="#6D6E70" d="M140.461,90.148c0,0-6.566,1.215-2.982-9.602c-2.035,7.311,1.617,11.252,7.973,4.91
				c-7.505,8.527-3.73,14.568-0.968,17.54C139.599,98.846,139.254,93.929,140.461,90.148z"/>
			<path fill="#6D6E70" d="M139.915,83.717c-0.896,0.053-1.519,0.798-1.466,1.689c0.075,0.854,0.796,1.515,1.69,1.465
				c0.853-0.075,1.542-0.836,1.464-1.689C141.553,84.287,140.768,83.642,139.915,83.717L139.915,83.717z"/>
		</g>
		<g>
			<path fill="#6D6E70" d="M158.764,99.276c0,0-4.269-5.141,6.921-7.294c-7.376,1.795-9.026,6.908-0.392,9.358
				c-11.105-2.383-14.533,3.86-15.776,7.721C150.752,102.771,154.872,100.07,158.764,99.276z"/>
			<path fill="#6D6E70" d="M164.107,95.658c-0.482-0.755-1.435-0.937-2.189-0.452c-0.706,0.484-0.934,1.437-0.453,2.19
				c0.481,0.708,1.481,0.934,2.188,0.449C164.41,97.364,164.588,96.366,164.107,95.658L164.107,95.658z"/>
		</g>
		<g>
			<path fill="#6D6E70" d="M152.096,91.757c0,0,4.596,0.607,1.728-6.762c1.67,4.997-0.726,7.857-5.354,3.689
				c5.504,5.643,3.102,9.962,1.292,12.12C153,97.756,153.066,94.336,152.096,91.757z"/>
			<path fill="#6D6E70" d="M152.248,87.279c0.622,0.003,1.08,0.498,1.073,1.12c-0.02,0.593-0.495,1.079-1.117,1.077
				c-0.594-0.025-1.1-0.529-1.074-1.122C151.131,87.73,151.655,87.256,152.248,87.279L152.248,87.279z"/>
		</g>
		<g>
			<path fill="#6D6E70" d="M135.409,93.954c0,0,0.396-3.244-3.093-3.767c2.452,1.262,3.743,3.661-0.641,5.414
				c5.678-1.854,7.813,1.229,8.67,3.18C139.361,95.558,137.283,94.54,135.409,93.954z"/>
			<path fill="#6D6E70" d="M131.991,92.561c0.211-0.422,0.698-0.566,1.12-0.356c0.395,0.214,0.563,0.7,0.354,1.122
				c-0.214,0.396-0.725,0.57-1.118,0.356C131.921,93.47,131.776,92.956,131.991,92.561L131.991,92.561z"/>
		</g>
		<g>
			<path fill="#6D6E70" d="M137.918,116.804c0,0,0.979,3.014-4.339,1.999c3.573,0.504,5.198-1.465,1.819-4.06
				c4.479,3.003,7.092,0.85,8.316-0.636C142.067,116.666,139.771,117.135,137.918,116.804z"/>
			<path fill="#6D6E70" d="M134.925,117.459c0.08,0.418,0.468,0.664,0.886,0.583c0.396-0.089,0.666-0.467,0.583-0.886
				c-0.086-0.396-0.485-0.673-0.886-0.584C135.09,116.652,134.836,117.061,134.925,117.459L134.925,117.459z"/>
		</g>
		<g>
			<path fill="#6D6E70" d="M154.375,116.093c0,0-0.983,3.02,4.334,2.005c-3.568,0.505-5.197-1.463-1.814-4.062
				c-4.483,3.005-7.096,0.85-8.318-0.633C150.223,115.959,152.518,116.431,154.375,116.093z"/>
			<path fill="#6D6E70" d="M157.369,116.752c-0.083,0.418-0.47,0.667-0.888,0.586c-0.396-0.089-0.664-0.469-0.584-0.888
				c0.088-0.398,0.488-0.673,0.887-0.584C157.203,115.946,157.455,116.354,157.369,116.752L157.369,116.752z"/>
		</g>
		<g>
			<path fill="#6D6E70" d="M157.247,92.134c0,0-2.36-2.124,2.753-3.902c-3.343,1.352-3.771,3.867,0.459,4.425
				c-5.385-0.359-6.565,2.811-6.886,4.711C153.721,94.327,155.475,92.774,157.247,92.134z"/>
			<path fill="#6D6E70" d="M159.511,90.065c-0.28-0.321-0.74-0.341-1.059-0.063c-0.301,0.275-0.344,0.738-0.063,1.06
				c0.271,0.301,0.759,0.337,1.06,0.065C159.77,90.848,159.786,90.365,159.511,90.065L159.511,90.065z"/>
		</g>
		<g>
			<path fill="#6D6E70" d="M157.418,110.56c0,0-0.547-4.162,6.129-1.562c-4.525-1.515-7.12,0.65-3.346,4.847
				c-5.108-4.988-9.023-2.813-10.979-1.177C151.985,109.736,155.083,109.679,157.418,110.56z"/>
			<path fill="#6D6E70" d="M161.474,110.423c-0.001-0.563-0.449-0.975-1.015-0.972c-0.535,0.02-0.977,0.45-0.972,1.014
				c0.019,0.536,0.474,0.993,1.012,0.973C161.064,111.436,161.496,110.965,161.474,110.423L161.474,110.423z"/>
		</g>
		<path fill="#6D6E70" d="M144.952,97.051c-0.258,3.846,1.263,7.69,0.96,10.522c-0.255,2.079-1.771-0.453-3.141-2.933
			c3.596,6.631,3.141,20.903-6.326,25.356c5.925-1.925,11.391-2.279,20.498-0.1c-5.616-1.978-14.626-13.565-6.578-26.775
			c-1.064,1.668-2.077,2.378-2.837,2.177C145.912,104.842,145.505,100.845,144.952,97.051L144.952,97.051z"/>
		<path fill="#6D6E70" d="M145.932,131.671c8.822,0,17.117,1.464,24.341,4.036c-6.624-3.529-15.101-5.644-24.341-5.644
			c-9.237,0-17.714,2.115-24.338,5.644C128.817,133.135,137.114,131.671,145.932,131.671z"/>
		<path fill="#6D6E70" d="M149.199,94.81c0.62,0.732,1.004,4.353-1.818,6.805l0,0c5.81-4.074,1.754-13.136-4.7-11.901
			c1.737,0.209,2.854,2.701,3.042,4.943c0.133,1.625,0.886,3.223,1.445,3.447C149.296,98.958,149.728,95.903,149.199,94.81"/>
		<path fill="#6D6E70" d="M139.903,99.691c0.761,0.122,2.883,2.124,2.442,5.089l0,0c1.413-5.51-5.783-8.908-9.067-4.791
			c1.172-0.779,3.146,0.153,4.43,1.419c0.931,0.92,2.221,1.501,2.678,1.345C142.126,102.166,140.795,100.08,139.903,99.691"/>
		<path fill="#6D6E70" d="M136.237,109.264c0.887-0.484,4.695-0.119,6.626,3.305l0,0c-2.976-6.842-13.16-4.568-13.25,2.338
			c0.583-1.747,3.383-2.372,5.732-2.091c1.702,0.201,3.508-0.239,3.857-0.767C140.532,110.034,137.474,108.946,136.237,109.264"/>
		<path fill="#6D6E70" d="M155.778,104.32c-0.939-0.191-4.299,1.215-5.088,4.873l0,0c0.774-7.059,10.668-7.86,12.693-1.611
			c-1.024-1.423-3.742-1.202-5.798-0.284c-1.489,0.663-3.25,0.773-3.714,0.391C152.093,106.233,154.566,104.383,155.778,104.32"/>
	</g>
</g>
<text transform="matrix(-0.0226 -0.8866 0.8984 0.4392 45.2361 125.4548)" fill="#28A5C9" font-family="'TrebuchetMS'" font-size="34.2027">Debug</text>
</svg>
