<?xml version="1.0" encoding="UTF-8" standalone="no"?>
<svg xmlns="http://www.w3.org/2000/svg" xmlns:xlink="http://www.w3.org/1999/xlink" version="1.1" x="0px" y="0px" width="75" height="150" xml:space="preserve">
	<defs>
		<linearGradient id="grad">
			<stop offset="0" style="stop-color:#dfe0e2;stop-opacity:0.9"/>
			<stop offset="1" style="stop-color:#dfe0e2;stop-opacity:0.4"/>
		</linearGradient>
		<radialGradient gradientUnits="userSpaceOnUse" gradientTransform="matrix(1,0,0,1.7761194,0,-57.044776)" r="33.5" fy="73.5" fx="37.5" cy="73.5" cx="37.5" id="radialBlur" xlink:href="#grad"/>
	</defs>
	<path style="fill:#ffffff" d="M 46.975806,0 37.5,0 28.024194,0 C 13.407258,0 0,1.428571 0,17.14286 L 0,131.42857 C 0,145.81633 13.004032,150 23.790323,150 L 37.5,150 51.209677,150 C 61.995968,150 75,145.81633 75,131.42857 L 75,17.14286 C 75,1.428571 61.592742,0 46.975806,0"/>
	<path style="fill:#000000" d="M 71,133 4,133 4,14 71,14 Z M 45.044113,144.48994 37.5,144.4898 l -7.544113,0 c -2.620968,0 -2.923387,-2.75511 -2.923387,-3.36735 0,-1.02041 1.008065,-1.32653 3.125,-1.32653 l 7.3425,0 7.3425,1.4e-4 c 2.116935,4e-5 3.125,0.20408 3.125,1.32653 0,0.61224 -0.302419,3.36735 -2.923387,3.36735 M 30.745968,5.714286 l 13.508064,0 c 0.403226,0 0.705645,0.306122 0.705645,0.714285 0,0.408164 -0.302419,0.714286 -0.705645,0.714286 l -13.508064,0 c -0.403226,0 -0.705645,-0.306122 -0.705645,-0.714286 0,-0.408163 0.302419,-0.714285 0.705645,-0.714285 M 59.375,7.040816 c 1.008065,0 1.814516,0.816327 1.814516,1.836734 0,1.02041 -0.806451,1.83674 -1.814516,1.83674 -1.008065,0 -1.814516,-0.81633 -1.814516,-1.83674 0,-1.020407 0.806451,-1.836734 1.814516,-1.836734 M 46.975806,0 37.5,0 28.024194,0 C 13.407258,0 0,1.428571 0,17.14286 L 0,131.42857 C 0,145.81633 13.004032,150 23.790323,150 L 37.5,150 51.209677,150 C 61.995968,150 75,145.81633 75,131.42857 L 75,17.14286 C 75,1.428571 61.592742,0 46.975806,0"/>
	<path style="fill:url(#radialBlur);fill-opacity:1.0" d="m 4,14 0,119 67,0 z"/>
</svg>