<?xml version="1.0" encoding="UTF-8" standalone="no"?>
<svg xmlns:svg="http://www.w3.org/2000/svg" xmlns="http://www.w3.org/2000/svg" version="1.1" width="449.33676" height="594.9469">
  <g transform="translate(-1.1920929e-7,3.0394831)">
    <g transform="matrix(2.4444706,0,0,2.4444706,-23.394057,6.9605169)" style="fill:#28A5C9;fill-opacity:1;fill-rule:nonzero">
      <path d="m 61.063,71.207 c 0,0 11.532,-18.867 -25.524,-20.985 24.589,2.636 32.157,18.777 5.347,30.715 C 75.693,68.11 89.479,87.192 95.174,99.384 88.449,79.167 73.964,72.093 61.063,71.207"/>
      <path d="m 42.236,61.647 c 1.229,-2.708 4.222,-3.731 6.872,-2.474 2.493,1.277 3.641,4.321 2.417,7.029 -1.248,2.549 -4.38,3.746 -6.872,2.471 -2.649,-1.256 -3.665,-4.477 -2.417,-7.026"/>
      <path d="m 84.75,30.024 c 0,0 -20.081,3.795 -9.122,-30.024 -6.223,22.863 4.949,35.181 24.378,15.358 C 77.067,42.017 88.604,60.903 97.048,70.191 82.107,57.22 81.061,41.847 84.75,30.024"/>
      <path d="m 83.076,9.917 c -2.736,0.162 -4.64,2.485 -4.479,5.283 0.232,2.667 2.433,4.743 5.169,4.578 2.606,-0.232 4.706,-2.613 4.474,-5.282 -0.158,-2.799 -2.556,-4.814 -5.164,-4.579"/>
      <path d="m 140.699,58.562 c 0,0 -13.046,-16.068 21.159,-22.805 -22.548,5.612 -27.599,21.6 -1.196,29.259 -33.953,-7.452 -44.429,12.069 -48.229,24.141 3.771,-19.67 16.373,-28.113 28.266,-30.595"/>
      <path d="m 157.036,47.245 c -1.477,-2.359 -4.388,-2.924 -6.694,-1.412 -2.165,1.506 -2.859,4.483 -1.387,6.845 1.475,2.213 4.534,2.921 6.696,1.414 2.308,-1.509 2.859,-4.634 1.385,-6.847"/>
      <path d="m 120.314,35.05 c 0,0 14.049,1.903 5.283,-21.145 5.106,15.624 -2.212,24.568 -16.368,11.529 16.826,17.651 9.482,31.162 3.949,37.907 9.906,-9.534 10.1,-20.23 7.136,-28.291"/>
      <path d="m 120.778,21.052 c 1.901,0.014 3.3,1.554 3.286,3.499 -0.066,1.856 -1.519,3.374 -3.42,3.363 -1.818,-0.067 -3.355,-1.646 -3.288,-3.502 0.014,-1.949 1.604,-3.43 3.422,-3.36"/>
      <path d="m 69.298,41.917 c 0,0 1.217,-10.135 -9.444,-11.775 7.492,3.941 11.443,11.449 -1.961,16.918 17.364,-5.78 23.878,3.849 26.502,9.953 C 81.382,46.934 75.03,43.75 69.298,41.917"/>
      <path d="m 58.847,37.565 c 0.647,-1.316 2.138,-1.775 3.429,-1.115 1.21,0.671 1.732,2.191 1.084,3.508 -0.652,1.238 -2.215,1.78 -3.426,1.109 -1.287,-0.659 -1.743,-2.266 -1.087,-3.502"/>
      <path d="m 76.973,113.353 c 0,0 2.996,9.433 -13.257,6.261 10.916,1.576 15.89,-4.57 5.555,-12.698 13.7,9.392 21.68,2.661 25.43,-1.981 -5.043,8.002 -12.055,9.461 -17.728,8.418"/>
      <path d="m 67.819,115.41 c 0.246,1.308 1.434,2.08 2.709,1.831 1.214,-0.28 2.032,-1.47 1.789,-2.776 -0.271,-1.241 -1.5,-2.104 -2.71,-1.828 -1.279,0.252 -2.058,1.532 -1.788,2.773"/>
      <path d="m 127.277,111.145 c 0,0 -2.996,9.433 13.257,6.258 -10.916,1.573 -15.89,-4.57 -5.555,-12.695 -13.7,9.389 -21.68,2.658 -25.429,-1.984 5.042,7.999 12.054,9.461 17.727,8.421"/>
      <path d="m 136.432,113.199 c -0.246,1.308 -1.431,2.083 -2.711,1.828 -1.213,-0.277 -2.032,-1.467 -1.789,-2.772 0.272,-1.241 1.497,-2.102 2.714,-1.825 1.276,0.248 2.057,1.528 1.786,2.769"/>
      <path d="m 136.064,36.229 c 0,0 -7.21,-6.635 8.417,-12.203 -10.223,4.221 -11.525,12.089 1.4,13.833 -16.458,-1.118 -20.073,8.793 -21.048,14.732 0.454,-9.508 5.811,-14.363 11.231,-16.362"/>
      <path d="m 142.984,29.764 c -0.853,-1.009 -2.259,-1.068 -3.243,-0.196 -0.912,0.858 -1.038,2.312 -0.188,3.315 0.841,0.936 2.324,1.056 3.239,0.195 0.985,-0.871 1.033,-2.377 0.192,-3.314"/>
      <path d="m 136.593,93.841 c 0,0 -1.681,-13.02 18.727,-4.883 -13.833,-4.738 -21.758,2.035 -10.219,15.155 -15.625,-15.597 -27.59,-8.802 -33.567,-3.681 8.449,-9.171 17.92,-9.344 25.059,-6.591"/>
      <path d="m 148.99,93.416 c -0.015,-1.761 -1.376,-3.058 -3.1,-3.047 -1.644,0.062 -2.991,1.412 -2.979,3.17 0.06,1.68 1.453,3.105 3.1,3.046 1.723,-0.011 3.039,-1.486 2.979,-3.169"/>
      <path d="m 101.477,159.849 c 26.971,0 52.324,4.576 74.404,12.614 -20.243,-11.029 -46.157,-17.645 -74.404,-17.645 -28.243,0 -54.157,6.616 -74.4,17.645 22.078,-8.039 47.436,-12.614 74.4,-12.614"/>
      <path d="m 111.462,44.592 c 1.894,2.295 3.065,13.615 -5.562,21.282 17.763,-12.743 5.366,-41.07 -14.368,-37.216 5.322,0.666 8.728,8.444 9.294,15.457 0.415,5.084 2.711,10.076 4.421,10.777 6.513,2.677 7.835,-6.882 6.215,-10.3"/>
      <path d="m 83.044,59.853 c 2.324,0.386 8.81,6.652 7.467,15.915 4.31,-17.226 -17.676,-27.85 -27.72,-14.981 3.575,-2.435 9.618,0.486 13.538,4.447 2.843,2.874 6.787,4.685 8.187,4.201 5.325,-1.843 1.258,-8.366 -1.472,-9.582"/>
      <path d="m 71.829,89.785 c 2.714,-1.512 14.362,-0.366 20.27,10.333 -9.101,-21.394 -40.245,-14.289 -40.513,7.317 1.789,-5.467 10.343,-7.421 17.525,-6.546 5.208,0.634 10.721,-0.738 11.788,-2.393 4.068,-6.296 -5.283,-9.7 -9.07,-8.711"/>
      <path d="m 131.574,74.334 c -2.88,-0.592 -13.146,3.807 -15.562,15.225 2.369,-22.05 32.614,-24.574 38.81,-5.031 -3.128,-4.447 -11.436,-3.757 -17.722,-0.892 -4.553,2.077 -9.937,2.42 -11.362,1.224 -5.429,-4.545 2.123,-10.336 5.836,-10.526"/>    
      <path d="m 98.468,51.599 c -0.773,12.027 3.867,24.049 2.939,32.912 -0.773,6.49 -5.413,-1.42 -9.591,-9.173 10.985,20.728 9.591,65.354 -19.342,79.279 18.105,-6.018 34.813,-7.125 62.664,-0.318 -17.176,-6.174 -44.715,-42.409 -20.116,-83.709 -3.245,5.221 -6.339,7.435 -8.663,6.803 -4.952,-1.427 -6.189,-13.926 -7.891,-25.794" style="fill:#6D6E70" />
    </g>
    <text x="4.3804092" y="552.40454" xml:space="preserve" style="font-size:143.86152649px;font-style:normal;font-variant:normal;font-weight:bold;font-stretch:normal;line-height:125%;letter-spacing:0px;word-spacing:0px;fill:#28A5C9;fill-opacity:1;stroke:none;font-family:Trebuchet MS">Sapelli</text>
  </g>
</svg>
