<?xml version="1.0" ?><svg height="13px" version="1.1" viewBox="0 0 24 13" width="24px" xmlns="http://www.w3.org/2000/svg" xmlns:sketch="http://www.bohemiancoding.com/sketch/ns" xmlns:xlink="http://www.w3.org/1999/xlink"><title/><desc/><defs/><g fill="none" fill-rule="evenodd" id="Page-1" stroke="none" stroke-width="1"><g fill="#000000" id="Icons-Communication" transform="translate(-208.000000, -129.000000)"><g id="voicemail" transform="translate(208.000000, 129.500000)"><path d="M18.5,0 C15.5,0 13,2.5 13,5.5 C13,6.8 13.5,8 14.3,9 L9.7,9 C10.5,8 11,6.8 11,5.5 C11,2.5 8.5,0 5.5,0 C2.5,0 0,2.5 0,5.5 C0,8.5 2.5,11 5.5,11 L18.5,11 C21.5,11 24,8.5 24,5.5 C24,2.5 21.5,0 18.5,0 L18.5,0 Z M5.5,9 C3.6,9 2,7.4 2,5.5 C2,3.6 3.6,2 5.5,2 C7.4,2 9,3.6 9,5.5 C9,7.4 7.4,9 5.5,9 L5.5,9 Z M18.5,9 C16.6,9 15,7.4 15,5.5 C15,3.6 16.6,2 18.5,2 C20.4,2 22,3.6 22,5.5 C22,7.4 20.4,9 18.5,9 L18.5,9 Z" id="Shape"/></g></g></g></svg>