<?xml version="1.0" encoding="utf-8"?>
<!-- Generator: Adobe Illustrator 16.0.0, SVG Export Plug-In . SVG Version: 6.00 Build 0)  -->
<!DOCTYPE svg PUBLIC "-//W3C//DTD SVG 1.1//EN" "http://www.w3.org/Graphics/SVG/1.1/DTD/svg11.dtd">
<svg version="1.1" id="Layer_1" xmlns="http://www.w3.org/2000/svg" xmlns:xlink="http://www.w3.org/1999/xlink" x="0px" y="0px"
	 width="50px" height="50px" viewBox="0 0 50 50" enable-background="new 0 0 50 50" xml:space="preserve">
<path d="M25.446,19.101c-4.926,0-8.936,4.009-8.936,8.936s4.009,8.936,8.936,8.936c4.926,0,8.936-4.009,8.936-8.936
	C34.382,23.107,30.374,19.101,25.446,19.101z M26.52,22.586c-3.505,0-6.345,2.841-6.345,6.345c0,1.712,0.685,3.259,1.789,4.401
	c-1.721-1.134-2.861-3.08-2.861-5.295c0-3.506,2.841-6.345,6.345-6.345c1.789,0,3.4,0.748,4.556,1.941
	C29.002,22.974,27.807,22.586,26.52,22.586z M6.951,37.42H0.5V15.974h6.451V37.42z M46.641,10.073H33.757V9.54
	c0-1.578-1.282-2.859-2.859-2.859H19.103c-1.578,0-2.859,1.281-2.859,2.859v0.533h-2.961c-0.32-1.229-1.428-2.142-2.758-2.142H6.236
	c-1.33,0-2.438,0.913-2.758,2.142H3.359c-1.578,0-2.859,1.281-2.859,2.859v0.896h7.523c0.592,0,1.072,0.48,1.072,1.072v23.591
	c0,0.592-0.48,1.072-1.072,1.072H0.5v0.896c0,1.578,1.281,2.859,2.859,2.859h2.877h4.289h8.578h11.795h15.743
	c1.579,0,2.859-1.281,2.859-2.859V12.933C49.5,11.354,48.221,10.073,46.641,10.073z M25.446,39.829
	c-6.503,0-11.795-5.291-11.795-11.795c0-6.502,5.292-11.795,11.795-11.795c6.504,0,11.795,5.292,11.795,11.795
	C37.241,34.538,31.95,39.829,25.446,39.829z"/>
</svg>
