<?xml version="1.0" encoding="UTF-8" standalone="no"?>
<svg xmlns:svg="http://www.w3.org/2000/svg" xmlns="http://www.w3.org/2000/svg" version="1.0" x="0px" y="0px" width="70.531647" height="96">
	<g transform="matrix(1.3333519,0,0,1.3333519,-28.7124,-16.009556)">
		<path d="m 36.656,45.439 0,-22.094 c 0,-6.262 5.08,-11.338 11.341,-11.338 6.261,0 11.338,5.076 11.338,11.338 l 0,22.094 c 0,6.264 -5.077,11.338 -11.338,11.338 -6.261,0 -11.341,-5.074 -11.341,-11.338 z m 37.776,0.405 -7.764,0 c 0,10.312 -8.355,18.668 -18.671,18.668 -10.316,0 -18.671,-8.355 -18.671,-18.668 l -7.792,0 c 0,13.324 9.854,24.346 22.671,26.18 l 0,11.982 7.854,0 0,-12.024 C 64.734,70.02 74.432,59.068 74.432,45.844 Z" style="clip-rule:evenodd;fill:#000000;fill-rule:evenodd"/>
	</g>
</svg>