<?xml version="1.0" encoding="utf-8"?>
<!-- Generator: Adobe Illustrator 16.0.3, SVG Export Plug-In . SVG Version: 6.00 Build 0)  -->
<!DOCTYPE svg PUBLIC "-//W3C//DTD SVG 1.1//EN" "http://www.w3.org/Graphics/SVG/1.1/DTD/svg11.dtd">
<svg version="1.1" id="Layer_1" xmlns="http://www.w3.org/2000/svg" xmlns:xlink="http://www.w3.org/1999/xlink" x="0px" y="0px"
	 width="449.388px" height="449.387px" viewBox="0 0 449.388 449.387" enable-background="new 0 0 449.388 449.387"
	 xml:space="preserve">
<g>
	<path fill="#999999" d="M224.694,0C100.599,0,0,100.599,0,224.693c0,124.094,100.599,224.693,224.694,224.693
		c124.094,0,224.693-100.6,224.693-224.693C449.388,100.599,348.788,0,224.694,0z M248.62,417.739l-24.209-23.775l-24.093,22.949
		C112.168,406.157,42.249,336.364,31.3,248.272l23.44-23.866l-22.614-23.74c10.757-88.15,80.549-158.07,168.64-169.019
		l24.209,23.777v-0.695l24.094-22.95c88.15,10.757,158.069,80.549,169.019,168.64l-23.776,24.209l22.95,24.093
		C406.504,336.872,336.711,406.79,248.62,417.739z"/>
</g>
<g>
	<path fill="#999999" d="M190.989,224.543l33.086,139.377l34.322-139.077L225.312,85.467L190.989,224.543z M233.2,242.666
		c-9.925,4.697-21.78,0.459-26.478-9.466c-4.698-9.925-0.461-21.78,9.464-26.478c9.924-4.698,21.782-0.461,26.479,9.464
		C247.363,226.111,243.124,237.968,233.2,242.666z"/>
</g>
</svg>
