<?xml version="1.0" encoding="utf-8"?>
<!-- Generator: Adobe Illustrator 16.0.3, SVG Export Plug-In . SVG Version: 6.00 Build 0)  -->
<!DOCTYPE svg PUBLIC "-//W3C//DTD SVG 1.1//EN" "http://www.w3.org/Graphics/SVG/1.1/DTD/svg11.dtd">
<svg version="1.1" id="Layer_1" xmlns="http://www.w3.org/2000/svg" xmlns:xlink="http://www.w3.org/1999/xlink" x="0px" y="0px"
	 width="262.628px" height="336.822px" viewBox="0 0 262.628 336.822" enable-background="new 0 0 262.628 336.822"
	 xml:space="preserve">
<path fill="#AFAFAF" d="M58.468,215.787h-0.002c-15.926,0-28.838,14.669-28.838,32.765c0.402,14.042,28.838,70.514,28.838,70.514
	h0.002c0,0,28.436-56.472,28.838-70.514C87.306,230.456,74.394,215.787,58.468,215.787z M58.467,261.926
	c-8.217,0-14.878-6.662-14.878-14.878c0-8.217,6.661-14.879,14.878-14.879s14.878,6.662,14.878,14.879
	C73.345,255.264,66.684,261.926,58.467,261.926z"/>
<circle fill="none" cx="58.467" cy="247.048" r="14.878"/>
<polyline fill="none" stroke="#AFAFAF" stroke-width="6" stroke-miterlimit="10" points="80.896,299.103 110.441,333.822 
	58.467,333.822 6.492,333.822 36.036,299.103 "/>
<polygon fill="#AFAFAF" points="198.442,71.514 155.889,113.901 147.277,107.604 138.667,101.31 166.153,47.905 "/>
<path fill="none" stroke="#AFAFAF" stroke-width="6" stroke-miterlimit="10" d="M124.668,104.644c0,0,6.267,21.926,32.289,23.609"/>
<path fill="none" stroke="#AFAFAF" stroke-width="6" stroke-miterlimit="10" d="M108.752,114.55c0,0,11.353,25.645,43.591,31.873"/>
<path fill="none" stroke="#AFAFAF" stroke-width="6" stroke-miterlimit="10" d="M90.811,124.347c0,0,17.674,30.266,57.639,42.145"/>
<g>
	<polygon fill="none" stroke="#AFAFAF" stroke-width="8" stroke-miterlimit="10" points="104.315,5.59 139.591,31.382 
		149.402,56.071 144.852,62.296 140.3,68.522 113.798,66.658 78.522,40.866 	"/>
	<polygon fill="none" stroke="#AFAFAF" stroke-width="8" stroke-miterlimit="10" points="257.038,117.257 221.763,91.465 
		195.261,89.601 190.709,95.826 186.158,102.052 195.97,126.741 231.245,152.533 	"/>
</g>
</svg>
