<?xml version="1.0" encoding="UTF-8" standalone="no"?>
<svg xmlns:svg="http://www.w3.org/2000/svg" xmlns="http://www.w3.org/2000/svg" version="1.1" width="449.33676" height="591.90741">
  <g transform="matrix(1.25,0,0,-1.25,-21.693249,551.35125)">
    <g transform="scale(0.1,0.1)">
      <g style="fill:#4aa9cd;fill-opacity:1;fill-rule:nonzero">
        <path d="m 1180.56,2918.62 c 0,0 225.48,360.78 -499.173,401.27 480.843,-50.37 628.823,-358.99 104.57,-587.29 680.673,245.21 950.253,-119.64 1061.663,-352.69 -131.56,386.51 -414.83,521.79 -667.06,538.71"/>
        <path d="m 812.344,3101.45 c 24.023,51.77 82.566,71.3 134.367,47.26 48.785,-24.41 71.239,-82.61 47.273,-134.39 -24.406,-48.75 -85.617,-71.65 -134.367,-47.25 -51.824,24.03 -71.679,85.59 -47.273,134.38 l 0,0"/>
        <path d="m 1647.26,3740.74 c 0,0 -398.25,-29.44 -114.91,590.07 -168.49,-421.35 23.08,-679.25 442.01,-343.75 -501.41,-458 -316.34,-841.49 -171.53,-1035.96 -263.45,278.33 -251.88,572.76 -155.57,789.64"/>
        <path d="m 1656.5,4126.5 c -53.52,2.71 -95.36,-37.39 -98.04,-90.92 -1.06,-51.19 37.45,-95.29 90.93,-98.04 51.19,-1.06 96.96,39.75 98,90.92 2.76,53.55 -39.7,96.95 -90.89,98.04 l 0,0"/>
        <path d="m 2737.86,3160.43 c 0,0 -255.1,307.22 413.82,436.05 -440.93,-107.32 -539.76,-413.02 -23.41,-559.44 -663.99,142.48 -868.85,-230.81 -943.17,-461.59 73.77,376.08 320.22,537.55 552.76,584.98"/>
        <path d="m 3057.35,3376.8 c -28.87,45.16 -85.78,55.94 -130.94,27.07 -42.3,-28.83 -55.88,-85.81 -27.05,-130.96 28.83,-42.28 88.65,-55.88 130.9,-27.01 45.21,28.83 55.9,88.61 27.09,130.9 l 0,0"/>
        <path d="m 1308.51,2453.82 c 0,0 36.62,274.75 -404.225,103.65 298.845,99.6 469.765,-43.64 220.195,-320.29 337.81,328.79 596.03,184.95 724.87,76.68 -182.13,193.88 -386.63,197.86 -540.84,139.96"/>
        <path d="m 1040.82,2463.12 c 0.29,37.2 29.78,64.55 66.98,64.24 35.53,-1.35 64.53,-29.84 64.23,-67.01 -1.33,-35.5 -31.48,-65.56 -66.98,-64.21 -37.23,0.29 -65.57,31.47 -64.23,66.98 l 0,0"/>
        <path d="m 2290.18,3638.04 c 0,0 274.81,-36.41 103.34,404.3 99.86,-298.78 -43.28,-469.8 -320.12,-220.47 329.07,-337.53 185.43,-595.86 77.27,-724.79 193.73,182.28 197.54,386.8 139.51,540.96"/>
        <path d="m 2299.28,3905.71 c 37.19,-0.26 64.55,-29.73 64.28,-66.93 -1.29,-35.52 -29.77,-64.54 -66.93,-64.3 -35.51,1.32 -65.59,31.47 -64.3,66.98 0.27,37.19 31.44,65.58 66.95,64.25 l 0,0"/>
        <path d="m 1349.66,3375.22 c 0,0 67.65,202.92 -149.39,281.85 140.94,-112.74 192.71,-283.66 -111.45,-338.98 388.57,44.87 485.36,-180.49 515.15,-316.95 -21.41,219.72 -141.56,312.08 -254.31,374.08"/>
        <path d="m 1148.33,3508.96 c 19.05,24.31 52.29,27.33 76.57,8.27 22.66,-18.87 27.27,-52.3 8.25,-76.58 -18.88,-22.65 -53.93,-27.12 -76.56,-8.24 -24.32,19.05 -27.14,53.91 -8.26,76.55 l 0,0"/>
        <path d="m 2034.54,3429.29 c 0,0 124.31,83.19 38.18,219.75 29.61,-122.66 -14.98,-239.3 -206.79,-139.59 233.98,-141.64 190.93,-307.66 148.94,-395.82 82.28,130.61 55.43,233.09 19.67,315.66"/>
        <path d="m 1980.55,3589.45 c 20.96,5.25 40.63,-7.31 45.88,-28.24 4.45,-20.14 -7.32,-40.58 -28.22,-45.86 -20.16,-4.43 -41.43,8.13 -45.87,28.24 -5.26,20.95 8.09,41.43 28.21,45.86 l 0,0"/>
        <path d="m 1491.66,2112.7 c 0,0 58.57,-180.4 -259.25,-119.68 213.44,-30.13 310.77,87.4 108.63,242.75 267.95,-179.55 423.99,-50.84 497.31,37.95 -98.61,-152.99 -235.76,-180.93 -346.69,-161.02"/>
        <path d="m 1312.64,2073.39 c 4.8,-25.01 28.03,-39.76 53.03,-34.97 23.72,5.31 39.73,28.06 34.96,53.04 -5.31,23.72 -29.31,40.24 -53.03,34.93 -25,-4.79 -40.23,-29.25 -34.96,-53 l 0,0"/>
        <path d="m 2475.4,2154.99 c 0,0 -58.58,-180.41 259.25,-119.69 -213.43,-30.13 -310.76,87.39 -108.63,242.77 -267.97,-179.57 -423.96,-50.86 -497.3,37.92 98.63,-152.99 235.76,-180.92 346.68,-161"/>
        <path d="m 2654.42,2115.66 c -4.79,-25.01 -28.01,-39.75 -53.03,-34.95 -23.71,5.29 -39.71,28.04 -34.94,53.03 5.31,23.72 29.3,40.24 53.03,34.93 25,-4.79 40.23,-29.25 34.94,-53.01 l 0,0"/>
        <path d="m 2647.27,3587.48 c 0,0 -141.02,126.88 164.57,233.32 -199.86,-80.69 -225.35,-231.16 27.4,-264.51 -321.85,21.37 -392.54,-168.12 -411.64,-281.7 8.87,181.82 113.64,274.62 219.67,312.89"/>
        <path d="m 2782.56,3711.08 c -16.66,19.25 -44.16,20.41 -63.39,3.74 -17.9,-16.45 -20.36,-44.16 -3.72,-63.39 16.45,-17.9 45.49,-20.2 63.38,-3.74 19.26,16.65 20.2,45.49 3.73,63.39 l 0,0"/>
        <path d="m 2658.34,2776.23 c 0,0 -40.35,185.34 269.87,93.27 -209.38,51.22 -317.95,-56.02 -132.25,-230.74 -248.77,205.34 -416.81,92.83 -498.63,11.79 113.36,142.39 252.58,156.53 361.01,125.68"/>
        <path d="m 2840.38,2797.53 c -2.31,25.36 -23.95,42.36 -49.28,40.07 -24.16,-2.91 -42.35,-23.96 -40.08,-49.29 2.93,-24.14 25.14,-42.95 49.3,-40.05 25.35,2.29 42.95,25.13 40.06,49.27 l 0,0"/>
        <path d="m 2657.56,2485.86 c 0,0 -32.81,248.9 366.21,93.35 -270.5,90.6 -425.48,-38.91 -199.84,-289.76 -305.51,298.19 -539.51,168.25 -656.37,70.38 165.2,175.34 350.43,178.67 490,126.03"/>
        <path d="m 2900.02,2493.94 c -0.27,33.71 -26.91,58.53 -60.6,58.28 -32.17,-1.18 -58.48,-26.96 -58.26,-60.61 1.17,-32.15 28.43,-59.41 60.6,-58.23 33.66,0.2 59.42,28.4 58.26,60.56 l 0,0"/>
        <path d="m 1970.88,1223.68 c 527.41,0 1023.23,-87.5 1455,-241.2 -395.84,210.84 -902.61,337.41 -1455,337.41 -552.34,0 -1059.103,-126.57 -1454.974,-337.41 431.762,153.7 927.634,241.2 1454.974,241.2"/>
      </g>
      <path d="m 1912.02,3293.57 c -15.12,-229.95 75.64,-459.89 57.52,-629.33 -15.17,-124.09 -105.89,27.18 -187.62,175.44 214.84,-396.34 187.62,-1249.66 -378.22,-1515.91 354.04,114.98 680.82,136.18 1225.47,6.04 -335.92,118.05 -874.49,810.92 -393.38,1600.65 -63.54,-99.82 -124.03,-142.18 -169.44,-130.09 -96.81,27.23 -121.04,266.26 -154.33,493.2 l 0,0" style="fill:#656263;fill-opacity:1;fill-rule:nonzero;stroke:none"/>
    </g>
    <g transform="scale(1,-1)" style="fill:#4aa9cd">
      <path d="m 25.354599,-3.7092304 5.394807,-13.0936466 c 5.769431,4.046119 11.445212,6.06917 17.02736,6.069158 8.579207,1.2e-5 12.868823,-2.9971 12.868863,-8.991345 -4e-5,-2.809772 -1.011565,-5.488441 -3.034579,-8.036015 -2.023087,-2.547516 -6.190946,-5.404139 -12.503589,-8.569876 -6.312692,-3.165662 -10.564844,-5.769403 -12.756471,-7.811231 -2.19165,-2.041737 -3.877525,-4.467525 -5.057632,-7.27737 -1.180119,-2.80974 -1.770176,-5.919244 -1.770171,-9.32852 -5e-6,-6.368802 2.332123,-11.651212 6.996391,-15.847246 4.664244,-4.19588 10.649102,-6.293858 17.954592,-6.293942 9.515801,8.4e-5 16.502819,1.779619 20.961073,5.338611 l -4.439476,12.587884 c -5.132601,-3.671397 -10.546135,-5.507128 -16.240618,-5.507199 -3.371781,7.1e-5 -5.984888,0.889839 -7.839329,2.669305 -1.854485,1.779604 -2.781716,4.093 -2.781697,6.940195 -1.9e-5,4.720513 5.226195,9.628284 15.678658,14.723328 5.507159,2.697447 9.478332,5.179431 11.913532,7.445957 2.435107,2.266606 4.28957,4.907811 5.563395,7.923623 1.27372,3.015876 1.910607,6.378261 1.910661,10.087166 -5.4e-5,6.668595 -2.631893,12.157057 -7.895525,16.4654005 C 62.04112,0.09336012 54.98854,2.2475344 46.147085,2.2475358 38.46696,2.2475344 31.536138,0.26194767 25.354599,-3.7092304 z"/>
      <path d="m 120.83145,-5.1703239 c -1.27382,2.0979844 -3.49355,3.8119579 -6.65922,5.14192547 -3.16573,1.32996933 -6.47192,1.99495363 -9.91858,1.99495473 -6.481276,-1.1e-6 -11.576367,-1.62031485 -15.285284,-4.860946 -3.708935,-3.2406237 -5.563398,-7.8393173 -5.563395,-13.7960953 -3e-6,-6.968268 2.613104,-12.419266 7.839329,-16.353009 5.226203,-3.933676 12.65342,-5.90053 22.28168,-5.90057 1.64838,4e-5 3.5965,0.281019 5.84437,0.842938 -4e-5,-7.080638 -4.47697,-10.620977 -13.43082,-10.621026 -5.28244,4.9e-5 -9.703176,0.880451 -13.262234,2.641208 L 89.642717,-56.98295 c 4.832833,-2.322704 10.583543,-3.484085 17.252143,-3.484147 9.17863,6.2e-5 15.9034,2.088674 20.17433,6.265844 4.27084,4.17728 6.40628,12.091529 6.40633,23.742771 l 0,12.868863 c -5e-5,8.0172927 1.6109,13.0561874 4.83285,15.1166986 -1.16144,2.02305396 -2.45394,3.26872866 -3.87751,3.7370278 -1.42369,0.4682984 -3.05337,0.7024478 -4.88905,0.7024489 -2.0231,-1.1e-6 -3.8401,-0.7492792 -5.451,-2.24783631 -1.61099,-1.49855489 -2.69745,-3.12823459 -3.25936,-4.88904389 z m -1.34871,-22.3097751 c -2.39773,-0.487003 -4.19599,-0.730518 -5.3948,-0.730547 -11.08935,2.9e-5 -16.63401,3.634027 -16.633992,10.902006 -1.8e-5,5.39482 3.128222,8.0922208 9.384712,8.0922107 8.42936,1.01e-5 12.64404,-4.2146787 12.64408,-12.6440787 z"/>
      <path d="m 161.62968,-0.67465136 0,25.11957036 -14.04898,0 0,-83.788098 14.04898,0 0,4.046106 c 3.52159,-3.446623 7.84867,-5.169962 12.98125,-5.170024 19.18149,6.2e-5 28.77225,10.564882 28.77231,31.694492 -6e-5,9.853035 -2.65063,17.439475 -7.95172,22.7593424 -5.3012,5.3198808 -12.5411,7.9798178 -21.71972,7.9798189 -4.42077,-1.1e-6 -8.44814,-0.8804028 -12.08212,-2.64120766 z m 0,-43.94519964 0,31.638296 c 2.54752,2.060528 5.5259,3.0907856 8.93515,3.0907748 6.48122,1.08e-5 11.13611,-1.5453748 13.96468,-4.6361628 2.82848,-3.090756 4.24275,-7.970429 4.24279,-14.639033 -4e-5,-7.118111 -1.40494,-12.128908 -4.21469,-15.032406 -2.80984,-2.903407 -7.45536,-4.355133 -13.93659,-4.355182 -3.37178,4.9e-5 -6.36889,1.311286 -8.99134,3.933713 z"/>
      <path d="m 269.41343,-24.951283 -42.98987,0 c 0.26223,4.795405 1.91064,8.523063 4.94524,11.182985 3.03455,2.659952 7.11812,3.9899203 12.25071,3.9899097 6.40629,1.06e-5 11.2766,-1.6671327 14.61093,-5.0014357 l 5.45101,10.7334182 c -4.9453,4.00864227 -12.32568,6.012961 -22.14119,6.0129621 -9.17869,-1.1e-6 -16.43732,-2.68803602 -21.77592,-8.0641127 -5.33861,-5.3760626 -8.00792,-12.8782086 -8.00791,-22.5064606 -1e-5,-9.478338 2.93154,-17.158437 8.79466,-23.040322 5.86308,-5.88178 12.89693,-8.822696 21.10156,-8.822758 8.72905,6.2e-5 15.7348,2.603803 21.01727,7.811231 5.28235,5.207536 7.92356,11.838647 7.92362,19.893352 -6e-5,1.723373 -0.39343,4.327114 -1.18011,7.811231 z m -42.48411,-10.564831 29.55905,0 c -0.97411,-8.80398 -5.84442,-13.205989 -14.61094,-13.206038 -8.01731,4.9e-5 -13,4.402058 -14.94811,13.206038 z"/>
      <path d="m 284.19294,-81.765346 14.04898,-3.371754 0,67.659872 c -2e-5,7.417871 2.21035,11.8386113 6.63112,13.2622345 -2.17294,4.12103412 -5.88186,6.1815487 -11.12679,6.1815498 -6.36888,-1.1e-6 -9.55332,-4.4207414 -9.55331,-13.2622343 z"/>
      <path d="m 318.13527,-81.765346 14.04897,-3.371754 0,67.659872 c -2e-5,7.417871 2.21035,11.8386113 6.63112,13.2622345 -2.17294,4.12103412 -5.88186,6.1815487 -11.12679,6.1815498 -6.36888,-1.1e-6 -9.55331,-4.4207414 -9.5533,-13.2622343 z"/>
      <path d="m 360.67559,-82.66448 c 2.24782,8.3e-5 4.16784,0.796191 5.76008,2.388326 1.59219,1.592297 2.3883,3.512322 2.38833,5.76008 -3e-5,2.24791 -0.79614,4.167935 -2.38833,5.760081 -1.59224,1.592285 -3.51226,2.388393 -5.76008,2.388326 -2.24785,6.7e-5 -4.16788,-0.796041 -5.76008,-2.388326 -1.59223,-1.592146 -2.38833,-3.512171 -2.38832,-5.760081 -1e-5,-2.247758 0.79609,-4.167783 2.38832,-5.76008 1.5922,-1.592135 3.51223,-2.388243 5.76008,-2.388326 z m -7.24927,83.50711813 0,-48.66565613 -7.69884,0 0,-11.520161 21.9164,0 0,60.18581713 z"/>
    </g>
  </g>
</svg>
