<?xml version="1.0" encoding="UTF-8" standalone="no"?>
<svg
   xmlns:svg="http://www.w3.org/2000/svg"
   xmlns="http://www.w3.org/2000/svg"
   version="1.1"
   x="0px"
   y="0px"
   width="325.00003"
   height="360"
   viewBox="0 0 325.00003 360">
  <g transform="matrix(1.0009024,0,0,0.99999444,-74.93456,-55.998689)">
    <path d="m 378.405,112.468 -63.602,0 c 0.014,-0.436 0.07,-0.872 0.07,-1.324 l 0,-12.797 c 0,-23.281 -19.07,-42.348 -42.352,-42.348 l -70.594,0 c -23.299,0 -42.352,19.066 -42.352,42.348 l 0,12.797 c 0,0.452 0.053,0.889 0.068,1.324 l -63.6,0 c -11.648,0 -21.176,9.535 -21.176,21.176 l 0,21.171 c 0,11.653 9.527,21.188 21.176,21.188 l 7.062,0 0,-14.126 268.235,0 0,14.126 7.064,0 c 11.641,0 21.17,-9.535 21.17,-21.188 l 0,-21.171 c 10e-4,-11.641 -9.529,-21.176 -21.169,-21.176 z m -183.752,-21.171 84.703,0 0,21.171 -84.703,0 0,-21.171 z" />
    <path d="m 117.225,183.062 0,211.751 c 0,11.658 9.523,21.188 21.18,21.188 l 197.639,0 c 11.65,0 21.18,-9.53 21.18,-21.188 l 0,-211.751 -239.999,0 z m 70.586,187.05 c 0,3.888 -3.18,7.059 -7.055,7.059 l -14.117,0 c -3.891,0 -7.062,-3.171 -7.062,-7.059 l 0,-141.174 c 0,-3.874 3.172,-7.062 7.062,-7.062 l 14.117,0 c 3.875,0 7.055,3.188 7.055,7.062 l 0,141.174 z m 63.531,0 c 0,3.888 -3.189,7.059 -7.055,7.059 l -14.125,0 c -3.883,0 -7.055,-3.171 -7.055,-7.059 l 0,-141.174 c 0,-3.874 3.172,-7.062 7.055,-7.062 l 14.125,0 c 3.865,0 7.055,3.188 7.055,7.062 l 0,141.174 z m 63.532,0 c 0,3.888 -3.189,7.059 -7.062,7.059 l -14.117,0 c -3.885,0 -7.055,-3.171 -7.055,-7.059 l 0,-141.174 c 0,-3.874 3.17,-7.062 7.055,-7.062 l 14.117,0 c 3.873,0 7.062,3.188 7.062,7.062 l 0,141.174 z" />
  </g>
</svg>
