<?xml version="1.0" encoding="UTF-8" standalone="no"?>
<svg fill="#000000" height="36" viewBox="0 0 24 24" width="36" version="1.1" xmlns="http://www.w3.org/2000/svg">
  <path
     d="m 4.0000001,2 c -1.1,0 -1.9895834,0.9 -1.9895834,2 L 2,22 6.0000001,18 20,18 c 1.1,0 2,-0.9 2,-2 L 22,4 C 22,2.9 21.1,2 20,2 L 4.0000001,2 Z M 10.399739,6 12,6 l 0,3.200521 1.600261,0 a 1.6,1.6 0 0 1 1.60026,1.598958 l 0,1.60026 A 1.6,1.6 0 0 1 13.600261,14 L 12,14 a 1.6,1.6 0 0 1 -1.600261,-1.600261 l 0,-6.399739 z m -4.7994789,3.200521 1.600261,0 a 1.6,1.6 0 0 1 1.598958,1.598958 l 0,3.200521 -3.199219,0 a 1.6,1.6 0 0 1 -1.60026,-1.600261 l 0,-1.60026 a 1.6,1.6 0 0 1 1.60026,-1.598958 z m 12.7994789,0 1.600261,0 0,1.598958 -1.600261,0 0,1.60026 1.600261,0 L 20,14 18.399739,14 a 1.6,1.6 0 0 1 -1.60026,-1.600261 l 0,-1.60026 a 1.6,1.6 0 0 1 1.60026,-1.598958 z m -12.7994789,1.598958 0,1.60026 1.600261,0 0,-1.60026 -1.600261,0 z m 6.3997399,0 0,1.60026 1.600261,0 0,-1.60026 -1.600261,0 z"/>
  <path fill="none" d="M0 0h24v24H0z"/>
</svg>
