<?xml version="1.0" encoding="UTF-8" standalone="no"?>
<svg fill="#000000" height="36" viewBox="0 0 24 24" width="36" version="1.1" xmlns="http://www.w3.org/2000/svg">
  <path
     d="m 4.0000001,2 c -1.1,0 -1.9895834,0.9 -1.9895834,2 L 2,22 6.0000001,18 20,18 c 1.1,0 2,-0.9 2,-2 L 22,4 C 22,2.9 21.1,2 20,2 L 4.0000001,2 Z m 0,4 3.200521,0 0,8 -1.600261,0 0,-6.399739 -1.60026,0 0,-1.600261 z m 7.2005209,0 1.60026,0 c 0.883656,0 1.598958,0.716605 1.598958,1.600261 l 0,4.799478 C 14.399739,13.283395 13.684437,14 12.800781,14 l -1.60026,0 C 10.316866,14 9.6002611,13.283395 9.6002611,12.399739 l 0,-4.799478 C 9.6002611,6.716605 10.316866,6 11.200521,6 Z M 16.800781,6 20,6 l 0,8 -1.600261,0 0,-6.399739 -1.598958,0 0,-1.600261 z m -5.60026,1.600261 0,4.799478 1.60026,0 0,-4.799478 -1.60026,0 z"/>
  <path fill="none" d="M0 0h24v24H0z"/>
</svg>
