<svg xmlns="http://www.w3.org/2000/svg" width="325.00003" height="360" viewBox="0 0 325.00003 360">
  <path d="M378.405 112.468l-63.602 0c.014-.436.07-.872.07-1.324l0-12.797c0-23.281-19.07-42.348-42.352-42.348l-70.594 0c-23.299 0-42.352 19.066-42.352 42.348l0 12.797c0 .452.053.889.068 1.324l-63.6 0c-11.648 0-21.176 9.535-21.176 21.176l0 21.171c0 11.653 9.527 21.188 21.176 21.188l7.062 0 0-14.126 268.235 0 0 14.126 7.064 0c11.641 0 21.17-9.535 21.17-21.188l0-21.171c.001-11.641-9.529-21.176-21.169-21.176zm-183.752-21.171l84.703 0 0 21.171-84.703 0 0-21.171zM117.225 183.062l0 211.751c0 11.658 9.523 21.188 21.18 21.188l197.639 0c11.65 0 21.18-9.53 21.18-21.188l0-211.751-239.999 0zm70.586 187.05c0 3.888-3.18 7.059-7.055 7.059l-14.117 0c-3.891 0-7.062-3.171-7.062-7.059l0-141.174c0-3.874 3.172-7.062 7.062-7.062l14.117 0c3.875 0 7.055 3.188 7.055 7.062l0 141.174zm63.531 0c0 3.888-3.189 7.059-7.055 7.059l-14.125 0c-3.883 0-7.055-3.171-7.055-7.059l0-141.174c0-3.874 3.172-7.062 7.055-7.062l14.125 0c3.865 0 7.055 3.188 7.055 7.062l0 141.174zm63.532 0c0 3.888-3.189 7.059-7.062 7.059l-14.117 0c-3.885 0-7.055-3.171-7.055-7.059l0-141.174c0-3.874 3.17-7.062 7.055-7.062l14.117 0c3.873 0 7.062 3.188 7.062 7.062l0 141.174z" transform="translate(-74.935 -56)"/>
</svg>
