<?xml version="1.0" encoding="utf-8"?>
<svg xmlns="http://www.w3.org/2000/svg" width="262.628" height="336.822" viewBox="0 0 262.628 336.822">
  <path fill="#AFAFAF" d="M58.468 215.787h-.002c-15.926 0-28.838 14.669-28.838 32.765.402 14.042 28.838 70.514 28.838 70.514h.002s28.436-56.472 28.838-70.514c0-18.096-12.912-32.765-28.838-32.765zm-.001 46.139c-8.217 0-14.878-6.662-14.878-14.878 0-8.217 6.661-14.879 14.878-14.879s14.878 6.662 14.878 14.879c0 8.216-6.661 14.878-14.878 14.878z"/>
  <circle fill="none" cx="58.467" cy="247.048" r="14.878"/>
  <path fill="none" stroke="#AFAFAF" stroke-width="6" stroke-miterlimit="10" d="M80.896 299.103l29.545 34.719H6.492l29.544-34.719"/>
  <path fill="#AFAFAF" d="M198.442 71.514l-42.553 42.387-8.612-6.297-8.61-6.294 27.486-53.405"/>
  <path fill="none" stroke="#AFAFAF" stroke-width="6" stroke-miterlimit="10" d="M124.668 104.644s6.267 21.926 32.289 23.609m-48.205-13.703s11.353 25.645 43.591 31.873m-61.532-22.076s17.674 30.266 57.639 42.145"/>
  <path d="M104.315 5.59l35.276 25.792 9.811 24.689-4.55 6.225-4.552 6.226-26.502-1.864-35.276-25.792zm152.723 111.667l-35.275-25.792-26.502-1.864-4.552 6.225-4.551 6.226 9.812 24.689 35.275 25.792z" fill="none" stroke="#AFAFAF" stroke-width="8" stroke-miterlimit="10"/>
</svg>
